  0
SECTION
  2
HEADER
  9
$ACADVER
  1
AC1015
  9
$ACADMAINTVER
 70
     6
  9
$DWGCODEPAGE
  3
ANSI_936
  9
$INSBASE
 10
0.0
 20
0.0
 30
0.0
  9
$EXTMIN
 10
-5.0
 20
0.0
 30
0.0
  9
$EXTMAX
 10
105.0
 20
88.0
 30
0.0
  9
$LIMMIN
 10
0.0
 20
0.0
  9
$LIMMAX
 10
420.0
 20
297.0
  9
$ORTHOMODE
 70
     0
  9
$REGENMODE
 70
     1
  9
$FILLMODE
 70
     1
  9
$QTEXTMODE
 70
     0
  9
$MIRRTEXT
 70
     1
  9
$LTSCALE
 40
1.0
  9
$ATTMODE
 70
     1
  9
$TEXTSIZE
 40
3.5
  9
$TRACEWID
 40
1.0
  9
$TEXTSTYLE
  7
Standard
  9
$CLAYER
  8
0
  9
$CELTYPE
  6
ByLayer
  9
$CECOLOR
 62
   256
  9
$CELTSCALE
 40
1.0
  9
$DISPSILH
 70
     0
  9
$DIMSCALE
 40
1.0
  9
$DIMASZ
 40
4.08
  9
$DIMEXO
 40
0.0
  9
$DIMDLI
 40
3.75
  9
$DIMRND
 40
0.0
  9
$DIMDLE
 40
0.0
  9
$DIMEXE
 40
2.0
  9
$DIMTP
 40
0.0
  9
$DIMTM
 40
0.0
  9
$DIMTXT
 40
3.5
  9
$DIMCEN
 40
2.5
  9
$DIMTSZ
 40
0.0
  9
$DIMTOL
 70
     0
  9
$DIMLIM
 70
     0
  9
$DIMTIH
 70
     1
  9
$DIMTOH
 70
     1
  9
$DIMSE1
 70
     0
  9
$DIMSE2
 70
     0
  9
$DIMTAD
 70
     1
  9
$DIMZIN
 70
     0
  9
$DIMBLK
  1

  9
$DIMASO
 70
     1
  9
$DIMSHO
 70
     1
  9
$DIMPOST
  1

  9
$DIMAPOST
  1

  9
$DIMALT
 70
     0
  9
$DIMALTD
 70
     3
  9
$DIMALTF
 40
0.0393700787
  9
$DIMLFAC
 40
1.0
  9
$DIMTOFL
 70
     1
  9
$DIMTVP
 40
0.0
  9
$DIMTIX
 70
     0
  9
$DIMSOXD
 70
     0
  9
$DIMSAH
 70
     0
  9
$DIMBLK1
  1

  9
$DIMBLK2
  1

  9
$DIMSTYLE
  2
ISO-25
  9
$DIMCLRD
 70
     0
  9
$DIMCLRE
 70
     0
  9
$DIMCLRT
 70
     0
  9
$DIMTFAC
 40
1.0
  9
$DIMGAP
 40
1.524
  9
$DIMJUST
 70
     0
  9
$DIMSD1
 70
     0
  9
$DIMSD2
 70
     0
  9
$DIMTOLJ
 70
     0
  9
$DIMTZIN
 70
     0
  9
$DIMALTZ
 70
     0
  9
$DIMALTTZ
 70
     0
  9
$DIMUPT
 70
     0
  9
$DIMDEC
 70
     2
  9
$DIMTDEC
 70
     2
  9
$DIMALTU
 70
     2
  9
$DIMALTTD
 70
     3
  9
$DIMTXSTY
  7
Standard
  9
$DIMAUNIT
 70
     0
  9
$DIMADEC
 70
     2
  9
$DIMALTRND
 40
0.0
  9
$DIMAZIN
 70
     0
  9
$DIMDSEP
 70
    44
  9
$DIMATFIT
 70
     3
  9
$DIMFRAC
 70
     0
  9
$DIMLDRBLK
  1

  9
$DIMLUNIT
 70
     2
  9
$DIMLWD
 70
    -2
  9
$DIMLWE
 70
    -2
  9
$DIMTMOVE
 70
     0
  9
$LUNITS
 70
     2
  9
$LUPREC
 70
     2
  9
$SKETCHINC
 40
1.0
  9
$FILLETRAD
 40
10.0
  9
$AUNITS
 70
     0
  9
$AUPREC
 70
     2
  9
$MENU
  1
.
  9
$ELEVATION
 40
0.0
  9
$PELEVATION
 40
0.0
  9
$THICKNESS
 40
0.0
  9
$LIMCHECK
 70
     0
  9
$CHAMFERA
 40
0.0
  9
$CHAMFERB
 40
0.0
  9
$CHAMFERC
 40
0.0
  9
$CHAMFERD
 40
0.0
  9
$SKPOLY
 70
     0
  9
$TDCREATE
 40
2459063.684859803
  9
$TDUCREATE
 40
2459063.35152647
  9
$TDUPDATE
 40
2459063.684880232
  9
$TDUUPDATE
 40
2459063.351546898
  9
$TDINDWG
 40
0.0000000116
  9
$TDUSRTIMER
 40
0.0000000116
  9
$USRTIMER
 70
     1
  9
$ANGBASE
 50
0.0
  9
$ANGDIR
 70
     0
  9
$PDMODE
 70
     0
  9
$PDSIZE
 40
-1.0
  9
$PLINEWID
 40
0.0
  9
$SPLFRAME
 70
     0
  9
$SPLINETYPE
 70
     6
  9
$SPLINESEGS
 70
     8
  9
$HANDSEED
  5
1B4
  9
$SURFTAB1
 70
     6
  9
$SURFTAB2
 70
     6
  9
$SURFTYPE
 70
     6
  9
$SURFU
 70
     6
  9
$SURFV
 70
     6
  9
$UCSBASE
  2

  9
$UCSNAME
  2

  9
$UCSORG
 10
0.0
 20
0.0
 30
0.0
  9
$UCSXDIR
 10
1.0
 20
0.0
 30
0.0
  9
$UCSYDIR
 10
0.0
 20
1.0
 30
0.0
  9
$UCSORTHOREF
  2

  9
$UCSORTHOVIEW
 70
     0
  9
$UCSORGTOP
 10
0.0
 20
0.0
 30
0.0
  9
$UCSORGBOTTOM
 10
0.0
 20
0.0
 30
0.0
  9
$UCSORGLEFT
 10
0.0
 20
0.0
 30
0.0
  9
$UCSORGRIGHT
 10
0.0
 20
0.0
 30
0.0
  9
$UCSORGFRONT
 10
0.0
 20
0.0
 30
0.0
  9
$UCSORGBACK
 10
0.0
 20
0.0
 30
0.0
  9
$PUCSBASE
  2

  9
$PUCSNAME
  2

  9
$PUCSORG
 10
0.0
 20
0.0
 30
0.0
  9
$PUCSXDIR
 10
1.0
 20
0.0
 30
0.0
  9
$PUCSYDIR
 10
0.0
 20
1.0
 30
0.0
  9
$PUCSORTHOREF
  2

  9
$PUCSORTHOVIEW
 70
     0
  9
$PUCSORGTOP
 10
0.0
 20
0.0
 30
0.0
  9
$PUCSORGBOTTOM
 10
0.0
 20
0.0
 30
0.0
  9
$PUCSORGLEFT
 10
0.0
 20
0.0
 30
0.0
  9
$PUCSORGRIGHT
 10
0.0
 20
0.0
 30
0.0
  9
$PUCSORGFRONT
 10
0.0
 20
0.0
 30
0.0
  9
$PUCSORGBACK
 10
0.0
 20
0.0
 30
0.0
  9
$USERI1
 70
     0
  9
$USERI2
 70
     0
  9
$USERI3
 70
     0
  9
$USERI4
 70
     0
  9
$USERI5
 70
     0
  9
$USERR1
 40
0.0
  9
$USERR2
 40
0.0
  9
$USERR3
 40
0.0
  9
$USERR4
 40
0.0
  9
$USERR5
 40
0.0
  9
$WORLDVIEW
 70
     1
  9
$SHADEDGE
 70
     3
  9
$SHADEDIF
 70
    70
  9
$TILEMODE
 70
     1
  9
$MAXACTVP
 70
    64
  9
$PINSBASE
 10
0.0
 20
0.0
 30
0.0
  9
$PLIMCHECK
 70
     0
  9
$PEXTMIN
 10
1.0000000000E+20
 20
1.0000000000E+20
 30
1.0000000000E+20
  9
$PEXTMAX
 10
-1.0000000000E+20
 20
-1.0000000000E+20
 30
-1.0000000000E+20
  9
$PLIMMIN
 10
0.0
 20
0.0
  9
$PLIMMAX
 10
420.0
 20
297.0
  9
$UNITMODE
 70
     0
  9
$VISRETAIN
 70
     1
  9
$PLINEGEN
 70
     0
  9
$PSLTSCALE
 70
     1
  9
$TREEDEPTH
 70
  3020
  9
$CMLSTYLE
  2
Standard
  9
$CMLJUST
 70
     0
  9
$CMLSCALE
 40
20.0
  9
$PROXYGRAPHICS
 70
     1
  9
$MEASUREMENT
 70
     1
  9
$CELWEIGHT
370
    -1
  9
$ENDCAPS
280
     0
  9
$JOINSTYLE
280
     0
  9
$LWDISPLAY
290
     1
  9
$INSUNITS
 70
     4
  9
$HYPERLINKBASE
  1

  9
$STYLESHEET
  1

  9
$XEDIT
290
     1
  9
$CEPSNTYPE
380
     0
  9
$PSTYLEMODE
290
     1
  9
$FINGERPRINTGUID
  2
{52a8f83f-a537-452f-bcb9-4a65701c6f4c}
  9
$VERSIONGUID
  2
{FAEB1C32-E019-11D5-929B-00C0DF256EC4}
  9
$EXTNAMES
290
     1
  9
$PSVPSCALE
 40
0.0
  9
$OLESTARTUP
290
     0
  0
ENDSEC
  0
SECTION
  2
CLASSES
  0
CLASS
  1
ACDBDICTIONARYWDFLT
  2
AcDbDictionaryWithDefault
  3
ObjectDBX Classes
 90
        0
280
     0
281
     0
  0
CLASS
  1
VISUALSTYLE
  2
AcDbVisualStyle
  3
ObjectDBX Classes
 90
     4095
280
     0
281
     0
  0
CLASS
  1
MATERIAL
  2
AcDbMaterial
  3
ObjectDBX Classes
 90
     1153
280
     0
281
     0
  0
CLASS
  1
SCALE
  2
AcDbScale
  3
ObjectDBX Classes
 90
     1153
280
     0
281
     0
  0
CLASS
  1
TABLESTYLE
  2
AcDbTableStyle
  3
ObjectDBX Classes
 90
     4095
280
     0
281
     0
  0
CLASS
  1
MLEADERSTYLE
  2
AcDbMLeaderStyle
  3
ACDB_MLEADERSTYLE_CLASS
 90
     4095
280
     0
281
     0
  0
CLASS
  1
SUN
  2
AcDbSun
  3
SCENEOE
 90
     1153
280
     0
281
     0
  0
CLASS
  1
ACDBPLACEHOLDER
  2
AcDbPlaceHolder
  3
ObjectDBX Classes
 90
        0
280
     0
281
     0
  0
CLASS
  1
LAYOUT
  2
AcDbLayout
  3
ObjectDBX Classes
 90
        0
280
     0
281
     0
  0
ENDSEC
  0
SECTION
  2
TABLES
  0
TABLE
  2
VPORT
  5
8
330
0
100
AcDbSymbolTable
 70
     1
  0
VPORT
  5
29
330
8
100
AcDbSymbolTableRecord
100
AcDbViewportTableRecord
  2
*Active
 70
     0
 10
0.0
 20
0.0
 11
1.0
 21
1.0
 12
50.0
 22
44.0
 13
0.0
 23
0.0
 14
10.0
 24
10.0
 15
10.0
 25
10.0
 16
0.0
 26
0.0
 36
1.0
 17
0.0
 27
0.0
 37
0.0
 40
89.76
 41
1.25
 42
50.0
 43
0.0
 44
0.0
 50
0.0
 51
0.0
 71
     0
 72
   100
 73
     1
 74
     3
 75
     0
 76
     0
 77
     0
 78
     0
281
     0
 65
     1
110
0.0
120
0.0
130
0.0
111
1.0
121
0.0
131
0.0
112
0.0
122
1.0
132
0.0
 79
     0
146
0.0
  0
ENDTAB
  0
TABLE
  2
LTYPE
  5
5
330
0
100
AcDbSymbolTable
 70
     6
  0
LTYPE
  5
14
330
5
100
AcDbSymbolTableRecord
100
AcDbLinetypeTableRecord
  2
ByBlock
 70
     0
  3

 72
    65
 73
     0
 40
0.0
  0
LTYPE
  5
15
330
5
100
AcDbSymbolTableRecord
100
AcDbLinetypeTableRecord
  2
ByLayer
 70
     0
  3

 72
    65
 73
     0
 40
0.0
  0
LTYPE
  5
16
330
5
100
AcDbSymbolTableRecord
100
AcDbLinetypeTableRecord
  2
Continuous
 70
     0
  3
Solid line
 72
    65
 73
     0
 40
0.0
  0
LTYPE
  5
6E
330
5
100
AcDbSymbolTableRecord
100
AcDbLinetypeTableRecord
  2
HIDDEN
 70
     0
  3
Hidden __ __ __ __ __ __ __ __ __ __ __ __ __ __
 72
    65
 73
     2
 40
1.905
 49
1.27
 74
     0
 49
-0.635
 74
     0
  0
LTYPE
  5
6F
330
5
100
AcDbSymbolTableRecord
100
AcDbLinetypeTableRecord
  2
PHANTOM
 70
     0
  3
Phantom ______  __  __  ______  __  __  ______
 72
    65
 73
     6
 40
12.7
 49
6.35
 74
     0
 49
-1.27
 74
     0
 49
1.27
 74
     0
 49
-1.27
 74
     0
 49
1.27
 74
     0
 49
-1.27
 74
     0
  0
LTYPE
  5
70
330
5
100
AcDbSymbolTableRecord
100
AcDbLinetypeTableRecord
  2
CENTER
 70
     0
  3
Center ____ _ ____ _ ____ _ ____ _ ____ _ ____
 72
    65
 73
     4
 40
10.16
 49
6.35
 74
     0
 49
-1.27
 74
     0
 49
1.27
 74
     0
 49
-1.27
 74
     0
  0
LTYPE
  5
71
330
5
100
AcDbSymbolTableRecord
100
AcDbLinetypeTableRecord
  2
CENTERX2
 70
     0
  3
Center (2x) ________  __  ________  __  _____
 72
    65
 73
     4
 40
20.32
 49
12.7
 74
     0
 49
-2.54
 74
     0
 49
2.54
 74
     0
 49
-2.54
 74
     0
  0
LTYPE
  5
72
330
5
100
AcDbSymbolTableRecord
100
AcDbLinetypeTableRecord
  2
DOT2
 70
     0
  3
Dot (.5x) ........................................
 72
    65
 73
     2
 40
0.635
 49
0.0
 74
     0
 49
-0.635
 74
     0
  0
ENDTAB
  0
TABLE
  2
LAYER
  5
2
330
0
100
AcDbSymbolTable
 70
     1
  0
LAYER
  5
10
330
2
100
AcDbSymbolTableRecord
100
AcDbLayerTableRecord
  2
0
 70
     0
 62
     7
  6
Continuous
370
    -3
390
F
  0
ENDTAB
  0
TABLE
  2
STYLE
  5
3
330
0
100
AcDbSymbolTable
 70
     1
  0
STYLE
  5
11
330
3
100
AcDbSymbolTableRecord
100
AcDbTextStyleTableRecord
  2
Standard
 70
     0
 40
0.0
 41
1.0
 50
0.0
 71
     0
 42
3.5
  3
txt
  4

  0
ENDTAB
  0
TABLE
  2
VIEW
  5
6
330
0
100
AcDbSymbolTable
 70
     0
  0
ENDTAB
  0
TABLE
  2
UCS
  5
7
330
0
100
AcDbSymbolTable
 70
     0
  0
ENDTAB
  0
TABLE
  2
APPID
  5
9
330
0
100
AcDbSymbolTable
 70
     1
  0
APPID
  5
12
330
9
100
AcDbSymbolTableRecord
100
AcDbRegAppTableRecord
  2
ACAD
 70
     0
  0
ENDTAB
  0
TABLE
  2
DIMSTYLE
  5
A
330
0
100
AcDbSymbolTable
 70
     1
100
AcDbDimStyleTable
  0
DIMSTYLE
105
27
330
A
100
AcDbSymbolTableRecord
100
AcDbDimStyleTableRecord
  2
ISO-25
 70
     0
 41
2.5
 42
0.625
 43
3.75
 44
1.25
 73
     0
 74
     0
 77
     1
 78
     8
140
2.5
141
2.5
143
0.0393700787
147
0.625
171
     3
172
     1
178
     0
271
     2
272
     2
274
     3
278
    44
283
     0
284
     8
340
11
  0
ENDTAB
  0
TABLE
  2
BLOCK_RECORD
  5
1
330
0
100
AcDbSymbolTable
 70
     1
  0
BLOCK_RECORD
  5
1F
330
1
100
AcDbSymbolTableRecord
100
AcDbBlockTableRecord
  2
*Model_Space
340
22
  0
BLOCK_RECORD
  5
1B
330
1
100
AcDbSymbolTableRecord
100
AcDbBlockTableRecord
  2
*Paper_Space
340
1E
  0
BLOCK_RECORD
  5
23
330
1
100
AcDbSymbolTableRecord
100
AcDbBlockTableRecord
  2
*Paper_Space0
340
26
  0
ENDTAB
  0
ENDSEC
  0
SECTION
  2
BLOCKS
  0
BLOCK
  5
20
330
1F
100
AcDbEntity
  8
0
100
AcDbBlockBegin
  2
*Model_Space
 70
     0
 10
0.0
 20
0.0
 30
0.0
  3
*Model_Space
  1

  0
ENDBLK
  5
21
330
1F
100
AcDbEntity
  8
0
100
AcDbBlockEnd
  0
BLOCK
  5
1C
330
1B
100
AcDbEntity
 67
     1
  8
0
100
AcDbBlockBegin
  2
*Paper_Space
 70
     0
 10
0.0
 20
0.0
 30
0.0
  3
*Paper_Space
  1

  0
ENDBLK
  5
1D
330
1B
100
AcDbEntity
 67
     1
  8
0
100
AcDbBlockEnd
  0
BLOCK
  5
24
330
23
100
AcDbEntity
  8
0
100
AcDbBlockBegin
  2
*Paper_Space0
 70
     0
 10
0.0
 20
0.0
 30
0.0
  3
*Paper_Space0
  1

  0
ENDBLK
  5
25
330
23
100
AcDbEntity
  8
0
100
AcDbBlockEnd
  0
ENDSEC
  0
SECTION
  2
ENTITIES
  0
SPLINE
  5
87
330
1F
100
AcDbEntity
  8
0
  6
Continuous
 62
     7
370
    25
100
AcDbSpline
210
0.0
220
0.0
230
1.0
 70
     8
 71
     3
 72
    23
 73
    19
 74
     0
 42
0.000000001
 43
0.00000001
 40
0.0
 40
0.0
 40
0.0
 40
0.0
 40
0.0468429786239112
 40
0.0938808895412519
 40
0.1416298597984192
 40
0.1906336535885099
 40
0.2421940099546218
 40
0.2960451620694409
 40
0.3532249289397127
 40
0.4142122078526344
 40
0.4783806880372321
 40
0.544170290724557
 40
0.6128022717744391
 40
0.6845253685687908
 40
0.7583461456801293
 40
0.8353888874911809
 40
0.9161041183357477
 40
1.0
 40
1.0
 40
1.0
 40
1.0
 10
8.660627060318948
 20
72.10687905473223
 30
0.0
 10
8.661381531151937
 20
72.13737298624145
 30
0.0
 10
8.662893612471592
 20
72.19848774665576
 30
0.0
 10
8.6830197604685
 20
72.28865043670054
 30
0.0
 10
8.710511404029946
 20
72.37816125154943
 30
0.0
 10
8.75421773536164
 20
72.46438350948874
 30
0.0
 10
8.805624468308459
 20
72.55060029652742
 30
0.0
 10
8.870058892568998
 20
72.63470344011537
 30
0.0
 10
8.948257859993085
 20
72.71470584502495
 30
0.0
 10
9.034827004224498
 20
72.79563676384235
 30
0.0
 10
9.131962638607654
 20
72.87301450418313
 30
0.0
 10
9.238272664282864
 20
72.94624705663402
 30
0.0
 10
9.35310136664496
 20
73.01534949302783
 30
0.0
 10
9.476576031131868
 20
73.07958636445112
 30
0.0
 10
9.607195258010105
 20
73.14178641398065
 30
0.0
 10
9.747162460033453
 20
73.19717172931038
 30
0.0
 10
9.895272360254607
 20
73.24936163161757
 30
0.0
 10
9.997730863102905
 20
73.2800436875196
 30
0.0
 10
10.04994997698561
 20
73.29568113806556
 30
0.0
  0
SPLINE
  5
88
330
1F
100
AcDbEntity
  8
0
  6
Continuous
 62
     7
370
    25
100
AcDbSpline
210
0.0
220
0.0
230
1.0
 70
     8
 71
     3
 72
    23
 73
    19
 74
     0
 42
0.000000001
 43
0.00000001
 40
0.0
 40
0.0
 40
0.0
 40
0.0
 40
0.0812380056131738
 40
0.1600702896568903
 40
0.2352925885142992
 40
0.3080107647895722
 40
0.3786015297377617
 40
0.4463968024818028
 40
0.5134460925634681
 40
0.5786865267694454
 40
0.641645600603764
 40
0.6998653710422015
 40
0.7539990346128813
 40
0.8057899390376849
 40
0.8550010581386817
 40
0.902842396566638
 40
0.9512912099477697
 40
1.0
 40
1.0
 40
1.0
 40
1.0
 10
10.18406456031894
 20
71.1915144713989
 30
0.0
 10
10.13107845918682
 20
71.19208818729425
 30
0.0
 10
10.02667534771218
 20
71.1932186294913
 30
0.0
 10
9.87380407524268
 20
71.20735047011223
 30
0.0
 10
9.727063622714374
 20
71.22588534931575
 30
0.0
 10
9.587301472579725
 20
71.25450404239103
 30
0.0
 10
9.454963527804388
 20
71.29265410158132
 30
0.0
 10
9.328374302329918
 20
71.33673869081716
 30
0.0
 10
9.209080592490814
 20
71.38995445911792
 30
0.0
 10
9.097278276692544
 20
71.45107530148088
 30
0.0
 10
8.995321626717546
 20
71.51753874499502
 30
0.0
 10
8.906035917390149
 20
71.58922377844658
 30
0.0
 10
8.83040272210863
 20
71.66538253666471
 30
0.0
 10
8.769444354562248
 20
71.74637540302702
 30
0.0
 10
8.719765672714464
 20
71.83015805102072
 30
0.0
 10
8.685876238565655
 20
71.91911726752745
 30
0.0
 10
8.664017883340737
 20
72.01163194936204
 30
0.0
 10
8.661759349139736
 20
72.07507343352162
 30
0.0
 10
8.660627060318948
 20
72.10687905473225
 30
0.0
  0
SPLINE
  5
89
330
1F
100
AcDbEntity
  8
0
  6
Continuous
 62
     7
370
    25
100
AcDbSpline
210
0.0
220
0.0
230
1.0
 70
     8
 71
     3
 72
    19
 73
    15
 74
     0
 42
0.000000001
 43
0.00000001
 40
0.0
 40
0.0
 40
0.0
 40
0.0
 40
0.0452232190209461
 40
0.0903310654917335
 40
0.1366815158368076
 40
0.1847713327439357
 40
0.2361973658844034
 40
0.2915461778906944
 40
0.3519908563689925
 40
0.4174796961219087
 40
0.554561290124001
 40
0.6960608291862916
 40
0.8433801930785699
 40
1.0
 40
1.0
 40
1.0
 40
1.0
 10
11.66062706031894
 20
72.0274519713989
 30
0.0
 10
11.65947004990824
 20
71.99954966753201
 30
0.0
 10
11.65715898082809
 20
71.94381624358438
 30
0.0
 10
11.63531317365073
 20
71.86174033110201
 30
0.0
 10
11.5990310565753
 20
71.78360695563592
 30
0.0
 10
11.55240988815984
 20
71.70631961556546
 30
0.0
 10
11.48809095071021
 20
71.63530233340845
 30
0.0
 10
11.41210469180529
 20
71.56555861400435
 30
0.0
 10
11.32158047742948
 20
71.49977991952463
 30
0.0
 10
11.18378932323117
 20
71.4143364737095
 30
0.0
 10
10.99096872773266
 20
71.32394997100971
 30
0.0
 10
10.73910355738664
 20
71.24822571432037
 30
0.0
 10
10.46804416057484
 20
71.19957421452129
 30
0.0
 10
10.28063597095657
 20
71.1942553047616
 30
0.0
 10
10.18406456031894
 20
71.1915144713989
 30
0.0
  0
SPLINE
  5
8A
330
1F
100
AcDbEntity
  8
0
  6
Continuous
 62
     7
370
    25
100
AcDbSpline
210
0.0
220
0.0
230
1.0
 70
     8
 71
     3
 72
    15
 73
    11
 74
     0
 42
0.000000001
 43
0.00000001
 40
0.0
 40
0.0
 40
0.0
 40
0.0
 40
0.1772807143485582
 40
0.3325188737153607
 40
0.4686856387319814
 40
0.5856739353216043
 40
0.6912327388135314
 40
0.7933427620897693
 40
0.8941576605218726
 40
1.0
 40
1.0
 40
1.0
 40
1.0
 10
10.96531456031895
 20
72.72016030473223
 30
0.0
 10
11.02290043247178
 20
72.6970050515334
 30
0.0
 10
11.13091212128146
 20
72.65357360021868
 30
0.0
 10
11.27877798758222
 20
72.58170138508865
 30
0.0
 10
11.39887178955127
 20
72.50353029253897
 30
0.0
 10
11.49604561790946
 20
72.42333301804784
 30
0.0
 10
11.57038800722762
 20
72.33649208244901
 30
0.0
 10
11.62378710706245
 20
72.24174261297028
 30
0.0
 10
11.65470720102061
 20
72.13697094729055
 30
0.0
 10
11.65862202798337
 20
72.06454560436471
 30
0.0
 10
11.66062706031894
 20
72.0274519713989
 30
0.0
  0
SPLINE
  5
8B
330
1F
100
AcDbEntity
  8
0
  6
Continuous
 62
     7
370
    25
100
AcDbSpline
210
0.0
220
0.0
230
1.0
 70
     8
 71
     3
 72
    11
 73
     7
 74
     0
 42
0.000000001
 43
0.00000001
 40
0.0
 40
0.0
 40
0.0
 40
0.0
 40
0.1420286913530978
 40
0.34889357688494
 40
0.635161556220516
 40
1.0
 40
1.0
 40
1.0
 40
1.0
 10
10.74396039365228
 20
72.85427488806556
 30
0.0
 10
10.75033656358205
 20
72.84337019491247
 30
0.0
 10
10.76599962935018
 20
72.81658280876697
 30
0.0
 10
10.81324283884975
 20
72.78390014760055
 30
0.0
 10
10.88126675970789
 20
72.751467085584
 30
0.0
 10
10.93513194925683
 20
72.7314029593072
 30
0.0
 10
10.96531456031895
 20
72.72016030473223
 30
0.0
  0
SPLINE
  5
8C
330
1F
100
AcDbEntity
  8
0
  6
Continuous
 62
     7
370
    25
100
AcDbSpline
210
0.0
220
0.0
230
1.0
 70
     8
 71
     3
 72
    15
 73
    11
 74
     0
 42
0.000000001
 43
0.00000001
 40
0.0
 40
0.0
 40
0.0
 40
0.0
 40
0.196017634745498
 40
0.3760577352268755
 40
0.5366869922330189
 40
0.682587677524733
 40
0.8024952367718237
 40
0.8905200045300865
 40
0.9540748401812408
 40
1.0
 40
1.0
 40
1.0
 40
1.0
 10
11.24396039365228
 20
73.03005613806558
 30
0.0
 10
11.20835653238389
 20
73.02495735204106
 30
0.0
 10
11.14005090543708
 20
73.01517538560076
 30
0.0
 10
11.0427832723303
 20
72.99948888294438
 30
0.0
 10
10.95596920227426
 20
72.97801857118385
 30
0.0
 10
10.88117328323195
 20
72.95566578596247
 30
0.0
 10
10.81981329786372
 20
72.93239088909615
 30
0.0
 10
10.77780068987028
 20
72.9074653044158
 30
0.0
 10
10.74682860533761
 20
72.88367316570039
 30
0.0
 10
10.74480800440109
 20
72.86296263459667
 30
0.0
 10
10.74396039365228
 20
72.85427488806556
 30
0.0
  0
SPLINE
  5
8E
330
1F
100
AcDbEntity
  8
0
  6
Continuous
 62
     7
370
    25
100
AcDbSpline
210
0.0
220
0.0
230
1.0
 70
     8
 71
     3
 72
    15
 73
    11
 74
     0
 42
0.000000001
 43
0.00000001
 40
0.0
 40
0.0
 40
0.0
 40
0.0
 40
0.0921701211041125
 40
0.1937086878483675
 40
0.3044423513887834
 40
0.4244539021599663
 40
0.5538083175030266
 40
0.6937728658598742
 40
0.8420947137116864
 40
1.0
 40
1.0
 40
1.0
 40
1.0
 10
10.04994997698561
 20
73.29568113806556
 30
0.0
 10
10.08593095809056
 20
73.30539615404332
 30
0.0
 10
10.16155013439026
 20
73.32581364915926
 30
0.0
 10
10.28129930144451
 20
73.35443735316649
 30
0.0
 10
10.41290301406372
 20
73.38157374912532
 30
0.0
 10
10.55617765204914
 20
73.40759695163351
 30
0.0
 10
10.71171470313171
 20
73.43193379509393
 30
0.0
 10
10.8787370762199
 20
73.45687900674167
 30
0.0
 10
11.05767633519452
 20
73.47996775380172
 30
0.0
 10
11.18058357210948
 20
73.49497429904855
 30
0.0
 10
11.24396039365228
 20
73.50271238806556
 30
0.0
  0
SPLINE
  5
8F
330
1F
100
AcDbEntity
  8
0
  6
Continuous
 62
     7
370
    25
100
AcDbSpline
210
0.0
220
0.0
230
1.0
 70
     8
 71
     3
 72
    15
 73
    11
 74
     0
 42
0.000000001
 43
0.00000001
 40
0.0
 40
0.0
 40
0.0
 40
0.0
 40
0.170493323633157
 40
0.3267884564845832
 40
0.4681118642308225
 40
0.5977090876079314
 40
0.7144298324903968
 40
0.8198603322471558
 40
0.9137235308859987
 40
1.0
 40
1.0
 40
1.0
 40
1.0
 10
12.49396039365228
 20
71.8243269713989
 30
0.0
 10
12.49301983016442
 20
71.88075997051841
 30
0.0
 10
12.49121703059508
 20
71.9889263918426
 30
0.0
 10
12.48292697040914
 20
72.14372240349346
 30
0.0
 10
12.46639685209616
 20
72.28433089647848
 30
0.0
 10
12.44124602664615
 20
72.41022293901366
 30
0.0
 10
12.41255506134276
 20
72.52325093311856
 30
0.0
 10
12.37487963323365
 20
72.62104011664547
 30
0.0
 10
12.33092131653927
 20
72.70524368601635
 30
0.0
 10
12.29413229018644
 20
72.75230713707892
 30
0.0
 10
12.27651247698561
 20
72.77484780473225
 30
0.0
  0
SPLINE
  5
90
330
1F
100
AcDbEntity
  8
0
  6
Continuous
 62
     7
370
    25
100
AcDbSpline
210
0.0
220
0.0
230
1.0
 70
     8
 71
     3
 72
    15
 73
    11
 74
     0
 42
0.000000001
 43
0.00000001
 40
0.0
 40
0.0
 40
0.0
 40
0.0
 40
0.1079563074251739
 40
0.2164195582408577
 40
0.3268009253612849
 40
0.4394123363219826
 40
0.5599220506250404
 40
0.6936766277231351
 40
0.8394123547064234
 40
1.0
 40
1.0
 40
1.0
 40
1.0
 10
12.16192914365228
 20
70.70844155473223
 30
0.0
 10
12.18967352134798
 20
70.74123416960497
 30
0.0
 10
12.24529255934383
 20
70.80697338756814
 30
0.0
 10
12.31408380287943
 20
70.91766630340918
 30
0.0
 10
12.37145337443141
 20
71.03647409184961
 30
0.0
 10
12.41766173653249
 20
71.16520642950178
 30
0.0
 10
12.45308102625711
 20
71.30689454696646
 30
0.0
 10
12.47690194741859
 20
71.46426208964753
 30
0.0
 10
12.49101424601207
 20
71.63873877962833
 30
0.0
 10
12.49294710654954
 20
71.76049645639881
 30
0.0
 10
12.49396039365228
 20
71.8243269713989
 30
0.0
  0
SPLINE
  5
91
330
1F
100
AcDbEntity
  8
0
  6
Continuous
 62
     7
370
    25
100
AcDbSpline
210
0.0
220
0.0
230
1.0
 70
     8
 71
     3
 72
    19
 73
    15
 74
     0
 42
0.000000001
 43
0.00000001
 40
0.0
 40
0.0
 40
0.0
 40
0.0
 40
0.1174112560494992
 40
0.2242362811672884
 40
0.3222980835732364
 40
0.4101297830185838
 40
0.4881187803244001
 40
0.5566304561539247
 40
0.61496590378642
 40
0.6641961527550703
 40
0.7516945813559567
 40
0.8361147401172173
 40
0.918754252869567
 40
1.0
 40
1.0
 40
1.0
 40
1.0
 10
10.78953331031895
 20
69.91156655473223
 30
0.0
 10
10.84641436722326
 20
69.93755764518771
 30
0.0
 10
10.95504787561285
 20
69.9871963737331
 30
0.0
 10
11.11082009295798
 20
70.05933829141527
 30
0.0
 10
11.25228882265352
 20
70.12489246379418
 30
0.0
 10
11.3785371781417
 20
70.18668685127916
 30
0.0
 10
11.49083496273466
 20
70.2411511094909
 30
0.0
 10
11.58843374446193
 20
70.28996333590665
 30
0.0
 10
11.67059911660728
 20
70.33519921704882
 30
0.0
 10
11.76225330614236
 20
70.3841376471298
 30
0.0
 10
11.86227179768013
 20
70.44674968385023
 30
0.0
 10
11.97046059532961
 20
70.5285711293624
 30
0.0
 10
12.07194965129712
 20
70.61369502731554
 30
0.0
 10
12.1321065146349
 20
70.67703894882865
 30
0.0
 10
12.16192914365228
 20
70.70844155473223
 30
0.0
  0
SPLINE
  5
92
330
1F
100
AcDbEntity
  8
0
  6
Continuous
 62
     7
370
    25
100
AcDbSpline
210
0.0
220
0.0
230
1.0
 70
     8
 71
     3
 72
    13
 73
     9
 74
     0
 42
0.000000001
 43
0.00000001
 40
0.0
 40
0.0
 40
0.0
 40
0.0
 40
0.2135052334647001
 40
0.4169437540880786
 40
0.5284776642634622
 40
0.6624809634968081
 40
0.8201251513880257
 40
1.0
 40
1.0
 40
1.0
 40
1.0
 10
9.417137476985618
 20
69.14203530473223
 30
0.0
 10
9.50729900209131
 20
69.20899333916508
 30
0.0
 10
9.683370961273939
 20
69.33975235518427
 30
0.0
 10
9.920816578529488
 20
69.48490027369783
 30
0.0
 10
10.12904437652065
 20
69.59617338980111
 30
0.0
 10
10.31871503682739
 20
69.69090310281302
 30
0.0
 10
10.54182947574974
 20
69.79905171124672
 30
0.0
 10
10.70341770086634
 20
69.87245014647769
 30
0.0
 10
10.78953331031895
 20
69.91156655473223
 30
0.0
  0
SPLINE
  5
93
330
1F
100
AcDbEntity
  8
0
  6
Continuous
 62
     7
370
    25
100
AcDbSpline
210
0.0
220
0.0
230
1.0
 70
     8
 71
     3
 72
    13
 73
     9
 74
     0
 42
0.000000001
 43
0.00000001
 40
0.0
 40
0.0
 40
0.0
 40
0.0
 40
0.2104280979548655
 40
0.4138730410692187
 40
0.5255472913242132
 40
0.6603853646888086
 40
0.8181246635739469
 40
1.0
 40
1.0
 40
1.0
 40
1.0
 10
10.79474164365228
 20
69.36599363806558
 30
0.0
 10
10.69654607810291
 20
69.36383724804546
 30
0.0
 10
10.50341361276954
 20
69.3595960288165
 30
0.0
 10
10.25972030090522
 20
69.3284236969687
 30
0.0
 10
10.05365372633694
 20
69.28850556273173
 30
0.0
 10
9.868605624726058
 20
69.25194107465143
 30
0.0
 10
9.653623739921063
 20
69.19910066973945
 30
0.0
 10
9.499614650013969
 20
69.16193747547656
 30
0.0
 10
9.417137476985618
 20
69.14203530473225
 30
0.0
  0
SPLINE
  5
95
330
1F
100
AcDbEntity
  8
0
  6
Continuous
 62
     7
370
    25
100
AcDbSpline
210
0.0
220
0.0
230
1.0
 70
     8
 71
     3
 72
    15
 73
    11
 74
     0
 42
0.000000001
 43
0.00000001
 40
0.0
 40
0.0
 40
0.0
 40
0.0
 40
0.091732223786603
 40
0.1935235224463876
 40
0.3044026351318033
 40
0.4241059804101885
 40
0.5536319975796297
 40
0.6935814875781188
 40
0.8423702961366261
 40
1.0
 40
1.0
 40
1.0
 40
1.0
 10
12.22573122698561
 20
69.79437905473225
 30
0.0
 10
12.18837215929439
 20
69.78539582671246
 30
0.0
 10
12.10955734290296
 20
69.76644429738535
 30
0.0
 10
11.98627197314387
 20
69.73387579042264
 30
0.0
 10
11.85235077484177
 20
69.69582533801665
 30
0.0
 10
11.7074794789991
 20
69.65383834850732
 30
0.0
 10
11.55075872409284
 20
69.60895272845
 30
0.0
 10
11.38368309986364
 20
69.55619998242399
 30
0.0
 10
11.20522087182491
 20
69.50046247614274
 30
0.0
 10
11.08291790695516
 20
69.46153815903529
 30
0.0
 10
11.02000206031895
 20
69.44151447139892
 30
0.0
  0
SPLINE
  5
97
330
1F
100
AcDbEntity
  8
0
  6
Continuous
 62
     7
370
    25
100
AcDbSpline
210
0.0
220
0.0
230
1.0
 70
     8
 71
     3
 72
    23
 73
    19
 74
     0
 42
0.000000001
 43
0.00000001
 40
0.0
 40
0.0
 40
0.0
 40
0.0
 40
0.0473846277992197
 40
0.09433474652424
 40
0.1410548491442614
 40
0.1889743319142985
 40
0.2388919067334338
 40
0.2912500830129274
 40
0.3465927594543194
 40
0.4051107781463485
 40
0.4669004287752443
 40
0.5317186638343611
 40
0.6004316704544633
 40
0.6721666636829391
 40
0.7478652077809689
 40
0.827544487750406
 40
0.9118895912683633
 40
0.9999999999999999
 40
0.9999999999999999
 40
0.9999999999999999
 40
0.9999999999999999
 10
15.49396039365229
 20
71.80349363806558
 30
0.0
 10
15.49237490524713
 20
71.7542919675061
 30
0.0
 10
15.48921846709908
 20
71.65633979743814
 30
0.0
 10
15.45867119306294
 20
71.51265893246426
 30
0.0
 10
15.41343918384876
 20
71.37267155681056
 30
0.0
 10
15.34723232186667
 20
71.237590245922
 30
0.0
 10
15.26164784272615
 20
71.10707160198565
 30
0.0
 10
15.15791703711012
 20
70.98040715635551
 30
0.0
 10
15.03639109247758
 20
70.85778694005286
 30
0.0
 10
14.89632360552933
 20
70.74099443781847
 30
0.0
 10
14.74007414949819
 20
70.62915404770021
 30
0.0
 10
14.56696752458743
 20
70.5237006787609
 30
0.0
 10
14.37892655542807
 20
70.42363254107644
 30
0.0
 10
14.1743870784422
 20
70.3316710178165
 30
0.0
 10
13.95567249543434
 20
70.24406428690459
 30
0.0
 10
13.72025172923028
 20
70.1639711352702
 30
0.0
 10
13.4700057813093
 20
70.08784020756853
 30
0.0
 10
13.29626773644013
 20
70.0452869123968
 30
0.0
 10
13.20750206031895
 20
70.0235457213989
 30
0.0
  0
SPLINE
  5
98
330
1F
100
AcDbEntity
  8
0
  6
Continuous
 62
     7
370
    25
100
AcDbSpline
210
0.0
220
0.0
230
1.0
 70
     8
 71
     3
 72
    15
 73
    11
 74
     0
 42
0.000000001
 43
0.00000001
 40
0.0
 40
0.0
 40
0.0
 40
0.0
 40
0.1500218852806311
 40
0.2892593457290892
 40
0.4186173326594359
 40
0.5411976148107875
 40
0.6573891416264834
 40
0.7704967105617122
 40
0.8842333065146835
 40
1.0
 40
1.0
 40
1.0
 40
1.0
 10
14.69968956031895
 20
72.95062905473223
 30
0.0
 10
14.76260509801765
 20
72.91283814400462
 30
0.0
 10
14.88391344737532
 20
72.83997294776256
 30
0.0
 10
15.04575899680748
 20
72.71399806201059
 30
0.0
 10
15.18489455497683
 20
72.58228012223202
 30
0.0
 10
15.29787116096559
 20
72.44132457504742
 30
0.0
 10
15.38467909880705
 20
72.29220852143438
 30
0.0
 10
15.44915402607428
 20
72.13675536117583
 30
0.0
 10
15.48588014195344
 20
71.9722879041663
 30
0.0
 10
15.49125113982783
 20
71.86008921553312
 30
0.0
 10
15.49396039365229
 20
71.80349363806559
 30
0.0
  0
SPLINE
  5
99
330
1F
100
AcDbEntity
  8
0
  6
Continuous
 62
     7
370
    25
100
AcDbSpline
210
0.0
220
0.0
230
1.0
 70
     8
 71
     3
 72
    15
 73
    11
 74
     0
 42
0.000000001
 43
0.00000001
 40
0.0
 40
0.0
 40
0.0
 40
0.0
 40
0.1397519167647608
 40
0.2765554212017672
 40
0.4112690472308173
 40
0.5432831159620652
 40
0.6701254941839415
 40
0.7883582131805811
 40
0.897832361178749
 40
1.0
 40
1.0
 40
1.0
 40
1.0
 10
12.02911664365228
 20
73.52484780473223
 30
0.0
 10
12.15764250379024
 20
73.52322725115607
 30
0.0
 10
12.41198265316796
 20
73.52002033358951
 30
0.0
 10
12.78927799038753
 20
73.4904839023041
 30
0.0
 10
13.15736806527409
 20
73.4424974313119
 30
0.0
 10
13.51344750999465
 20
73.37680266051304
 30
0.0
 10
13.85053477010877
 20
73.29461764065532
 30
0.0
 10
14.16212938746515
 20
73.19806214888862
 30
0.0
 10
14.44458430052704
 20
73.08585999207014
 30
0.0
 10
14.61663436849159
 20
72.99465649442814
 30
0.0
 10
14.69968956031895
 20
72.95062905473223
 30
0.0
  0
SPLINE
  5
9C
330
1F
100
AcDbEntity
  8
0
  6
Continuous
 62
     7
370
    25
100
AcDbSpline
210
0.0
220
0.0
230
1.0
 70
     8
 71
     3
 72
    11
 73
     7
 74
     0
 42
0.000000001
 43
0.00000001
 40
0.0
 40
0.0
 40
0.0
 40
0.0
 40
0.2336748706309882
 40
0.4507503273781219
 40
0.691965027868296
 40
1.0
 40
1.0
 40
1.0
 40
1.0
 10
12.27651247698561
 20
72.77484780473223
 30
0.0
 10
12.2486420884559
 20
72.80490679673709
 30
0.0
 10
12.1948811225463
 20
72.86288949915715
 30
0.0
 10
12.09162459024513
 20
72.92768475513168
 30
0.0
 10
11.96977496096016
 20
72.98350057322082
 30
0.0
 10
11.87848932835936
 20
73.01332803940278
 30
0.0
 10
11.82729372698561
 20
73.03005613806558
 30
0.0
  0
SPLINE
  5
9D
330
1F
100
AcDbEntity
  8
0
  6
Continuous
 62
     7
370
    25
100
AcDbSpline
210
0.0
220
0.0
230
1.0
 70
     8
 71
     3
 72
    13
 73
     9
 74
     0
 42
0.000000001
 43
0.00000001
 40
0.0
 40
0.0
 40
0.0
 40
0.0
 40
0.210617454613054
 40
0.394494468512597
 40
0.5018976085136633
 40
0.6375185928593678
 40
0.8035717956235187
 40
1.0
 40
1.0
 40
1.0
 40
1.0
 10
14.90541872698561
 20
68.87641030473223
 30
0.0
 10
14.92433818670003
 20
68.88948062388927
 30
0.0
 10
14.95977505121963
 20
68.91396182663965
 30
0.0
 10
14.99561658941986
 20
68.95606901292618
 30
0.0
 10
15.01908156413104
 20
68.99616898076468
 30
0.0
 10
15.04042359448281
 20
69.03527901671768
 30
0.0
 10
15.06147011261785
 20
69.0852758644811
 30
0.0
 10
15.07764380655328
 20
69.12124279072037
 30
0.0
 10
15.08640831031895
 20
69.14073322139889
 30
0.0
  0
SPLINE
  5
9E
330
1F
100
AcDbEntity
  8
0
  6
Continuous
 62
     7
370
    25
100
AcDbSpline
210
0.0
220
0.0
230
1.0
 70
     8
 71
     3
 72
    11
 73
     7
 74
     0
 42
0.000000001
 43
0.00000001
 40
0.0
 40
0.0
 40
0.0
 40
0.0
 40
0.3077402198455
 40
0.5747463378129182
 40
0.8037021950919553
 40
1.0
 40
1.0
 40
1.0
 40
1.0
 10
14.37416872698561
 20
68.77484780473223
 30
0.0
 10
14.43025763689699
 20
68.77582056712792
 30
0.0
 10
14.53501123582424
 20
68.77763733201093
 30
0.0
 10
14.68004104652191
 20
68.79769865929106
 30
0.0
 10
14.80381189874381
 20
68.82577079225038
 30
0.0
 10
14.87332935321139
 20
68.86041738110796
 30
0.0
 10
14.90541872698561
 20
68.87641030473223
 30
0.0
  0
SPLINE
  5
9F
330
1F
100
AcDbEntity
  8
0
  6
Continuous
 62
     7
370
    25
100
AcDbSpline
210
0.0
220
0.0
230
1.0
 70
     8
 71
     3
 72
    15
 73
    11
 74
     0
 42
0.000000001
 43
0.00000001
 40
0.0
 40
0.0
 40
0.0
 40
0.0
 40
0.1838539135128937
 40
0.3506097818195393
 40
0.5010772408843028
 40
0.634461333829169
 40
0.7508357192710879
 40
0.8508870859720455
 40
0.9339177302999114
 40
0.9999999999999999
 40
0.9999999999999999
 40
0.9999999999999999
 40
0.9999999999999999
 10
12.60724164365228
 20
68.92458738806556
 30
0.0
 10
12.71529468669327
 20
68.91267869212683
 30
0.0
 10
12.92135205649127
 20
68.88996878508678
 30
0.0
 10
13.21615074032557
 20
68.8604743628436
 30
0.0
 10
13.48124382543848
 20
68.83378428651932
 30
0.0
 10
13.71700965377166
 20
68.81343596089981
 30
0.0
 10
13.92309369583382
 20
68.79583293352789
 30
0.0
 10
14.09976356790519
 20
68.78396818311138
 30
0.0
 10
14.24694746248949
 20
68.77714282917216
 30
0.0
 10
14.33510154264452
 20
68.77555256225227
 30
0.0
 10
14.37416872698561
 20
68.77484780473223
 30
0.0
  0
SPLINE
  5
A0
330
1F
100
AcDbEntity
  8
0
  6
Continuous
 62
     7
370
    25
100
AcDbSpline
210
0.0
220
0.0
230
1.0
 70
     8
 71
     3
 72
    15
 73
    11
 74
     0
 42
0.000000001
 43
0.00000001
 40
0.0
 40
0.0
 40
0.0
 40
0.0
 40
0.0967408808615696
 40
0.2005727791249119
 40
0.3132629359835051
 40
0.4348275074079183
 40
0.5635876387416141
 40
0.7003772908941672
 40
0.8461632415134814
 40
1.0
 40
1.0
 40
1.0
 40
1.0
 10
11.13067914365228
 20
69.02484780473225
 30
0.0
 10
11.17842736470218
 20
69.02468416749248
 30
0.0
 10
11.27742370739577
 20
69.0243448985541
 30
0.0
 10
11.43193628785759
 20
69.01836906384271
 30
0.0
 10
11.59860500321042
 20
69.01055723418972
 30
0.0
 10
11.77750036277304
 20
69.0005797006224
 30
0.0
 10
11.96797010844762
 20
68.98555127169419
 30
0.0
 10
12.17031183679201
 20
68.96907069932256
 30
0.0
 10
12.38465272202937
 20
68.94780949519178
 30
0.0
 10
12.5317280407292
 20
68.93246552038131
 30
0.0
 10
12.60724164365228
 20
68.92458738806556
 30
0.0
  0
SPLINE
  5
A1
330
1F
100
AcDbEntity
  8
0
  6
Continuous
 62
     7
370
    25
100
AcDbSpline
210
0.0
220
0.0
230
1.0
 70
     8
 71
     3
 72
    15
 73
    11
 74
     0
 42
0.000000001
 43
0.00000001
 40
0.0
 40
0.0
 40
0.0
 40
0.0
 40
0.1046499048113913
 40
0.2134754596798039
 40
0.3284302180574989
 40
0.4486710731879377
 40
0.5754513402706529
 40
0.7093717890041603
 40
0.8507570054177693
 40
1.0
 40
1.0
 40
1.0
 40
1.0
 10
9.273908310318948
 20
68.62771238806558
 30
0.0
 10
9.33286937710958
 20
68.65955433412303
 30
0.0
 10
9.453144124220222
 20
68.72450875604981
 30
0.0
 10
9.647802959908732
 20
68.80473584352279
 30
0.0
 10
9.857109868631364
 20
68.87350070798668
 30
0.0
 10
10.08213219122332
 20
68.92946339668752
 30
0.0
 10
10.32238658162126
 20
68.9716772581897
 30
0.0
 10
10.57790534234359
 20
69.0030096055317
 30
0.0
 10
10.8491707650153
 20
69.02097485361524
 30
0.0
 10
11.03516674617094
 20
69.02353375913152
 30
0.0
 10
11.13067914365228
 20
69.02484780473225
 30
0.0
  0
SPLINE
  5
A2
330
1F
100
AcDbEntity
  8
0
  6
Continuous
 62
     7
370
    25
100
AcDbSpline
210
0.0
220
0.0
230
1.0
 70
     8
 71
     3
 72
    15
 73
    11
 74
     0
 42
0.000000001
 43
0.00000001
 40
0.0
 40
0.0
 40
0.0
 40
0.0
 40
0.1006576242145081
 40
0.2060191475281679
 40
0.3182919234652825
 40
0.4410954914193896
 40
0.5718585734779663
 40
0.7082688062837895
 40
0.8502814310470401
 40
1.0
 40
1.0
 40
1.0
 40
1.0
 10
8.577293726985618
 20
67.70062905473223
 30
0.0
 10
8.57964898693734
 20
67.74123305936885
 30
0.0
 10
8.584469572076793
 20
67.82433856167678
 30
0.0
 10
8.622031312902976
 20
67.9480848545951
 30
0.0
 10
8.681915592790794
 20
68.07190313755831
 30
0.0
 10
8.76468429863149
 20
68.19432642603898
 30
0.0
 10
8.865439330806261
 20
68.31531602831437
 30
0.0
 10
8.986347747673005
 20
68.42782933852808
 30
0.0
 10
9.122181857476479
 20
68.53465492434165
 30
0.0
 10
9.222449980713032
 20
68.59615176333017
 30
0.0
 10
9.273908310318948
 20
68.62771238806558
 30
0.0
  0
SPLINE
  5
A3
330
1F
100
AcDbEntity
  8
0
  6
Continuous
 62
     7
370
    25
100
AcDbSpline
210
0.0
220
0.0
230
1.0
 70
     8
 71
     3
 72
    15
 73
    11
 74
     0
 42
0.000000001
 43
0.00000001
 40
0.0
 40
0.0
 40
0.0
 40
0.0
 40
0.1616013711611118
 40
0.3071374091522767
 40
0.4363943873537041
 40
0.5552430760028626
 40
0.6657585091538339
 40
0.7726259696858656
 40
0.8821247932755434
 40
1.0
 40
1.0
 40
1.0
 40
1.0
 10
8.936668726985612
 20
67.4415144713989
 30
0.0
 10
8.909702195658127
 20
67.4420657296089
 30
0.0
 10
8.85844996613657
 20
67.44311344360523
 30
0.0
 10
8.786503240022808
 20
67.45616272092269
 30
0.0
 10
8.724187115367933
 20
67.47708557989324
 30
0.0
 10
8.670544531822957
 20
67.50486008325933
 30
0.0
 10
8.629782029017118
 20
67.54408726369543
 30
0.0
 10
8.597945437411255
 20
67.589020594593
 30
0.0
 10
8.58140955514669
 20
67.64315376068868
 30
0.0
 10
8.578698955566248
 20
67.68100580451147
 30
0.0
 10
8.577293726985618
 20
67.70062905473223
 30
0.0
  0
SPLINE
  5
A4
330
1F
100
AcDbEntity
  8
0
  6
Continuous
 62
     7
370
    25
100
AcDbSpline
210
0.0
220
0.0
230
1.0
 70
     8
 71
     3
 72
    11
 73
     7
 74
     0
 42
0.000000001
 43
0.00000001
 40
0.0
 40
0.0
 40
0.0
 40
0.0
 40
0.3259396799202791
 40
0.5953504017629095
 40
0.8226319719134505
 40
0.9999999999999999
 40
0.9999999999999999
 40
0.9999999999999999
 40
0.9999999999999999
 10
9.288231226985612
 20
67.56911863806558
 30
0.0
 10
9.252083512688394
 20
67.54976840366841
 30
0.0
 10
9.186057319636578
 20
67.51442391960508
 30
0.0
 10
9.090529011128883
 20
67.47508811433657
 30
0.0
 10
9.009806444722726
 20
67.44743666614625
 30
0.0
 10
8.958957214802936
 20
67.44331924148966
 30
0.0
 10
8.936668726985612
 20
67.4415144713989
 30
0.0
  0
SPLINE
  5
A5
330
1F
100
AcDbEntity
  8
0
  6
Continuous
 62
     7
370
    25
100
AcDbSpline
210
0.0
220
0.0
230
1.0
 70
     8
 71
     3
 72
    11
 73
     7
 74
     0
 42
0.000000001
 43
0.00000001
 40
0.0
 40
0.0
 40
0.0
 40
0.0
 40
0.2277946399783542
 40
0.4675796534314047
 40
0.7246668686584694
 40
1.0
 40
1.0
 40
1.0
 40
1.0
 10
9.98484581031895
 20
67.77484780473223
 30
0.0
 10
9.929099781608205
 20
67.77209592279931
 30
0.0
 10
9.814673433441182
 20
67.76644730876434
 30
0.0
 10
9.641063877629565
 20
67.7265767103411
 30
0.0
 10
9.463373602224664
 20
67.66098727147109
 30
0.0
 10
9.347930751560762
 20
67.60043323985848
 30
0.0
 10
9.288231226985612
 20
67.56911863806558
 30
0.0
  0
SPLINE
  5
A6
330
1F
100
AcDbEntity
  8
0
  6
Continuous
 62
     7
370
    25
100
AcDbSpline
210
0.0
220
0.0
230
1.0
 70
     8
 71
     3
 72
    15
 73
    11
 74
     0
 42
0.000000001
 43
0.00000001
 40
0.0
 40
0.0
 40
0.0
 40
0.0
 40
0.1854773773513559
 40
0.3524889264216957
 40
0.503421977063124
 40
0.6374532528514654
 40
0.7530792644592725
 40
0.8527353296905955
 40
0.9342240305557676
 40
1.0
 40
1.0
 40
1.0
 40
1.0
 10
11.06427289365228
 20
67.6329207213989
 30
0.0
 10
10.99788535263294
 20
67.64431227074785
 30
0.0
 10
10.87171970701161
 20
67.66596124518148
 30
0.0
 10
10.6912413887015
 20
67.69522704632999
 30
0.0
 10
10.52863708275916
 20
67.71768433527117
 30
0.0
 10
10.38476885835124
 20
67.73926254689718
 30
0.0
 10
10.25890944299767
 20
67.75534843158465
 30
0.0
 10
10.15159712122372
 20
67.76534799760442
 30
0.0
 10
10.06219464275645
 20
67.77264590234745
 30
0.0
 10
10.00872714321787
 20
67.77416797076182
 30
0.0
 10
9.98484581031895
 20
67.77484780473223
 30
0.0
  0
SPLINE
  5
A8
330
1F
100
AcDbEntity
  8
0
  6
Continuous
 62
     7
370
    25
100
AcDbSpline
210
0.0
220
0.0
230
1.0
 70
     8
 71
     3
 72
    11
 73
     7
 74
     0
 42
0.000000001
 43
0.00000001
 40
0.0
 40
0.0
 40
0.0
 40
0.0
 40
0.2385230245758362
 40
0.4846131029934307
 40
0.7374830973765701
 40
1.0
 40
1.0
 40
1.0
 40
1.0
 10
13.16062706031895
 20
67.35818113806556
 30
0.0
 10
13.07204728956762
 20
67.35944234738392
 30
0.0
 10
12.89207758793153
 20
67.36200477741511
 30
0.0
 10
12.61891820379354
 20
67.38303351753987
 30
0.0
 10
12.33771932494038
 20
67.41342072293949
 30
0.0
 10
12.14878799694289
 20
67.44411118042085
 30
0.0
 10
12.05255414365229
 20
67.45974363806556
 30
0.0
  0
SPLINE
  5
A9
330
1F
100
AcDbEntity
  8
0
  6
Continuous
 62
     7
370
    25
100
AcDbSpline
210
0.0
220
0.0
230
1.0
 70
     8
 71
     3
 72
    15
 73
    11
 74
     0
 42
0.000000001
 43
0.00000001
 40
0.0
 40
0.0
 40
0.0
 40
0.0
 40
0.1090465918990724
 40
0.2259405917762847
 40
0.3514687728457305
 40
0.4853063243844764
 40
0.6208617438993091
 40
0.7519650200388355
 40
0.8776804845209313
 40
1.0
 40
1.0
 40
1.0
 40
1.0
 10
14.89890831031895
 20
67.79698322139892
 30
0.0
 10
14.84119892639307
 20
67.76528002486238
 30
0.0
 10
14.72162717152954
 20
67.69959214904785
 30
0.0
 10
14.52660139097305
 20
67.61518444955959
 30
0.0
 10
14.31131981433452
 20
67.54245856005673
 30
0.0
 10
14.08211623690404
 20
67.47663351215306
 30
0.0
 10
13.84599566760855
 20
67.42406415867683
 30
0.0
 10
13.61208940473571
 20
67.38628192156435
 30
0.0
 10
13.3841822888442
 20
67.36317711412795
 30
0.0
 10
13.23446217659995
 20
67.35983119329326
 30
0.0
 10
13.16062706031895
 20
67.35818113806556
 30
0.0
  0
SPLINE
  5
AA
330
1F
100
AcDbEntity
  8
0
  6
Continuous
 62
     7
370
    25
100
AcDbSpline
210
0.0
220
0.0
230
1.0
 70
     8
 71
     3
 72
    15
 73
    11
 74
     0
 42
0.000000001
 43
0.00000001
 40
0.0
 40
0.0
 40
0.0
 40
0.0
 40
0.0950852204389981
 40
0.1999652259248491
 40
0.3181714186339466
 40
0.4516822475463114
 40
0.5911621697500651
 40
0.728789994206274
 40
0.8642684446239649
 40
1.0
 40
1.0
 40
1.0
 40
1.0
 10
15.82729372698562
 20
69.0626082213989
 30
0.0
 10
15.82370139111431
 20
69.01103484019312
 30
0.0
 10
15.81614667071942
 20
68.90257547314418
 30
0.0
 10
15.76084781243537
 20
68.73756207161979
 30
0.0
 10
15.6729901228218
 20
68.56512091574422
 30
0.0
 10
15.55466959403216
 20
68.38866954219736
 30
0.0
 10
15.41400649205361
 20
68.2158807826903
 30
0.0
 10
15.25653774986205
 20
68.05668991417629
 30
0.0
 10
15.08492293855387
 20
67.91569462396986
 30
0.0
 10
14.96095175149621
 20
67.83657830051915
 30
0.0
 10
14.89890831031895
 20
67.7969832213989
 30
0.0
  0
SPLINE
  5
AB
330
1F
100
AcDbEntity
  8
0
  6
Continuous
 62
     7
370
    25
100
AcDbSpline
210
0.0
220
0.0
230
1.0
 70
     8
 71
     3
 72
    15
 73
    11
 74
     0
 42
0.000000001
 43
0.00000001
 40
0.0
 40
0.0
 40
0.0
 40
0.0
 40
0.1445541995650934
 40
0.2790665876452357
 40
0.4086460790921358
 40
0.5328644641891139
 40
0.6537760628800315
 40
0.7665613113563315
 40
0.8814824485449183
 40
1.0
 40
1.0
 40
1.0
 40
1.0
 10
15.44578331031895
 20
69.35818113806556
 30
0.0
 10
15.47185295256347
 20
69.35749585065874
 30
0.0
 10
15.52218124550964
 20
69.3561728810131
 30
0.0
 10
15.59542053524179
 20
69.34413712300982
 30
0.0
 10
15.66058448131151
 20
69.31718330142688
 30
0.0
 10
15.71861160986763
 20
69.28211832355498
 30
0.0
 10
15.767186579808
 20
69.23865890564426
 30
0.0
 10
15.80227518578673
 20
69.18581341542128
 30
0.0
 10
15.82404434077326
 20
69.1263080697483
 30
0.0
 10
15.8261995304528
 20
69.08405847343111
 30
0.0
 10
15.82729372698561
 20
69.0626082213989
 30
0.0
  0
SPLINE
  5
AC
330
1F
100
AcDbEntity
  8
0
  6
Continuous
 62
     7
370
    25
100
AcDbSpline
210
0.0
220
0.0
230
1.0
 70
     8
 71
     3
 72
    11
 73
     7
 74
     0
 42
0.000000001
 43
0.00000001
 40
0.0
 40
0.0
 40
0.0
 40
0.0
 40
0.2367201633651572
 40
0.4684048921307849
 40
0.7144207012600883
 40
1.0
 40
1.0
 40
1.0
 40
1.0
 10
15.08640831031895
 20
69.14073322139889
 30
0.0
 10
15.10220285708734
 20
69.17255645787601
 30
0.0
 10
15.13345597414393
 20
69.23552599725707
 30
0.0
 10
15.21696524898673
 20
69.30574711876747
 30
0.0
 10
15.32404144143736
 20
69.34849758889966
 30
0.0
 10
15.40323797695889
 20
69.35479701203597
 30
0.0
 10
15.44578331031895
 20
69.35818113806556
 30
0.0
  0
SPLINE
  5
AD
330
1F
100
AcDbEntity
  8
0
  6
Continuous
 62
     7
370
    25
100
AcDbSpline
210
0.0
220
0.0
230
1.0
 70
     8
 71
     3
 72
    13
 73
     9
 74
     0
 42
0.000000001
 43
0.00000001
 40
0.0
 40
0.0
 40
0.0
 40
0.0
 40
0.1907324122119919
 40
0.3720339089557413
 40
0.4795512597469642
 40
0.6199604940008622
 40
0.7947907635380266
 40
0.9999999999999999
 40
0.9999999999999999
 40
0.9999999999999999
 40
0.9999999999999999
 10
22.24474164365228
 20
67.97536863806556
 30
0.0
 10
22.26984923013543
 20
67.95805836451107
 30
0.0
 10
22.31882293856517
 20
67.92429373761374
 30
0.0
 10
22.3893070671997
 20
67.8927945864957
 30
0.0
 10
22.45556212814402
 20
67.87510489646772
 30
0.0
 10
22.52068980762677
 20
67.85722712608995
 30
0.0
 10
22.60243101285503
 20
67.84187969570266
 30
0.0
 10
22.66186690419298
 20
67.829636061056
 30
0.0
 10
22.69396039365228
 20
67.82302488806558
 30
0.0
  0
SPLINE
  5
AE
330
1F
100
AcDbEntity
  8
0
  6
Continuous
 62
     7
370
    25
100
AcDbSpline
210
0.0
220
0.0
230
1.0
 70
     8
 71
     3
 72
    11
 73
     7
 74
     0
 42
0.000000001
 43
0.00000001
 40
0.0
 40
0.0
 40
0.0
 40
0.0
 40
0.2711434903653722
 40
0.5173337575995086
 40
0.7556195362864155
 40
1.0
 40
1.0
 40
1.0
 40
1.0
 10
22.02729372698562
 20
68.44281655473223
 30
0.0
 10
22.02917493551804
 20
68.39422475724514
 30
0.0
 10
22.03276422574071
 20
68.30151304527064
 30
0.0
 10
22.0772321796899
 20
68.17271322935062
 30
0.0
 10
22.14508309101282
 20
68.05965805383067
 30
0.0
 10
22.21124365363011
 20
68.0037006370109
 30
0.0
 10
22.24474164365228
 20
67.97536863806558
 30
0.0
  0
SPLINE
  5
B0
330
1F
100
AcDbEntity
  8
0
  6
Continuous
 62
     7
370
    25
100
AcDbSpline
210
0.0
220
0.0
230
1.0
 70
     8
 71
     3
 72
    11
 73
     7
 74
     0
 42
0.000000001
 43
0.00000001
 40
0.0
 40
0.0
 40
0.0
 40
0.0
 40
0.2435555377772379
 40
0.4798391161206969
 40
0.7286804857182817
 40
1.0
 40
1.0
 40
1.0
 40
1.0
 10
22.24474164365228
 20
72.89724363806558
 30
0.0
 10
22.21129192006253
 20
72.8679798908987
 30
0.0
 10
22.14539119800025
 20
72.81032613889174
 30
0.0
 10
22.07653774885477
 20
72.69532540811524
 30
0.0
 10
22.03304136697251
 20
72.5635425697655
 30
0.0
 10
22.02926401821852
 20
72.4687983138407
 30
0.0
 10
22.02729372698562
 20
72.41937905473223
 30
0.0
  0
SPLINE
  5
B1
330
1F
100
AcDbEntity
  8
0
  6
Continuous
 62
     7
370
    25
100
AcDbSpline
210
0.0
220
0.0
230
1.0
 70
     8
 71
     3
 72
    13
 73
     9
 74
     0
 42
0.000000001
 43
0.00000001
 40
0.0
 40
0.0
 40
0.0
 40
0.0
 40
0.2045343401093388
 40
0.3793571983195679
 40
0.518647679560468
 40
0.6265960181264028
 40
0.8084145351162122
 40
1.0
 40
1.0
 40
1.0
 40
1.0
 10
22.69396039365228
 20
73.05349363806558
 30
0.0
 10
22.66180507137551
 20
73.04715246040678
 30
0.0
 10
22.6021654384246
 20
73.03539125009166
 30
0.0
 10
22.52115343523711
 20
73.01692375091106
 30
0.0
 10
22.45510503308565
 20
73.00221930368534
 30
0.0
 10
22.38944087850327
 20
72.98169900307005
 30
0.0
 10
22.31871144680298
 20
72.9497155904187
 30
0.0
 10
22.26982448228816
 20
72.91503664896628
 30
0.0
 10
22.24474164365228
 20
72.89724363806558
 30
0.0
  0
SPLINE
  5
B3
330
1F
100
AcDbEntity
  8
0
  6
Continuous
 62
     7
370
    25
100
AcDbSpline
210
0.0
220
0.0
230
1.0
 70
     8
 71
     3
 72
    15
 73
    11
 74
     0
 42
0.000000001
 43
0.00000001
 40
0.0
 40
0.0
 40
0.0
 40
0.0
 40
0.1196688723506483
 40
0.2383685420287385
 40
0.356229981553637
 40
0.4746565349157217
 40
0.5961146701317601
 40
0.7239696579866112
 40
0.8585653068126906
 40
0.9999999999999999
 40
0.9999999999999999
 40
0.9999999999999999
 40
0.9999999999999999
 10
20.19005414365228
 20
72.66286863806556
 30
0.0
 10
20.27712371087546
 20
72.72522778706464
 30
0.0
 10
20.45055766564063
 20
72.84944103598292
 30
0.0
 10
20.72821181488849
 20
73.00669437012506
 30
0.0
 10
21.01415722261112
 20
73.14522127019981
 30
0.0
 10
21.31372187531152
 20
73.25885597201153
 30
0.0
 10
21.6296218945902
 20
73.35126929581865
 30
0.0
 10
21.96475259054521
 20
73.42698796254216
 30
0.0
 10
22.3219711436157
 20
73.48281464191979
 30
0.0
 10
22.56793262842254
 20
73.50458060070922
 30
0.0
 10
22.69396039365228
 20
73.5157332213989
 30
0.0
  0
SPLINE
  5
B4
330
1F
100
AcDbEntity
  8
0
  6
Continuous
 62
     7
370
    25
100
AcDbSpline
210
0.0
220
0.0
230
1.0
 70
     8
 71
     3
 72
    23
 73
    19
 74
     0
 42
0.000000001
 43
0.00000001
 40
0.0
 40
0.0
 40
0.0
 40
0.0
 40
0.0630424631615411
 40
0.1252543331411472
 40
0.1869251849573566
 40
0.2477343788190975
 40
0.3083932763276513
 40
0.3691201620928431
 40
0.4296697065789825
 40
0.4907313027217093
 40
0.5520789223602535
 40
0.6139461367546711
 40
0.676158006734278
 40
0.738650635725039
 40
0.8019958421686962
 40
0.866715816510593
 40
0.9326739860457631
 40
1.0
 40
1.0
 40
1.0
 40
1.0
 10
19.02729372698561
 20
70.44411863806558
 30
0.0
 10
19.0285217696682
 20
70.49882514339413
 30
0.0
 10
19.03096167540096
 20
70.60751738826806
 30
0.0
 10
19.0435821063897
 20
70.76939000689362
 30
0.0
 10
19.06730916229125
 20
70.92803374794903
 30
0.0
 10
19.09992240008715
 20
71.0836907376934
 30
0.0
 10
19.14172387390484
 20
71.23628953398563
 30
0.0
 10
19.19229392512694
 20
71.38598625432313
 30
0.0
 10
19.25267316281809
 20
71.53237279541852
 30
0.0
 10
19.32146679454782
 20
71.67559524446571
 30
0.0
 10
19.39987545921399
 20
71.81510634814873
 30
0.0
 10
19.4868917402511
 20
71.95061550781554
 30
0.0
 10
19.58352499698387
 20
72.08069153044306
 30
0.0
 10
19.68822991406703
 20
72.2059783293177
 30
0.0
 10
19.80045219434747
 20
72.32756348123547
 30
0.0
 10
19.921456737924
 20
72.44481287575859
 30
0.0
 10
20.05198889258141
 20
72.5567581409298
 30
0.0
 10
20.14371859770973
 20
72.62725730373717
 30
0.0
 10
20.19005414365228
 20
72.66286863806556
 30
0.0
  0
SPLINE
  5
B5
330
1F
100
AcDbEntity
  8
0
  6
Continuous
 62
     7
370
    25
100
AcDbSpline
210
0.0
220
0.0
230
1.0
 70
     8
 71
     3
 72
    23
 73
    19
 74
     0
 42
0.000000001
 43
0.00000001
 40
0.0
 40
0.0
 40
0.0
 40
0.0
 40
0.0672264632610867
 40
0.1330871046476155
 40
0.197711381681322
 40
0.260962923598609
 40
0.3233631487150335
 40
0.3854830299607857
 40
0.4472587652416423
 40
0.508515674058322
 40
0.5694869823039387
 40
0.6299469960311678
 40
0.6905840888141836
 40
0.7516350914724148
 40
0.8123543706482342
 40
0.8739340336997288
 40
0.9365516575389612
 40
1.0
 40
1.0
 40
1.0
 40
1.0
 10
20.19005414365228
 20
68.22146238806556
 30
0.0
 10
20.14371859763252
 20
68.25707372237295
 30
0.0
 10
20.05198889235134
 20
68.32757288513876
 30
0.0
 10
19.92145673881551
 20
68.43951815061509
 30
0.0
 10
19.80045219110137
 20
68.55676754401269
 30
0.0
 10
19.68822992584025
 20
68.67835270001589
 30
0.0
 10
19.58352495375169
 20
68.80363948392838
 30
0.0
 10
19.48689190049454
 20
68.93371556190374
 30
0.0
 10
19.39987486686286
 20
69.06922451685575
 30
0.0
 10
19.32146898069298
 20
69.20873637632344
 30
0.0
 10
19.25266507271964
 20
69.3519560301076
 30
0.0
 10
19.19232387832299
 20
69.49835291944112
 30
0.0
 10
19.14147724886887
 20
69.64840789955902
 30
0.0
 10
19.10013488789114
 20
69.80156695420294
 30
0.0
 10
19.067281203181
 20
69.95759043286529
 30
0.0
 10
19.04350132039541
 20
70.11667187428503
 30
0.0
 10
19.0309742657038
 20
70.27942064406479
 30
0.0
 10
19.02852595099318
 20
70.3889786605393
 30
0.0
 10
19.02729372698561
 20
70.44411863806558
 30
0.0
  0
SPLINE
  5
B6
330
1F
100
AcDbEntity
  8
0
  6
Continuous
 62
     7
370
    25
100
AcDbSpline
210
0.0
220
0.0
230
1.0
 70
     8
 71
     3
 72
    15
 73
    11
 74
     0
 42
0.000000001
 43
0.00000001
 40
0.0
 40
0.0
 40
0.0
 40
0.0
 40
0.1414346931873094
 40
0.2760303420133889
 40
0.4038853298682411
 40
0.5253434650842781
 40
0.6437700184463628
 40
0.7616314579712613
 40
0.8803311276493515
 40
0.9999999999999999
 40
0.9999999999999999
 40
0.9999999999999999
 40
0.9999999999999999
 10
22.69396039365228
 20
67.36859780473223
 30
0.0
 10
22.56793262842254
 20
67.37975042542189
 30
0.0
 10
22.32197114361571
 20
67.40151638421135
 30
0.0
 10
21.96475259054521
 20
67.45734306358892
 30
0.0
 10
21.62962189459019
 20
67.53306173031251
 30
0.0
 10
21.31372187531153
 20
67.6254750541196
 30
0.0
 10
21.01415722261112
 20
67.73910975593132
 30
0.0
 10
20.72821181488848
 20
67.87763665600608
 30
0.0
 10
20.45055766564063
 20
68.0348899901482
 30
0.0
 10
20.27712371087546
 20
68.1591032390665
 30
0.0
 10
20.19005414365228
 20
68.22146238806558
 30
0.0
  0
SPLINE
  5
B8
330
1F
100
AcDbEntity
  8
0
  6
Continuous
 62
     7
370
    25
100
AcDbSpline
210
0.0
220
0.0
230
1.0
 70
     8
 71
     3
 72
    23
 73
    19
 74
     0
 42
0.000000001
 43
0.00000001
 40
0.0
 40
0.0
 40
0.0
 40
0.0
 40
0.0630838559319267
 40
0.1253833227929544
 40
0.186609234165856
 40
0.2469797042403096
 40
0.3078118238164751
 40
0.3682618589469324
 40
0.4285649227473021
 40
0.4896235306207865
 40
0.5507729020212617
 40
0.6124640503817108
 40
0.6745236857528935
 40
0.7372057608061927
 40
0.8007722793024115
 40
0.8657425231319951
 40
0.9319808276971566
 40
1.0
 40
1.0
 40
1.0
 40
1.0
 10
27.02729372698561
 20
70.44411863806558
 30
0.0
 10
27.02620867662211
 20
70.38896666471355
 30
0.0
 10
27.02405206748712
 20
70.27934848149836
 30
0.0
 10
27.00935873436685
 20
70.11673966920607
 30
0.0
 10
26.98603129824389
 20
69.95760407267188
 30
0.0
 10
26.95343487273371
 20
69.80136949684685
 30
0.0
 10
26.91043886299468
 20
69.64837702676029
 30
0.0
 10
26.85826832727295
 20
69.49836041387195
 30
0.0
 10
26.79698899117065
 20
69.35156406929214
 30
0.0
 10
26.72499276138967
 20
69.209068009659
 30
0.0
 10
26.64569587818269
 20
69.06913382149219
 30
0.0
 10
26.55717018962232
 20
68.93375076908042
 30
0.0
 10
26.45938095889283
 20
68.80320746116712
 30
0.0
 10
26.35192216320464
 20
68.67837964882838
 30
0.0
 10
26.23718411215533
 20
68.5567208340987
 30
0.0
 10
26.11351373486076
 20
68.4395408722027
 30
0.0
 10
25.98028065934046
 20
68.32717974742569
 30
0.0
 10
25.8861707580151
 20
68.25701175726458
 30
0.0
 10
25.83849164365228
 20
68.22146238806556
 30
0.0
  0
SPLINE
  5
B9
330
1F
100
AcDbEntity
  8
0
  6
Continuous
 62
     7
370
    25
100
AcDbSpline
210
0.0
220
0.0
230
1.0
 70
     8
 71
     3
 72
    23
 73
    19
 74
     0
 42
0.000000001
 43
0.00000001
 40
0.0
 40
0.0
 40
0.0
 40
0.0
 40
0.0681192233016131
 40
0.1344549593453477
 40
0.1995207694331729
 40
0.2631807894150573
 40
0.3259550650053805
 40
0.3881059853524376
 40
0.4498878766725502
 40
0.5111271941202374
 40
0.5722756145347199
 40
0.6326673795285626
 40
0.6932063320360754
 40
0.7536492444254687
 40
0.8141085148428675
 40
0.8754244848474204
 40
0.9373203115185418
 40
1.0
 40
1.0
 40
1.0
 40
1.0
 10
25.83849164365228
 20
72.66286863806556
 30
0.0
 10
25.88617075793393
 20
72.62731926884378
 30
0.0
 10
25.98028065909907
 20
72.55715127863776
 30
0.0
 10
26.11351373578948
 20
72.44479015418894
 30
0.0
 10
26.23718410877506
 20
72.32761019108423
 30
0.0
 10
26.35192217545737
 20
72.20595138073986
 30
0.0
 10
26.45938091402569
 20
72.08112355237817
 30
0.0
 10
26.55717035488973
 20
71.95058030341058
 30
0.0
 10
26.64569526751951
 20
71.81519703333923
 30
0.0
 10
26.72499501723602
 20
71.67526364926918
 30
0.0
 10
26.79698062750504
 20
71.53276461071138
 30
0.0
 10
26.85829914509396
 20
71.38597925709801
 30
0.0
 10
26.91018623847955
 20
71.2363165429605
 30
0.0
 10
26.95365010961474
 20
71.08389096169228
 30
0.0
 10
26.98600366977201
 20
70.92801971869288
 30
0.0
 10
27.00927418329661
 20
70.76932139115121
 30
0.0
 10
27.02406416133914
 20
70.60759008224548
 30
0.0
 10
27.02621269871658
 20
70.49883721996856
 30
0.0
 10
27.02729372698561
 20
70.44411863806558
 30
0.0
  0
SPLINE
  5
BA
330
1F
100
AcDbEntity
  8
0
  6
Continuous
 62
     7
370
    25
100
AcDbSpline
210
0.0
220
0.0
230
1.0
 70
     8
 71
     3
 72
    15
 73
    11
 74
     0
 42
0.000000001
 43
0.00000001
 40
0.0
 40
0.0
 40
0.0
 40
0.0
 40
0.1419737045759226
 40
0.2767491473990207
 40
0.4044169334529139
 40
0.5262318546081732
 40
0.6445602267510118
 40
0.7626894894316412
 40
0.8807133180461115
 40
0.9999999999999999
 40
0.9999999999999999
 40
0.9999999999999999
 40
0.9999999999999999
 10
23.27729372698561
 20
73.5157332213989
 30
0.0
 10
23.40635502001864
 20
73.50458348284856
 30
0.0
 10
23.65793402132592
 20
73.48284931280104
 30
0.0
 10
24.02298681458506
 20
73.42715034029787
 30
0.0
 10
24.36536358051894
 20
73.35097552305302
 30
0.0
 10
24.68837430892273
 20
73.25918473931786
 30
0.0
 10
24.99499515396061
 20
73.14484174569556
 30
0.0
 10
25.28803887079194
 20
73.00749363687437
 30
0.0
 10
25.57154249895624
 20
72.84909233151825
 30
0.0
 10
25.74919347084282
 20
72.72516303341973
 30
0.0
 10
25.83849164365228
 20
72.66286863806556
 30
0.0
  0
SPLINE
  5
BC
330
1F
100
AcDbEntity
  8
0
  6
Continuous
 62
     7
370
    25
100
AcDbSpline
210
0.0
220
0.0
230
1.0
 70
     8
 71
     3
 72
    13
 73
     9
 74
     0
 42
0.000000001
 43
0.00000001
 40
0.0
 40
0.0
 40
0.0
 40
0.0
 40
0.1871068699481951
 40
0.3711158096866253
 40
0.4777265780699873
 40
0.6175077927628129
 40
0.7917392616231027
 40
1.0
 40
1.0
 40
1.0
 40
1.0
 10
23.78250206031894
 20
72.89724363806558
 30
0.0
 10
23.75438466744961
 20
72.91517772659924
 30
0.0
 10
23.69861542164978
 20
72.95074896879366
 30
0.0
 10
23.61879693739241
 20
72.98123981744493
 30
0.0
 10
23.54523602435507
 20
73.00244280394121
 30
0.0
 10
23.47175921760672
 20
73.0167767311823
 30
0.0
 10
23.38083942152058
 20
73.03566985808429
 30
0.0
 10
23.31379714683261
 20
73.04721014238922
 30
0.0
 10
23.27729372698561
 20
73.05349363806558
 30
0.0
  0
SPLINE
  5
BD
330
1F
100
AcDbEntity
  8
0
  6
Continuous
 62
     7
370
    25
100
AcDbSpline
210
0.0
220
0.0
230
1.0
 70
     8
 71
     3
 72
    11
 73
     7
 74
     0
 42
0.000000001
 43
0.00000001
 40
0.0
 40
0.0
 40
0.0
 40
0.0
 40
0.2644179911630945
 40
0.5087534061866039
 40
0.7476092746716533
 40
1.0
 40
1.0
 40
1.0
 40
1.0
 10
24.02729372698561
 20
72.41937905473223
 30
0.0
 10
24.02447802585504
 20
72.46881897639105
 30
0.0
 10
24.01906047641114
 20
72.56394385210349
 30
0.0
 10
23.97205157141377
 20
72.69728626479545
 30
0.0
 10
23.89239218904327
 20
72.8115583119426
 30
0.0
 10
23.81979880240172
 20
72.86816201312085
 30
0.0
 10
23.78250206031894
 20
72.89724363806558
 30
0.0
  0
SPLINE
  5
BF
330
1F
100
AcDbEntity
  8
0
  6
Continuous
 62
     7
370
    25
100
AcDbSpline
210
0.0
220
0.0
230
1.0
 70
     8
 71
     3
 72
    11
 73
     7
 74
     0
 42
0.000000001
 43
0.00000001
 40
0.0
 40
0.0
 40
0.0
 40
0.0
 40
0.2534547655279692
 40
0.4942923927432907
 40
0.7359530818042659
 40
1.0
 40
1.0
 40
1.0
 40
1.0
 10
23.78250206031894
 20
67.97536863806556
 30
0.0
 10
23.81984938009632
 20
68.0035106216728
 30
0.0
 10
23.89268484648361
 20
68.05839366316856
 30
0.0
 10
23.97128027661514
 20
68.17078919806345
 30
0.0
 10
24.01935634859146
 20
68.30108422694063
 30
0.0
 10
24.02457098845763
 20
68.39419847828755
 30
0.0
 10
24.02729372698561
 20
68.44281655473223
 30
0.0
  0
SPLINE
  5
C0
330
1F
100
AcDbEntity
  8
0
  6
Continuous
 62
     7
370
    25
100
AcDbSpline
210
0.0
220
0.0
230
1.0
 70
     8
 71
     3
 72
    13
 73
     9
 74
     0
 42
0.000000001
 43
0.00000001
 40
0.0
 40
0.0
 40
0.0
 40
0.0
 40
0.2088239783029713
 40
0.3830632292267761
 40
0.5237556109298777
 40
0.6300084460332581
 40
0.8136201977969337
 40
1.0
 40
1.0
 40
1.0
 40
1.0
 10
23.27729372698561
 20
67.82302488806556
 30
0.0
 10
23.31373932917909
 20
67.82958900916434
 30
0.0
 10
23.38059453508412
 20
67.84163012362622
 30
0.0
 10
23.4721802037184
 20
67.85735246878593
 30
0.0
 10
23.54481733557158
 20
67.87490551165
 30
0.0
 10
23.61893373620505
 20
67.89322252704876
 30
0.0
 10
23.69848899053722
 20
67.9232866745337
 30
0.0
 10
23.75435837686948
 20
67.9579216110866
 30
0.0
 10
23.78250206031894
 20
67.97536863806556
 30
0.0
  0
SPLINE
  5
C2
330
1F
100
AcDbEntity
  8
0
  6
Continuous
 62
     7
370
    25
100
AcDbSpline
210
0.0
220
0.0
230
1.0
 70
     8
 71
     3
 72
    15
 73
    11
 74
     0
 42
0.000000001
 43
0.00000001
 40
0.0
 40
0.0
 40
0.0
 40
0.0
 40
0.1192866819538885
 40
0.2373105105683589
 40
0.3554397732489883
 40
0.4737681453918269
 40
0.5955830665470848
 40
0.7232508526009793
 40
0.8580262954240774
 40
1.0
 40
1.0
 40
1.0
 40
1.0
 10
25.83849164365228
 20
68.22146238806556
 30
0.0
 10
25.74919347084282
 20
68.15916799271137
 30
0.0
 10
25.57154249895624
 20
68.03523869461287
 30
0.0
 10
25.28803887079193
 20
67.87683738925676
 30
0.0
 10
24.99499515396061
 20
67.73948928043556
 30
0.0
 10
24.68837430892273
 20
67.62514628681326
 30
0.0
 10
24.36536358051893
 20
67.53335550307814
 30
0.0
 10
24.02298681458506
 20
67.45718068583321
 30
0.0
 10
23.65793402132593
 20
67.40148171333013
 30
0.0
 10
23.40635502001864
 20
67.37974754328258
 30
0.0
 10
23.27729372698561
 20
67.36859780473223
 30
0.0
  0
SPLINE
  5
C3
330
1F
100
AcDbEntity
  8
0
  6
Continuous
 62
     7
370
    25
100
AcDbSpline
210
0.0
220
0.0
230
1.0
 70
     8
 71
     3
 72
    23
 73
    19
 74
     0
 42
0.000000001
 43
0.00000001
 40
0.0
 40
0.0
 40
0.0
 40
0.0
 40
0.0468429786239112
 40
0.0938808895412521
 40
0.141629859798419
 40
0.19063365358851
 40
0.2421940099546215
 40
0.2960451620694411
 40
0.353224928939713
 40
0.4142122078526347
 40
0.4783806880372325
 40
0.5441702907245581
 40
0.6128022717744396
 40
0.6845253685687921
 40
0.7583461456801298
 40
0.8353888874911816
 40
0.9161041183357493
 40
1.0
 40
1.0
 40
1.0
 40
1.0
 10
30.06062706031894
 20
72.10687905473223
 30
0.0
 10
30.06138153115194
 20
72.13737298624145
 30
0.0
 10
30.06289361247158
 20
72.19848774665576
 30
0.0
 10
30.0830197604685
 20
72.28865043670052
 30
0.0
 10
30.11051140402994
 20
72.37816125154946
 30
0.0
 10
30.15421773536164
 20
72.46438350948874
 30
0.0
 10
30.20562446830845
 20
72.5506002965274
 30
0.0
 10
30.27005889256899
 20
72.63470344011535
 30
0.0
 10
30.34825785999308
 20
72.71470584502497
 30
0.0
 10
30.4348270042245
 20
72.79563676384235
 30
0.0
 10
30.53196263860765
 20
72.87301450418312
 30
0.0
 10
30.63827266428288
 20
72.94624705663406
 30
0.0
 10
30.75310136664495
 20
73.01534949302783
 30
0.0
 10
30.87657603113187
 20
73.07958636445115
 30
0.0
 10
31.00719525801009
 20
73.14178641398061
 30
0.0
 10
31.14716246003345
 20
73.1971717293104
 30
0.0
 10
31.29527236025461
 20
73.2493616316176
 30
0.0
 10
31.3977308631029
 20
73.2800436875196
 30
0.0
 10
31.44994997698561
 20
73.29568113806556
 30
0.0
  0
SPLINE
  5
C4
330
1F
100
AcDbEntity
  8
0
  6
Continuous
 62
     7
370
    25
100
AcDbSpline
210
0.0
220
0.0
230
1.0
 70
     8
 71
     3
 72
    23
 73
    19
 74
     0
 42
0.000000001
 43
0.00000001
 40
0.0
 40
0.0
 40
0.0
 40
0.0
 40
0.081238005613174
 40
0.1600702896568871
 40
0.2352925885142969
 40
0.3080107647895701
 40
0.3786015297377614
 40
0.4463968024818009
 40
0.5134460925634663
 40
0.5786865267694447
 40
0.641645600603764
 40
0.6998653710422003
 40
0.7539990346128803
 40
0.805789939037685
 40
0.8550010581386814
 40
0.9028423965666379
 40
0.9512912099477695
 40
1.0
 40
1.0
 40
1.0
 40
1.0
 10
31.58406456031894
 20
71.1915144713989
 30
0.0
 10
31.53107845918681
 20
71.19208818729425
 30
0.0
 10
31.42667534771218
 20
71.1932186294913
 30
0.0
 10
31.27380407524268
 20
71.20735047011225
 30
0.0
 10
31.12706362271438
 20
71.22588534931576
 30
0.0
 10
30.98730147257972
 20
71.25450404239105
 30
0.0
 10
30.85496352780438
 20
71.29265410158129
 30
0.0
 10
30.72837430232992
 20
71.33673869081716
 30
0.0
 10
30.60908059249081
 20
71.38995445911789
 30
0.0
 10
30.49727827669255
 20
71.4510753014809
 30
0.0
 10
30.39532162671754
 20
71.51753874499502
 30
0.0
 10
30.30603591739014
 20
71.58922377844658
 30
0.0
 10
30.23040272210862
 20
71.6653825366647
 30
0.0
 10
30.16944435456224
 20
71.74637540302702
 30
0.0
 10
30.11976567271447
 20
71.83015805102072
 30
0.0
 10
30.08587623856565
 20
71.91911726752747
 30
0.0
 10
30.06401788334073
 20
72.01163194936203
 30
0.0
 10
30.06175934913973
 20
72.07507343352161
 30
0.0
 10
30.06062706031894
 20
72.10687905473223
 30
0.0
  0
SPLINE
  5
C5
330
1F
100
AcDbEntity
  8
0
  6
Continuous
 62
     7
370
    25
100
AcDbSpline
210
0.0
220
0.0
230
1.0
 70
     8
 71
     3
 72
    19
 73
    15
 74
     0
 42
0.000000001
 43
0.00000001
 40
0.0
 40
0.0
 40
0.0
 40
0.0
 40
0.0452232190209457
 40
0.0903310654917327
 40
0.1366815158368071
 40
0.1847713327439356
 40
0.2361973658844031
 40
0.2915461778906947
 40
0.3519908563689926
 40
0.4174796961219086
 40
0.5545612901240021
 40
0.6960608291862925
 40
0.8433801930785676
 40
1.0
 40
1.0
 40
1.0
 40
1.0
 10
33.06062706031894
 20
72.0274519713989
 30
0.0
 10
33.05947004990824
 20
71.99954966753201
 30
0.0
 10
33.05715898082808
 20
71.94381624358437
 30
0.0
 10
33.03531317365075
 20
71.86174033110201
 30
0.0
 10
32.99903105657529
 20
71.78360695563589
 30
0.0
 10
32.95240988815986
 20
71.70631961556548
 30
0.0
 10
32.88809095071021
 20
71.63530233340845
 30
0.0
 10
32.81210469180529
 20
71.56555861400436
 30
0.0
 10
32.72158047742948
 20
71.49977991952461
 30
0.0
 10
32.58378932323117
 20
71.41433647370954
 30
0.0
 10
32.39096872773264
 20
71.32394997100967
 30
0.0
 10
32.13910355738665
 20
71.24822571432038
 30
0.0
 10
31.86804416057483
 20
71.1995742145213
 30
0.0
 10
31.68063597095657
 20
71.1942553047616
 30
0.0
 10
31.58406456031894
 20
71.1915144713989
 30
0.0
  0
SPLINE
  5
C6
330
1F
100
AcDbEntity
  8
0
  6
Continuous
 62
     7
370
    25
100
AcDbSpline
210
0.0
220
0.0
230
1.0
 70
     8
 71
     3
 72
    15
 73
    11
 74
     0
 42
0.000000001
 43
0.00000001
 40
0.0
 40
0.0
 40
0.0
 40
0.0
 40
0.1772807143485535
 40
0.3325188737153604
 40
0.4686856387319809
 40
0.5856739353216064
 40
0.6912327388135323
 40
0.7933427620897711
 40
0.8941576605218728
 40
1.0
 40
1.0
 40
1.0
 40
1.0
 10
32.36531456031894
 20
72.72016030473223
 30
0.0
 10
32.42290043247177
 20
72.69700505153341
 30
0.0
 10
32.53091212128145
 20
72.65357360021868
 30
0.0
 10
32.67877798758222
 20
72.58170138508865
 30
0.0
 10
32.79887178955126
 20
72.50353029253895
 30
0.0
 10
32.89604561790945
 20
72.42333301804783
 30
0.0
 10
32.97038800722763
 20
72.33649208244901
 30
0.0
 10
33.02378710706245
 20
72.24174261297033
 30
0.0
 10
33.0547072010206
 20
72.13697094729054
 30
0.0
 10
33.05862202798336
 20
72.06454560436472
 30
0.0
 10
33.06062706031894
 20
72.0274519713989
 30
0.0
  0
SPLINE
  5
C7
330
1F
100
AcDbEntity
  8
0
  6
Continuous
 62
     7
370
    25
100
AcDbSpline
210
0.0
220
0.0
230
1.0
 70
     8
 71
     3
 72
    11
 73
     7
 74
     0
 42
0.000000001
 43
0.00000001
 40
0.0
 40
0.0
 40
0.0
 40
0.0
 40
0.1420286913530937
 40
0.3488935768849249
 40
0.6351615562205234
 40
1.0
 40
1.0
 40
1.0
 40
1.0
 10
32.14396039365228
 20
72.85427488806556
 30
0.0
 10
32.15033656358205
 20
72.84337019491248
 30
0.0
 10
32.16599962935017
 20
72.81658280876697
 30
0.0
 10
32.21324283884975
 20
72.78390014760055
 30
0.0
 10
32.28126675970787
 20
72.75146708558395
 30
0.0
 10
32.33513194925683
 20
72.73140295930718
 30
0.0
 10
32.36531456031894
 20
72.72016030473223
 30
0.0
  0
SPLINE
  5
C8
330
1F
100
AcDbEntity
  8
0
  6
Continuous
 62
     7
370
    25
100
AcDbSpline
210
0.0
220
0.0
230
1.0
 70
     8
 71
     3
 72
    15
 73
    11
 74
     0
 42
0.000000001
 43
0.00000001
 40
0.0
 40
0.0
 40
0.0
 40
0.0
 40
0.1960176347455072
 40
0.3760577352268751
 40
0.5366869922330184
 40
0.6825876775247385
 40
0.8024952367718143
 40
0.8905200045300933
 40
0.9540748401812408
 40
1.0
 40
1.0
 40
1.0
 40
1.0
 10
32.64396039365229
 20
73.03005613806559
 30
0.0
 10
32.60835653238389
 20
73.02495735204107
 30
0.0
 10
32.54005090543706
 20
73.01517538560076
 30
0.0
 10
32.44278327233031
 20
72.99948888294438
 30
0.0
 10
32.35596920227425
 20
72.97801857118385
 30
0.0
 10
32.28117328323194
 20
72.95566578596248
 30
0.0
 10
32.21981329786372
 20
72.93239088909617
 30
0.0
 10
32.17780068987028
 20
72.90746530441577
 30
0.0
 10
32.14682860533761
 20
72.8836731657004
 30
0.0
 10
32.14480800440108
 20
72.86296263459668
 30
0.0
 10
32.14396039365228
 20
72.85427488806556
 30
0.0
  0
SPLINE
  5
CA
330
1F
100
AcDbEntity
  8
0
  6
Continuous
 62
     7
370
    25
100
AcDbSpline
210
0.0
220
0.0
230
1.0
 70
     8
 71
     3
 72
    15
 73
    11
 74
     0
 42
0.000000001
 43
0.00000001
 40
0.0
 40
0.0
 40
0.0
 40
0.0
 40
0.0921701211041124
 40
0.1937086878483686
 40
0.3044423513887844
 40
0.4244539021599684
 40
0.5538083175030244
 40
0.6937728658598761
 40
0.8420947137116895
 40
1.0
 40
1.0
 40
1.0
 40
1.0
 10
31.44994997698561
 20
73.29568113806556
 30
0.0
 10
31.48593095809055
 20
73.30539615404331
 30
0.0
 10
31.56155013439026
 20
73.32581364915929
 30
0.0
 10
31.6812993014445
 20
73.35443735316647
 30
0.0
 10
31.81290301406371
 20
73.38157374912534
 30
0.0
 10
31.95617765204915
 20
73.40759695163352
 30
0.0
 10
32.11171470313172
 20
73.43193379509394
 30
0.0
 10
32.27873707621989
 20
73.45687900674169
 30
0.0
 10
32.45767633519452
 20
73.47996775380169
 30
0.0
 10
32.58058357210948
 20
73.49497429904855
 30
0.0
 10
32.64396039365228
 20
73.50271238806556
 30
0.0
  0
SPLINE
  5
CB
330
1F
100
AcDbEntity
  8
0
  6
Continuous
 62
     7
370
    25
100
AcDbSpline
210
0.0
220
0.0
230
1.0
 70
     8
 71
     3
 72
    15
 73
    11
 74
     0
 42
0.000000001
 43
0.00000001
 40
0.0
 40
0.0
 40
0.0
 40
0.0
 40
0.1704933236331571
 40
0.3267884564845829
 40
0.4681118642308221
 40
0.5977090876079303
 40
0.7144298324903976
 40
0.8198603322471534
 40
0.9137235308859987
 40
1.0
 40
1.0
 40
1.0
 40
1.0
 10
33.89396039365228
 20
71.8243269713989
 30
0.0
 10
33.89301983016442
 20
71.88075997051841
 30
0.0
 10
33.89121703059508
 20
71.98892639184263
 30
0.0
 10
33.88292697040914
 20
72.14372240349344
 30
0.0
 10
33.86639685209617
 20
72.28433089647851
 30
0.0
 10
33.84124602664615
 20
72.41022293901366
 30
0.0
 10
33.81255506134274
 20
72.52325093311853
 30
0.0
 10
33.77487963323366
 20
72.6210401166455
 30
0.0
 10
33.73092131653927
 20
72.70524368601636
 30
0.0
 10
33.69413229018643
 20
72.7523071370789
 30
0.0
 10
33.67651247698561
 20
72.77484780473225
 30
0.0
  0
SPLINE
  5
CC
330
1F
100
AcDbEntity
  8
0
  6
Continuous
 62
     7
370
    25
100
AcDbSpline
210
0.0
220
0.0
230
1.0
 70
     8
 71
     3
 72
    15
 73
    11
 74
     0
 42
0.000000001
 43
0.00000001
 40
0.0
 40
0.0
 40
0.0
 40
0.0
 40
0.1079563074251747
 40
0.2164195582408584
 40
0.3268009253612861
 40
0.4394123363219836
 40
0.5599220506250417
 40
0.6936766277231358
 40
0.8394123547064235
 40
1.0
 40
1.0
 40
1.0
 40
1.0
 10
33.56192914365228
 20
70.70844155473225
 30
0.0
 10
33.58967352134798
 20
70.74123416960498
 30
0.0
 10
33.64529255934383
 20
70.80697338756815
 30
0.0
 10
33.71408380287944
 20
70.91766630340918
 30
0.0
 10
33.77145337443142
 20
71.03647409184964
 30
0.0
 10
33.81766173653249
 20
71.16520642950178
 30
0.0
 10
33.85308102625711
 20
71.30689454696648
 30
0.0
 10
33.87690194741858
 20
71.46426208964753
 30
0.0
 10
33.89101424601206
 20
71.63873877962831
 30
0.0
 10
33.89294710654955
 20
71.76049645639883
 30
0.0
 10
33.89396039365228
 20
71.8243269713989
 30
0.0
  0
SPLINE
  5
CD
330
1F
100
AcDbEntity
  8
0
  6
Continuous
 62
     7
370
    25
100
AcDbSpline
210
0.0
220
0.0
230
1.0
 70
     8
 71
     3
 72
    19
 73
    15
 74
     0
 42
0.000000001
 43
0.00000001
 40
0.0
 40
0.0
 40
0.0
 40
0.0
 40
0.1174112560494993
 40
0.2242362811672867
 40
0.3222980835732387
 40
0.4101297830185861
 40
0.4881187803244025
 40
0.5566304561539233
 40
0.6149659037864205
 40
0.6641961527550717
 40
0.7516945813559572
 40
0.8361147401172179
 40
0.9187542528695669
 40
0.9999999999999999
 40
0.9999999999999999
 40
0.9999999999999999
 40
0.9999999999999999
 10
32.18953331031894
 20
69.91156655473223
 30
0.0
 10
32.24641436722325
 20
69.93755764518771
 30
0.0
 10
32.35504787561284
 20
69.98719637373308
 30
0.0
 10
32.51082009295798
 20
70.05933829141527
 30
0.0
 10
32.65228882265352
 20
70.12489246379421
 30
0.0
 10
32.7785371781417
 20
70.18668685127915
 30
0.0
 10
32.89083496273466
 20
70.24115110949089
 30
0.0
 10
32.98843374446193
 20
70.28996333590666
 30
0.0
 10
33.07059911660728
 20
70.33519921704882
 30
0.0
 10
33.16225330614235
 20
70.38413764712979
 30
0.0
 10
33.26227179768012
 20
70.44674968385024
 30
0.0
 10
33.37046059532961
 20
70.52857112936238
 30
0.0
 10
33.47194965129711
 20
70.61369502731556
 30
0.0
 10
33.53210651463489
 20
70.67703894882867
 30
0.0
 10
33.56192914365227
 20
70.70844155473223
 30
0.0
  0
SPLINE
  5
CE
330
1F
100
AcDbEntity
  8
0
  6
Continuous
 62
     7
370
    25
100
AcDbSpline
210
0.0
220
0.0
230
1.0
 70
     8
 71
     3
 72
    13
 73
     9
 74
     0
 42
0.000000001
 43
0.00000001
 40
0.0
 40
0.0
 40
0.0
 40
0.0
 40
0.2135052334647008
 40
0.4169437540880818
 40
0.5284776642634625
 40
0.6624809634968093
 40
0.8201251513880288
 40
1.0
 40
1.0
 40
1.0
 40
1.0
 10
30.81713747698561
 20
69.14203530473225
 30
0.0
 10
30.90729900209131
 20
69.2089933391651
 30
0.0
 10
31.08337096127394
 20
69.3397523551843
 30
0.0
 10
31.32081657852948
 20
69.48490027369782
 30
0.0
 10
31.52904437652065
 20
69.59617338980107
 30
0.0
 10
31.71871503682738
 20
69.69090310281304
 30
0.0
 10
31.94182947574973
 20
69.79905171124669
 30
0.0
 10
32.10341770086634
 20
69.87245014647768
 30
0.0
 10
32.18953331031894
 20
69.91156655473223
 30
0.0
  0
SPLINE
  5
CF
330
1F
100
AcDbEntity
  8
0
  6
Continuous
 62
     7
370
    25
100
AcDbSpline
210
0.0
220
0.0
230
1.0
 70
     8
 71
     3
 72
    13
 73
     9
 74
     0
 42
0.000000001
 43
0.00000001
 40
0.0
 40
0.0
 40
0.0
 40
0.0
 40
0.210428097954864
 40
0.4138730410692206
 40
0.5255472913242113
 40
0.660385364688809
 40
0.8181246635739459
 40
1.0
 40
1.0
 40
1.0
 40
1.0
 10
32.19474164365228
 20
69.36599363806558
 30
0.0
 10
32.0965460781029
 20
69.36383724804546
 30
0.0
 10
31.90341361276953
 20
69.3595960288165
 30
0.0
 10
31.65972030090524
 20
69.3284236969687
 30
0.0
 10
31.45365372633694
 20
69.28850556273177
 30
0.0
 10
31.26860562472605
 20
69.2519410746514
 30
0.0
 10
31.05362373992106
 20
69.19910066973945
 30
0.0
 10
30.89961465001397
 20
69.16193747547656
 30
0.0
 10
30.81713747698561
 20
69.14203530473225
 30
0.0
  0
SPLINE
  5
D1
330
1F
100
AcDbEntity
  8
0
  6
Continuous
 62
     7
370
    25
100
AcDbSpline
210
0.0
220
0.0
230
1.0
 70
     8
 71
     3
 72
    15
 73
    11
 74
     0
 42
0.000000001
 43
0.00000001
 40
0.0
 40
0.0
 40
0.0
 40
0.0
 40
0.0917322237866074
 40
0.193523522446391
 40
0.3044026351318045
 40
0.4241059804101875
 40
0.5536319975796319
 40
0.6935814875781253
 40
0.8423702961366293
 40
1.0
 40
1.0
 40
1.0
 40
1.0
 10
33.62573122698561
 20
69.79437905473223
 30
0.0
 10
33.58837215929439
 20
69.78539582671245
 30
0.0
 10
33.50955734290296
 20
69.76644429738535
 30
0.0
 10
33.38627197314386
 20
69.73387579042267
 30
0.0
 10
33.25235077484177
 20
69.69582533801665
 30
0.0
 10
33.1074794789991
 20
69.6538383485073
 30
0.0
 10
32.95075872409284
 20
69.60895272844999
 30
0.0
 10
32.78368309986363
 20
69.55619998242398
 30
0.0
 10
32.6052208718249
 20
69.50046247614277
 30
0.0
 10
32.48291790695517
 20
69.46153815903529
 30
0.0
 10
32.42000206031895
 20
69.4415144713989
 30
0.0
  0
SPLINE
  5
D3
330
1F
100
AcDbEntity
  8
0
  6
Continuous
 62
     7
370
    25
100
AcDbSpline
210
0.0
220
0.0
230
1.0
 70
     8
 71
     3
 72
    23
 73
    19
 74
     0
 42
0.000000001
 43
0.00000001
 40
0.0
 40
0.0
 40
0.0
 40
0.0
 40
0.0473846277992198
 40
0.0943347465242401
 40
0.1410548491442615
 40
0.1889743319142981
 40
0.2388919067334346
 40
0.2912500830129283
 40
0.3465927594543195
 40
0.4051107781463495
 40
0.4669004287752443
 40
0.5317186638343612
 40
0.6004316704544624
 40
0.6721666636829398
 40
0.7478652077809684
 40
0.8275444877504061
 40
0.9118895912683618
 40
1.0
 40
1.0
 40
1.0
 40
1.0
 10
36.89396039365228
 20
71.80349363806558
 30
0.0
 10
36.89237490524712
 20
71.75429196750609
 30
0.0
 10
36.88921846709906
 20
71.65633979743812
 30
0.0
 10
36.85867119306295
 20
71.5126589324643
 30
0.0
 10
36.81343918384874
 20
71.37267155681053
 30
0.0
 10
36.74723232186668
 20
71.237590245922
 30
0.0
 10
36.66164784272614
 20
71.10707160198567
 30
0.0
 10
36.55791703711012
 20
70.98040715635548
 30
0.0
 10
36.43639109247757
 20
70.85778694005286
 30
0.0
 10
36.29632360552933
 20
70.7409944378185
 30
0.0
 10
36.14007414949817
 20
70.62915404770021
 30
0.0
 10
35.96696752458744
 20
70.52370067876095
 30
0.0
 10
35.77892655542805
 20
70.4236325410764
 30
0.0
 10
35.57438707844219
 20
70.33167101781652
 30
0.0
 10
35.35567249543433
 20
70.2440642869046
 30
0.0
 10
35.12025172923028
 20
70.16397113527019
 30
0.0
 10
34.87000578130929
 20
70.08784020756853
 30
0.0
 10
34.69626773644011
 20
70.0452869123968
 30
0.0
 10
34.60750206031894
 20
70.0235457213989
 30
0.0
  0
SPLINE
  5
D4
330
1F
100
AcDbEntity
  8
0
  6
Continuous
 62
     7
370
    25
100
AcDbSpline
210
0.0
220
0.0
230
1.0
 70
     8
 71
     3
 72
    15
 73
    11
 74
     0
 42
0.000000001
 43
0.00000001
 40
0.0
 40
0.0
 40
0.0
 40
0.0
 40
0.1500218852806299
 40
0.2892593457290897
 40
0.4186173326594361
 40
0.5411976148107877
 40
0.6573891416264833
 40
0.770496710561712
 40
0.8842333065146836
 40
1.0
 40
1.0
 40
1.0
 40
1.0
 10
36.09968956031894
 20
72.95062905473223
 30
0.0
 10
36.16260509801764
 20
72.91283814400462
 30
0.0
 10
36.28391344737531
 20
72.83997294776258
 30
0.0
 10
36.44575899680746
 20
72.71399806201055
 30
0.0
 10
36.58489455497681
 20
72.58228012223202
 30
0.0
 10
36.69787116096558
 20
72.4413245750474
 30
0.0
 10
36.78467909880706
 20
72.29220852143442
 30
0.0
 10
36.84915402607427
 20
72.1367553611758
 30
0.0
 10
36.88588014195344
 20
71.97228790416631
 30
0.0
 10
36.89125113982782
 20
71.86008921553308
 30
0.0
 10
36.89396039365228
 20
71.80349363806558
 30
0.0
  0
SPLINE
  5
D5
330
1F
100
AcDbEntity
  8
0
  6
Continuous
 62
     7
370
    25
100
AcDbSpline
210
0.0
220
0.0
230
1.0
 70
     8
 71
     3
 72
    15
 73
    11
 74
     0
 42
0.000000001
 43
0.00000001
 40
0.0
 40
0.0
 40
0.0
 40
0.0
 40
0.1397519167647605
 40
0.2765554212017676
 40
0.4112690472308154
 40
0.5432831159620661
 40
0.6701254941839426
 40
0.7883582131805819
 40
0.8978323611787505
 40
1.0
 40
1.0
 40
1.0
 40
1.0
 10
33.42911664365228
 20
73.52484780473223
 30
0.0
 10
33.55764250379023
 20
73.52322725115607
 30
0.0
 10
33.81198265316795
 20
73.52002033358951
 30
0.0
 10
34.18927799038753
 20
73.49048390230409
 30
0.0
 10
34.5573680652741
 20
73.44249743131192
 30
0.0
 10
34.91344750999465
 20
73.37680266051304
 30
0.0
 10
35.25053477010876
 20
73.29461764065529
 30
0.0
 10
35.56212938746516
 20
73.19806214888864
 30
0.0
 10
35.84458430052702
 20
73.08585999207013
 30
0.0
 10
36.01663436849157
 20
72.99465649442814
 30
0.0
 10
36.09968956031894
 20
72.95062905473223
 30
0.0
  0
SPLINE
  5
D8
330
1F
100
AcDbEntity
  8
0
  6
Continuous
 62
     7
370
    25
100
AcDbSpline
210
0.0
220
0.0
230
1.0
 70
     8
 71
     3
 72
    11
 73
     7
 74
     0
 42
0.000000001
 43
0.00000001
 40
0.0
 40
0.0
 40
0.0
 40
0.0
 40
0.2336748706309834
 40
0.4507503273781224
 40
0.6919650278683024
 40
1.0
 40
1.0
 40
1.0
 40
1.0
 10
33.67651247698561
 20
72.77484780473223
 30
0.0
 10
33.6486420884559
 20
72.80490679673709
 30
0.0
 10
33.59488112254631
 20
72.86288949915718
 30
0.0
 10
33.49162459024512
 20
72.92768475513165
 30
0.0
 10
33.36977496096017
 20
72.98350057322088
 30
0.0
 10
33.27848932835936
 20
73.01332803940282
 30
0.0
 10
33.22729372698561
 20
73.03005613806558
 30
0.0
  0
SPLINE
  5
D9
330
1F
100
AcDbEntity
  8
0
  6
Continuous
 62
     7
370
    25
100
AcDbSpline
210
0.0
220
0.0
230
1.0
 70
     8
 71
     3
 72
    13
 73
     9
 74
     0
 42
0.000000001
 43
0.00000001
 40
0.0
 40
0.0
 40
0.0
 40
0.0
 40
0.2106174546130621
 40
0.394494468512591
 40
0.5018976085136708
 40
0.6375185928593727
 40
0.803571795623521
 40
0.9999999999999999
 40
0.9999999999999999
 40
0.9999999999999999
 40
0.9999999999999999
 10
36.30541872698561
 20
68.87641030473223
 30
0.0
 10
36.32433818670003
 20
68.88948062388928
 30
0.0
 10
36.35977505121963
 20
68.91396182663964
 30
0.0
 10
36.39561658941984
 20
68.95606901292618
 30
0.0
 10
36.41908156413104
 20
68.99616898076465
 30
0.0
 10
36.44042359448279
 20
69.03527901671768
 30
0.0
 10
36.46147011261785
 20
69.08527586448109
 30
0.0
 10
36.47764380655328
 20
69.1212427907204
 30
0.0
 10
36.48640831031894
 20
69.14073322139889
 30
0.0
  0
SPLINE
  5
DA
330
1F
100
AcDbEntity
  8
0
  6
Continuous
 62
     7
370
    25
100
AcDbSpline
210
0.0
220
0.0
230
1.0
 70
     8
 71
     3
 72
    11
 73
     7
 74
     0
 42
0.000000001
 43
0.00000001
 40
0.0
 40
0.0
 40
0.0
 40
0.0
 40
0.3077402198455044
 40
0.5747463378129273
 40
0.8037021950919536
 40
1.0
 40
1.0
 40
1.0
 40
1.0
 10
35.77416872698561
 20
68.77484780473223
 30
0.0
 10
35.83025763689698
 20
68.77582056712795
 30
0.0
 10
35.93501123582424
 20
68.77763733201093
 30
0.0
 10
36.0800410465219
 20
68.79769865929102
 30
0.0
 10
36.20381189874382
 20
68.82577079225042
 30
0.0
 10
36.27332935321139
 20
68.86041738110798
 30
0.0
 10
36.30541872698561
 20
68.87641030473223
 30
0.0
  0
SPLINE
  5
DB
330
1F
100
AcDbEntity
  8
0
  6
Continuous
 62
     7
370
    25
100
AcDbSpline
210
0.0
220
0.0
230
1.0
 70
     8
 71
     3
 72
    15
 73
    11
 74
     0
 42
0.000000001
 43
0.00000001
 40
0.0
 40
0.0
 40
0.0
 40
0.0
 40
0.1838539135128913
 40
0.3506097818195393
 40
0.5010772408843034
 40
0.634461333829168
 40
0.7508357192710883
 40
0.8508870859720472
 40
0.9339177302999123
 40
1.0
 40
1.0
 40
1.0
 40
1.0
 10
34.00724164365228
 20
68.92458738806556
 30
0.0
 10
34.11529468669326
 20
68.91267869212683
 30
0.0
 10
34.32135205649126
 20
68.88996878508677
 30
0.0
 10
34.61615074032557
 20
68.86047436284363
 30
0.0
 10
34.8812438254385
 20
68.83378428651932
 30
0.0
 10
35.11700965377165
 20
68.81343596089981
 30
0.0
 10
35.32309369583382
 20
68.79583293352788
 30
0.0
 10
35.49976356790518
 20
68.78396818311138
 30
0.0
 10
35.64694746248949
 20
68.77714282917216
 30
0.0
 10
35.73510154264451
 20
68.77555256225227
 30
0.0
 10
35.77416872698561
 20
68.77484780473223
 30
0.0
  0
SPLINE
  5
DC
330
1F
100
AcDbEntity
  8
0
  6
Continuous
 62
     7
370
    25
100
AcDbSpline
210
0.0
220
0.0
230
1.0
 70
     8
 71
     3
 72
    15
 73
    11
 74
     0
 42
0.000000001
 43
0.00000001
 40
0.0
 40
0.0
 40
0.0
 40
0.0
 40
0.0967408808615661
 40
0.2005727791249131
 40
0.3132629359835027
 40
0.4348275074079148
 40
0.563587638741613
 40
0.7003772908941684
 40
0.8461632415134825
 40
1.0
 40
1.0
 40
1.0
 40
1.0
 10
32.53067914365228
 20
69.02484780473225
 30
0.0
 10
32.57842736470218
 20
69.02468416749248
 30
0.0
 10
32.67742370739576
 20
69.0243448985541
 30
0.0
 10
32.83193628785759
 20
69.01836906384273
 30
0.0
 10
32.99860500321041
 20
69.01055723418975
 30
0.0
 10
33.17750036277305
 20
69.00057970062238
 30
0.0
 10
33.36797010844761
 20
68.98555127169419
 30
0.0
 10
33.57031183679202
 20
68.96907069932256
 30
0.0
 10
33.78465272202936
 20
68.9478094951918
 30
0.0
 10
33.9317280407292
 20
68.93246552038131
 30
0.0
 10
34.00724164365228
 20
68.92458738806556
 30
0.0
  0
SPLINE
  5
DD
330
1F
100
AcDbEntity
  8
0
  6
Continuous
 62
     7
370
    25
100
AcDbSpline
210
0.0
220
0.0
230
1.0
 70
     8
 71
     3
 72
    15
 73
    11
 74
     0
 42
0.000000001
 43
0.00000001
 40
0.0
 40
0.0
 40
0.0
 40
0.0
 40
0.1046499048113912
 40
0.2134754596798037
 40
0.3284302180574969
 40
0.4486710731879374
 40
0.5754513402706524
 40
0.7093717890041598
 40
0.8507570054177677
 40
1.0
 40
1.0
 40
1.0
 40
1.0
 10
30.67390831031894
 20
68.62771238806558
 30
0.0
 10
30.73286937710958
 20
68.65955433412303
 30
0.0
 10
30.85314412422021
 20
68.72450875604981
 30
0.0
 10
31.04780295990873
 20
68.80473584352279
 30
0.0
 10
31.25710986863136
 20
68.87350070798668
 30
0.0
 10
31.4821321912233
 20
68.92946339668748
 30
0.0
 10
31.72238658162126
 20
68.97167725818973
 30
0.0
 10
31.97790534234359
 20
69.0030096055317
 30
0.0
 10
32.2491707650153
 20
69.02097485361524
 30
0.0
 10
32.43516674617094
 20
69.02353375913152
 30
0.0
 10
32.53067914365228
 20
69.02484780473225
 30
0.0
  0
SPLINE
  5
DE
330
1F
100
AcDbEntity
  8
0
  6
Continuous
 62
     7
370
    25
100
AcDbSpline
210
0.0
220
0.0
230
1.0
 70
     8
 71
     3
 72
    15
 73
    11
 74
     0
 42
0.000000001
 43
0.00000001
 40
0.0
 40
0.0
 40
0.0
 40
0.0
 40
0.1006576242145081
 40
0.2060191475281683
 40
0.3182919234652822
 40
0.4410954914193894
 40
0.5718585734779652
 40
0.7082688062837894
 40
0.850281431047039
 40
1.0
 40
1.0
 40
1.0
 40
1.0
 10
29.97729372698561
 20
67.70062905473225
 30
0.0
 10
29.97964898693734
 20
67.74123305936887
 30
0.0
 10
29.98446957207678
 20
67.82433856167677
 30
0.0
 10
30.02203131290299
 20
67.94808485459512
 30
0.0
 10
30.08191559279078
 20
68.07190313755827
 30
0.0
 10
30.1646842986315
 20
68.19432642603901
 30
0.0
 10
30.26543933080624
 20
68.31531602831434
 30
0.0
 10
30.38634774767301
 20
68.4278293385281
 30
0.0
 10
30.52218185747647
 20
68.53465492434164
 30
0.0
 10
30.62244998071303
 20
68.59615176333017
 30
0.0
 10
30.67390831031894
 20
68.62771238806558
 30
0.0
  0
SPLINE
  5
DF
330
1F
100
AcDbEntity
  8
0
  6
Continuous
 62
     7
370
    25
100
AcDbSpline
210
0.0
220
0.0
230
1.0
 70
     8
 71
     3
 72
    15
 73
    11
 74
     0
 42
0.000000001
 43
0.00000001
 40
0.0
 40
0.0
 40
0.0
 40
0.0
 40
0.1616013711611146
 40
0.3071374091522789
 40
0.4363943873537058
 40
0.5552430760028638
 40
0.6657585091538373
 40
0.7726259696858666
 40
0.8821247932755438
 40
1.0
 40
1.0
 40
1.0
 40
1.0
 10
30.33666872698561
 20
67.4415144713989
 30
0.0
 10
30.30970219565813
 20
67.4420657296089
 30
0.0
 10
30.25844996613658
 20
67.44311344360524
 30
0.0
 10
30.1865032400228
 20
67.45616272092268
 30
0.0
 10
30.12418711536793
 20
67.47708557989324
 30
0.0
 10
30.07054453182295
 20
67.50486008325935
 30
0.0
 10
30.02978202901711
 20
67.54408726369545
 30
0.0
 10
29.99794543741125
 20
67.589020594593
 30
0.0
 10
29.98140955514669
 20
67.64315376068866
 30
0.0
 10
29.97869895556624
 20
67.68100580451147
 30
0.0
 10
29.97729372698561
 20
67.70062905473223
 30
0.0
  0
SPLINE
  5
E0
330
1F
100
AcDbEntity
  8
0
  6
Continuous
 62
     7
370
    25
100
AcDbSpline
210
0.0
220
0.0
230
1.0
 70
     8
 71
     3
 72
    11
 73
     7
 74
     0
 42
0.000000001
 43
0.00000001
 40
0.0
 40
0.0
 40
0.0
 40
0.0
 40
0.3259396799202833
 40
0.5953504017629139
 40
0.822631971913455
 40
1.0
 40
1.0
 40
1.0
 40
1.0
 10
30.68823122698561
 20
67.56911863806558
 30
0.0
 10
30.65208351268839
 20
67.54976840366842
 30
0.0
 10
30.58605731963657
 20
67.5144239196051
 30
0.0
 10
30.49052901112888
 20
67.47508811433656
 30
0.0
 10
30.40980644472273
 20
67.44743666614627
 30
0.0
 10
30.35895721480293
 20
67.44331924148968
 30
0.0
 10
30.33666872698561
 20
67.4415144713989
 30
0.0
  0
SPLINE
  5
E1
330
1F
100
AcDbEntity
  8
0
  6
Continuous
 62
     7
370
    25
100
AcDbSpline
210
0.0
220
0.0
230
1.0
 70
     8
 71
     3
 72
    11
 73
     7
 74
     0
 42
0.000000001
 43
0.00000001
 40
0.0
 40
0.0
 40
0.0
 40
0.0
 40
0.2277946399783565
 40
0.4675796534314046
 40
0.7246668686584715
 40
0.9999999999999999
 40
0.9999999999999999
 40
0.9999999999999999
 40
0.9999999999999999
 10
31.38484581031895
 20
67.77484780473225
 30
0.0
 10
31.32909978160821
 20
67.77209592279934
 30
0.0
 10
31.21467343344119
 20
67.76644730876436
 30
0.0
 10
31.04106387762956
 20
67.72657671034112
 30
0.0
 10
30.86337360222466
 20
67.66098727147109
 30
0.0
 10
30.74793075156077
 20
67.60043323985848
 30
0.0
 10
30.68823122698561
 20
67.56911863806558
 30
0.0
  0
SPLINE
  5
E2
330
1F
100
AcDbEntity
  8
0
  6
Continuous
 62
     7
370
    25
100
AcDbSpline
210
0.0
220
0.0
230
1.0
 70
     8
 71
     3
 72
    15
 73
    11
 74
     0
 42
0.000000001
 43
0.00000001
 40
0.0
 40
0.0
 40
0.0
 40
0.0
 40
0.185477377351362
 40
0.3524889264217
 40
0.5034219770631265
 40
0.6374532528514708
 40
0.7530792644592779
 40
0.8527353296905943
 40
0.9342240305557694
 40
1.0
 40
1.0
 40
1.0
 40
1.0
 10
32.46427289365228
 20
67.6329207213989
 30
0.0
 10
32.39788535263294
 20
67.64431227074786
 30
0.0
 10
32.27171970701161
 20
67.66596124518146
 30
0.0
 10
32.0912413887015
 20
67.69522704633002
 30
0.0
 10
31.92863708275916
 20
67.71768433527114
 30
0.0
 10
31.78476885835124
 20
67.73926254689718
 30
0.0
 10
31.65890944299766
 20
67.75534843158466
 30
0.0
 10
31.55159712122372
 20
67.76534799760442
 30
0.0
 10
31.46219464275644
 20
67.77264590234745
 30
0.0
 10
31.40872714321787
 20
67.77416797076182
 30
0.0
 10
31.38484581031895
 20
67.77484780473223
 30
0.0
  0
SPLINE
  5
E4
330
1F
100
AcDbEntity
  8
0
  6
Continuous
 62
     7
370
    25
100
AcDbSpline
210
0.0
220
0.0
230
1.0
 70
     8
 71
     3
 72
    11
 73
     7
 74
     0
 42
0.000000001
 43
0.00000001
 40
0.0
 40
0.0
 40
0.0
 40
0.0
 40
0.2385230245758357
 40
0.4846131029934266
 40
0.7374830973765749
 40
1.0
 40
1.0
 40
1.0
 40
1.0
 10
34.56062706031894
 20
67.35818113806556
 30
0.0
 10
34.47204728956761
 20
67.35944234738395
 30
0.0
 10
34.29207758793152
 20
67.36200477741511
 30
0.0
 10
34.01891820379355
 20
67.3830335175399
 30
0.0
 10
33.73771932494037
 20
67.41342072293948
 30
0.0
 10
33.54878799694288
 20
67.44411118042083
 30
0.0
 10
33.45255414365228
 20
67.45974363806556
 30
0.0
  0
SPLINE
  5
E5
330
1F
100
AcDbEntity
  8
0
  6
Continuous
 62
     7
370
    25
100
AcDbSpline
210
0.0
220
0.0
230
1.0
 70
     8
 71
     3
 72
    15
 73
    11
 74
     0
 42
0.000000001
 43
0.00000001
 40
0.0
 40
0.0
 40
0.0
 40
0.0
 40
0.1090465918990723
 40
0.2259405917762844
 40
0.3514687728457302
 40
0.4853063243844759
 40
0.6208617438993086
 40
0.7519650200388327
 40
0.8776804845209285
 40
1.0
 40
1.0
 40
1.0
 40
1.0
 10
36.29890831031894
 20
67.7969832213989
 30
0.0
 10
36.24119892639305
 20
67.76528002486238
 30
0.0
 10
36.12162717152954
 20
67.69959214904786
 30
0.0
 10
35.92660139097304
 20
67.61518444955959
 30
0.0
 10
35.71131981433452
 20
67.54245856005674
 30
0.0
 10
35.48211623690402
 20
67.47663351215306
 30
0.0
 10
35.24599566760855
 20
67.42406415867681
 30
0.0
 10
35.0120894047357
 20
67.38628192156435
 30
0.0
 10
34.78418228884419
 20
67.36317711412796
 30
0.0
 10
34.63446217659994
 20
67.35983119329325
 30
0.0
 10
34.56062706031894
 20
67.35818113806556
 30
0.0
  0
SPLINE
  5
E6
330
1F
100
AcDbEntity
  8
0
  6
Continuous
 62
     7
370
    25
100
AcDbSpline
210
0.0
220
0.0
230
1.0
 70
     8
 71
     3
 72
    15
 73
    11
 74
     0
 42
0.000000001
 43
0.00000001
 40
0.0
 40
0.0
 40
0.0
 40
0.0
 40
0.0950852204389977
 40
0.1999652259248498
 40
0.3181714186339454
 40
0.4516822475463108
 40
0.5911621697500652
 40
0.7287899942062733
 40
0.8642684446239642
 40
1.0
 40
1.0
 40
1.0
 40
1.0
 10
37.22729372698561
 20
69.0626082213989
 30
0.0
 10
37.2237013911143
 20
69.01103484019312
 30
0.0
 10
37.21614667071942
 20
68.90257547314415
 30
0.0
 10
37.16084781243537
 20
68.73756207161983
 30
0.0
 10
37.0729901228218
 20
68.5651209157442
 30
0.0
 10
36.95466959403217
 20
68.3886695421974
 30
0.0
 10
36.81400649205361
 20
68.21588078269029
 30
0.0
 10
36.65653774986205
 20
68.05668991417629
 30
0.0
 10
36.48492293855387
 20
67.91569462396984
 30
0.0
 10
36.3609517514962
 20
67.83657830051914
 30
0.0
 10
36.29890831031894
 20
67.7969832213989
 30
0.0
  0
SPLINE
  5
E7
330
1F
100
AcDbEntity
  8
0
  6
Continuous
 62
     7
370
    25
100
AcDbSpline
210
0.0
220
0.0
230
1.0
 70
     8
 71
     3
 72
    15
 73
    11
 74
     0
 42
0.000000001
 43
0.00000001
 40
0.0
 40
0.0
 40
0.0
 40
0.0
 40
0.1445541995650903
 40
0.2790665876452391
 40
0.4086460790921334
 40
0.5328644641891115
 40
0.653776062880034
 40
0.7665613113563341
 40
0.8814824485449189
 40
1.0
 40
1.0
 40
1.0
 40
1.0
 10
36.84578331031894
 20
69.35818113806556
 30
0.0
 10
36.87185295256347
 20
69.35749585065872
 30
0.0
 10
36.92218124550964
 20
69.35617288101308
 30
0.0
 10
36.9954205352418
 20
69.34413712300983
 30
0.0
 10
37.06058448131151
 20
69.31718330142687
 30
0.0
 10
37.11861160986762
 20
69.28211832355497
 30
0.0
 10
37.16718657980799
 20
69.23865890564424
 30
0.0
 10
37.20227518578673
 20
69.18581341542128
 30
0.0
 10
37.22404434077325
 20
69.12630806974829
 30
0.0
 10
37.2261995304528
 20
69.08405847343111
 30
0.0
 10
37.22729372698561
 20
69.0626082213989
 30
0.0
  0
SPLINE
  5
E8
330
1F
100
AcDbEntity
  8
0
  6
Continuous
 62
     7
370
    25
100
AcDbSpline
210
0.0
220
0.0
230
1.0
 70
     8
 71
     3
 72
    11
 73
     7
 74
     0
 42
0.000000001
 43
0.00000001
 40
0.0
 40
0.0
 40
0.0
 40
0.0
 40
0.2367201633651585
 40
0.4684048921307825
 40
0.7144207012600851
 40
1.0
 40
1.0
 40
1.0
 40
1.0
 10
36.48640831031895
 20
69.1407332213989
 30
0.0
 10
36.50220285708734
 20
69.17255645787603
 30
0.0
 10
36.53345597414393
 20
69.23552599725708
 30
0.0
 10
36.61696524898673
 20
69.30574711876748
 30
0.0
 10
36.72404144143735
 20
69.3484975888996
 30
0.0
 10
36.80323797695888
 20
69.35479701203595
 30
0.0
 10
36.84578331031894
 20
69.35818113806556
 30
0.0
  0
SPLINE
  5
E9
330
1F
100
AcDbEntity
  8
0
  6
Continuous
 62
     7
370
    25
100
AcDbSpline
210
0.0
220
0.0
230
1.0
 70
     8
 71
     3
 72
    13
 73
     9
 74
     0
 42
0.000000001
 43
0.00000001
 40
0.0
 40
0.0
 40
0.0
 40
0.0
 40
0.1907324122119968
 40
0.3720339089557452
 40
0.4795512597469673
 40
0.6199604940008645
 40
0.7947907635380279
 40
0.9999999999999999
 40
0.9999999999999999
 40
0.9999999999999999
 40
0.9999999999999999
 10
43.64474164365227
 20
67.97536863806556
 30
0.0
 10
43.66984923013542
 20
67.95805836451107
 30
0.0
 10
43.71882293856516
 20
67.92429373761372
 30
0.0
 10
43.7893070671997
 20
67.8927945864957
 30
0.0
 10
43.855562128144
 20
67.87510489646772
 30
0.0
 10
43.92068980762678
 20
67.85722712608997
 30
0.0
 10
44.00243101285502
 20
67.84187969570264
 30
0.0
 10
44.06186690419298
 20
67.829636061056
 30
0.0
 10
44.09396039365227
 20
67.82302488806556
 30
0.0
  0
SPLINE
  5
EA
330
1F
100
AcDbEntity
  8
0
  6
Continuous
 62
     7
370
    25
100
AcDbSpline
210
0.0
220
0.0
230
1.0
 70
     8
 71
     3
 72
    11
 73
     7
 74
     0
 42
0.000000001
 43
0.00000001
 40
0.0
 40
0.0
 40
0.0
 40
0.0
 40
0.2711434903653726
 40
0.5173337575995117
 40
0.7556195362864194
 40
1.0
 40
1.0
 40
1.0
 40
1.0
 10
43.42729372698561
 20
68.44281655473223
 30
0.0
 10
43.42917493551804
 20
68.39422475724513
 30
0.0
 10
43.4327642257407
 20
68.30151304527064
 30
0.0
 10
43.47723217968991
 20
68.17271322935063
 30
0.0
 10
43.5450830910128
 20
68.05965805383065
 30
0.0
 10
43.6112436536301
 20
68.00370063701088
 30
0.0
 10
43.64474164365227
 20
67.97536863806556
 30
0.0
  0
SPLINE
  5
EC
330
1F
100
AcDbEntity
  8
0
  6
Continuous
 62
     7
370
    25
100
AcDbSpline
210
0.0
220
0.0
230
1.0
 70
     8
 71
     3
 72
    11
 73
     7
 74
     0
 42
0.000000001
 43
0.00000001
 40
0.0
 40
0.0
 40
0.0
 40
0.0
 40
0.2435555377772341
 40
0.4798391161206939
 40
0.7286804857182814
 40
1.0
 40
1.0
 40
1.0
 40
1.0
 10
43.64474164365227
 20
72.89724363806558
 30
0.0
 10
43.61129192006252
 20
72.86797989089871
 30
0.0
 10
43.54539119800026
 20
72.81032613889177
 30
0.0
 10
43.47653774885477
 20
72.69532540811522
 30
0.0
 10
43.4330413669725
 20
72.56354256976552
 30
0.0
 10
43.4292640182185
 20
72.46879831384067
 30
0.0
 10
43.42729372698561
 20
72.41937905473223
 30
0.0
  0
SPLINE
  5
ED
330
1F
100
AcDbEntity
  8
0
  6
Continuous
 62
     7
370
    25
100
AcDbSpline
210
0.0
220
0.0
230
1.0
 70
     8
 71
     3
 72
    13
 73
     9
 74
     0
 42
0.000000001
 43
0.00000001
 40
0.0
 40
0.0
 40
0.0
 40
0.0
 40
0.2045343401093376
 40
0.3793571983195656
 40
0.5186476795604648
 40
0.6265960181263989
 40
0.8084145351162072
 40
1.0
 40
1.0
 40
1.0
 40
1.0
 10
44.09396039365228
 20
73.05349363806559
 30
0.0
 10
44.06180507137551
 20
73.04715246040679
 30
0.0
 10
44.00216543842459
 20
73.03539125009166
 30
0.0
 10
43.92115343523711
 20
73.01692375091108
 30
0.0
 10
43.85510503308564
 20
73.00221930368532
 30
0.0
 10
43.78944087850328
 20
72.98169900307005
 30
0.0
 10
43.71871144680296
 20
72.94971559041869
 30
0.0
 10
43.66982448228815
 20
72.91503664896628
 30
0.0
 10
43.64474164365227
 20
72.89724363806558
 30
0.0
  0
SPLINE
  5
EF
330
1F
100
AcDbEntity
  8
0
  6
Continuous
 62
     7
370
    25
100
AcDbSpline
210
0.0
220
0.0
230
1.0
 70
     8
 71
     3
 72
    15
 73
    11
 74
     0
 42
0.000000001
 43
0.00000001
 40
0.0
 40
0.0
 40
0.0
 40
0.0
 40
0.1196688723506483
 40
0.2383685420287385
 40
0.356229981553637
 40
0.4746565349157217
 40
0.5961146701317613
 40
0.7239696579866111
 40
0.8585653068126906
 40
0.9999999999999999
 40
0.9999999999999999
 40
0.9999999999999999
 40
0.9999999999999999
 10
41.59005414365227
 20
72.66286863806556
 30
0.0
 10
41.67712371087545
 20
72.72522778706464
 30
0.0
 10
41.85055766564062
 20
72.84944103598292
 30
0.0
 10
42.12821181488849
 20
73.00669437012508
 30
0.0
 10
42.41415722261111
 20
73.14522127019978
 30
0.0
 10
42.71372187531152
 20
73.25885597201153
 30
0.0
 10
43.02962189459019
 20
73.35126929581864
 30
0.0
 10
43.36475259054521
 20
73.42698796254219
 30
0.0
 10
43.72197114361571
 20
73.48281464191979
 30
0.0
 10
43.96793262842252
 20
73.50458060070922
 30
0.0
 10
44.09396039365227
 20
73.5157332213989
 30
0.0
  0
SPLINE
  5
F0
330
1F
100
AcDbEntity
  8
0
  6
Continuous
 62
     7
370
    25
100
AcDbSpline
210
0.0
220
0.0
230
1.0
 70
     8
 71
     3
 72
    23
 73
    19
 74
     0
 42
0.000000001
 43
0.00000001
 40
0.0
 40
0.0
 40
0.0
 40
0.0
 40
0.0630424631615411
 40
0.1252543331411472
 40
0.1869251849573566
 40
0.2477343788190975
 40
0.3083932763276513
 40
0.3691201620928431
 40
0.4296697065789825
 40
0.4907313027217093
 40
0.5520789223602535
 40
0.6139461367546711
 40
0.676158006734278
 40
0.7386506357250399
 40
0.8019958421686962
 40
0.866715816510594
 40
0.9326739860457631
 40
1.0
 40
1.0
 40
1.0
 40
1.0
 10
40.42729372698561
 20
70.44411863806558
 30
0.0
 10
40.4285217696682
 20
70.49882514339413
 30
0.0
 10
40.43096167540097
 20
70.60751738826806
 30
0.0
 10
40.44358210638969
 20
70.76939000689362
 30
0.0
 10
40.46730916229124
 20
70.92803374794903
 30
0.0
 10
40.49992240008715
 20
71.0836907376934
 30
0.0
 10
40.54172387390483
 20
71.23628953398563
 30
0.0
 10
40.59229392512694
 20
71.38598625432313
 30
0.0
 10
40.65267316281808
 20
71.53237279541852
 30
0.0
 10
40.72146679454781
 20
71.67559524446571
 30
0.0
 10
40.79987545921399
 20
71.81510634814873
 30
0.0
 10
40.88689174025109
 20
71.95061550781554
 30
0.0
 10
40.98352499698387
 20
72.08069153044309
 30
0.0
 10
41.08822991406703
 20
72.2059783293177
 30
0.0
 10
41.20045219434746
 20
72.32756348123547
 30
0.0
 10
41.321456737924
 20
72.44481287575854
 30
0.0
 10
41.4519888925814
 20
72.55675814092982
 30
0.0
 10
41.54371859770973
 20
72.62725730373717
 30
0.0
 10
41.59005414365227
 20
72.66286863806556
 30
0.0
  0
SPLINE
  5
F1
330
1F
100
AcDbEntity
  8
0
  6
Continuous
 62
     7
370
    25
100
AcDbSpline
210
0.0
220
0.0
230
1.0
 70
     8
 71
     3
 72
    23
 73
    19
 74
     0
 42
0.000000001
 43
0.00000001
 40
0.0
 40
0.0
 40
0.0
 40
0.0
 40
0.0672264632610867
 40
0.1330871046476146
 40
0.197711381681322
 40
0.2609629235986081
 40
0.3233631487150334
 40
0.3854830299607855
 40
0.4472587652416422
 40
0.5085156740583219
 40
0.5694869823039386
 40
0.6299469960311678
 40
0.6905840888141835
 40
0.7516350914724148
 40
0.8123543706482342
 40
0.8739340336997287
 40
0.9365516575389612
 40
1.0
 40
1.0
 40
1.0
 40
1.0
 10
41.59005414365227
 20
68.22146238806556
 30
0.0
 10
41.54371859763251
 20
68.25707372237297
 30
0.0
 10
41.45198889235134
 20
68.32757288513876
 30
0.0
 10
41.32145673881553
 20
68.43951815061509
 30
0.0
 10
41.20045219110136
 20
68.55676754401266
 30
0.0
 10
41.08822992584026
 20
68.67835270001592
 30
0.0
 10
40.98352495375168
 20
68.80363948392836
 30
0.0
 10
40.88689190049453
 20
68.93371556190374
 30
0.0
 10
40.79987486686286
 20
69.06922451685574
 30
0.0
 10
40.72146898069298
 20
69.20873637632347
 30
0.0
 10
40.65266507271964
 20
69.35195603010757
 30
0.0
 10
40.59232387832301
 20
69.49835291944116
 30
0.0
 10
40.54147724886887
 20
69.64840789955898
 30
0.0
 10
40.50013488789114
 20
69.80156695420293
 30
0.0
 10
40.46728120318101
 20
69.9575904328653
 30
0.0
 10
40.44350132039538
 20
70.11667187428502
 30
0.0
 10
40.4309742657038
 20
70.2794206440648
 30
0.0
 10
40.42852595099318
 20
70.38897866053931
 30
0.0
 10
40.42729372698561
 20
70.44411863806558
 30
0.0
  0
SPLINE
  5
F2
330
1F
100
AcDbEntity
  8
0
  6
Continuous
 62
     7
370
    25
100
AcDbSpline
210
0.0
220
0.0
230
1.0
 70
     8
 71
     3
 72
    15
 73
    11
 74
     0
 42
0.000000001
 43
0.00000001
 40
0.0
 40
0.0
 40
0.0
 40
0.0
 40
0.1414346931873094
 40
0.2760303420133889
 40
0.4038853298682399
 40
0.5253434650842781
 40
0.6437700184463628
 40
0.7616314579712612
 40
0.8803311276493515
 40
0.9999999999999999
 40
0.9999999999999999
 40
0.9999999999999999
 40
0.9999999999999999
 10
44.09396039365227
 20
67.36859780473223
 30
0.0
 10
43.96793262842253
 20
67.37975042542189
 30
0.0
 10
43.72197114361572
 20
67.40151638421136
 30
0.0
 10
43.36475259054519
 20
67.45734306358892
 30
0.0
 10
43.02962189459019
 20
67.5330617303125
 30
0.0
 10
42.71372187531152
 20
67.62547505411959
 30
0.0
 10
42.41415722261112
 20
67.73910975593132
 30
0.0
 10
42.12821181488849
 20
67.8776366560061
 30
0.0
 10
41.85055766564061
 20
68.03488999014817
 30
0.0
 10
41.67712371087545
 20
68.15910323906648
 30
0.0
 10
41.59005414365228
 20
68.22146238806558
 30
0.0
  0
SPLINE
  5
F4
330
1F
100
AcDbEntity
  8
0
  6
Continuous
 62
     7
370
    25
100
AcDbSpline
210
0.0
220
0.0
230
1.0
 70
     8
 71
     3
 72
    23
 73
    19
 74
     0
 42
0.000000001
 43
0.00000001
 40
0.0
 40
0.0
 40
0.0
 40
0.0
 40
0.0630838559319267
 40
0.1253833227929542
 40
0.1866092341658558
 40
0.2469797042403099
 40
0.307811823816475
 40
0.3682618589469322
 40
0.4285649227473019
 40
0.4896235306207856
 40
0.5507729020212621
 40
0.6124640503817104
 40
0.6745236857528938
 40
0.7372057608061922
 40
0.8007722793024117
 40
0.8657425231319943
 40
0.9319808276971567
 40
1.0
 40
1.0
 40
1.0
 40
1.0
 10
48.42729372698561
 20
70.44411863806558
 30
0.0
 10
48.42620867662211
 20
70.38896666471355
 30
0.0
 10
48.42405206748711
 20
70.27934848149837
 30
0.0
 10
48.40935873436686
 20
70.11673966920608
 30
0.0
 10
48.38603129824389
 20
69.95760407267188
 30
0.0
 10
48.3534348727337
 20
69.80136949684686
 30
0.0
 10
48.31043886299468
 20
69.64837702676029
 30
0.0
 10
48.25826832727294
 20
69.49836041387196
 30
0.0
 10
48.19698899117066
 20
69.35156406929215
 30
0.0
 10
48.12499276138968
 20
69.209068009659
 30
0.0
 10
48.04569587818268
 20
69.06913382149219
 30
0.0
 10
47.95717018962232
 20
68.93375076908043
 30
0.0
 10
47.85938095889281
 20
68.80320746116706
 30
0.0
 10
47.75192216320464
 20
68.67837964882838
 30
0.0
 10
47.63718411215532
 20
68.5567208340987
 30
0.0
 10
47.51351373486077
 20
68.43954087220271
 30
0.0
 10
47.38028065934045
 20
68.32717974742566
 30
0.0
 10
47.2861707580151
 20
68.2570117572646
 30
0.0
 10
47.23849164365227
 20
68.22146238806556
 30
0.0
  0
SPLINE
  5
F5
330
1F
100
AcDbEntity
  8
0
  6
Continuous
 62
     7
370
    25
100
AcDbSpline
210
0.0
220
0.0
230
1.0
 70
     8
 71
     3
 72
    23
 73
    19
 74
     0
 42
0.000000001
 43
0.00000001
 40
0.0
 40
0.0
 40
0.0
 40
0.0
 40
0.0681192233016131
 40
0.1344549593453486
 40
0.1995207694331728
 40
0.2631807894150581
 40
0.3259550650053804
 40
0.3881059853524382
 40
0.44988787667255
 40
0.5111271941202384
 40
0.5722756145347202
 40
0.6326673795285628
 40
0.6932063320360756
 40
0.7536492444254684
 40
0.8141085148428678
 40
0.8754244848474206
 40
0.9373203115185418
 40
0.9999999999999999
 40
0.9999999999999999
 40
0.9999999999999999
 40
0.9999999999999999
 10
47.23849164365227
 20
72.66286863806556
 30
0.0
 10
47.28617075793391
 20
72.62731926884376
 30
0.0
 10
47.38028065909906
 20
72.55715127863776
 30
0.0
 10
47.51351373578948
 20
72.44479015418895
 30
0.0
 10
47.63718410877505
 20
72.32761019108423
 30
0.0
 10
47.75192217545737
 20
72.20595138073983
 30
0.0
 10
47.85938091402568
 20
72.08112355237819
 30
0.0
 10
47.95717035488972
 20
71.95058030341055
 30
0.0
 10
48.04569526751952
 20
71.81519703333926
 30
0.0
 10
48.124995017236
 20
71.67526364926918
 30
0.0
 10
48.19698062750505
 20
71.5327646107114
 30
0.0
 10
48.25829914509396
 20
71.38597925709801
 30
0.0
 10
48.31018623847955
 20
71.2363165429605
 30
0.0
 10
48.35365010961475
 20
71.08389096169229
 30
0.0
 10
48.386003669772
 20
70.92801971869287
 30
0.0
 10
48.40927418329661
 20
70.76932139115118
 30
0.0
 10
48.42406416133913
 20
70.60759008224548
 30
0.0
 10
48.42621269871658
 20
70.49883721996856
 30
0.0
 10
48.42729372698561
 20
70.44411863806558
 30
0.0
  0
SPLINE
  5
F6
330
1F
100
AcDbEntity
  8
0
  6
Continuous
 62
     7
370
    25
100
AcDbSpline
210
0.0
220
0.0
230
1.0
 70
     8
 71
     3
 72
    15
 73
    11
 74
     0
 42
0.000000001
 43
0.00000001
 40
0.0
 40
0.0
 40
0.0
 40
0.0
 40
0.1419737045759205
 40
0.2767491473990201
 40
0.4044169334529137
 40
0.5262318546081745
 40
0.6445602267510109
 40
0.7626894894316427
 40
0.8807133180461123
 40
1.0
 40
1.0
 40
1.0
 40
1.0
 10
44.67729372698561
 20
73.5157332213989
 30
0.0
 10
44.80635502001863
 20
73.50458348284855
 30
0.0
 10
45.05793402132591
 20
73.48284931280101
 30
0.0
 10
45.42298681458506
 20
73.42715034029791
 30
0.0
 10
45.76536358051893
 20
73.35097552305302
 30
0.0
 10
46.08837430892274
 20
73.25918473931786
 30
0.0
 10
46.39499515396061
 20
73.14484174569557
 30
0.0
 10
46.68803887079193
 20
73.00749363687436
 30
0.0
 10
46.97154249895623
 20
72.84909233151826
 30
0.0
 10
47.14919347084282
 20
72.72516303341975
 30
0.0
 10
47.23849164365227
 20
72.66286863806558
 30
0.0
  0
SPLINE
  5
F8
330
1F
100
AcDbEntity
  8
0
  6
Continuous
 62
     7
370
    25
100
AcDbSpline
210
0.0
220
0.0
230
1.0
 70
     8
 71
     3
 72
    13
 73
     9
 74
     0
 42
0.000000001
 43
0.00000001
 40
0.0
 40
0.0
 40
0.0
 40
0.0
 40
0.1871068699481952
 40
0.3711158096866315
 40
0.4777265780699997
 40
0.6175077927628191
 40
0.7917392616231089
 40
0.9999999999999999
 40
0.9999999999999999
 40
0.9999999999999999
 40
0.9999999999999999
 10
45.18250206031895
 20
72.89724363806558
 30
0.0
 10
45.15438466744961
 20
72.91517772659925
 30
0.0
 10
45.09861542164979
 20
72.95074896879368
 30
0.0
 10
45.0187969373924
 20
72.98123981744493
 30
0.0
 10
44.94523602435506
 20
73.0024428039412
 30
0.0
 10
44.87175921760673
 20
73.01677673118232
 30
0.0
 10
44.78083942152058
 20
73.03566985808432
 30
0.0
 10
44.71379714683262
 20
73.04721014238922
 30
0.0
 10
44.67729372698561
 20
73.05349363806558
 30
0.0
  0
SPLINE
  5
F9
330
1F
100
AcDbEntity
  8
0
  6
Continuous
 62
     7
370
    25
100
AcDbSpline
210
0.0
220
0.0
230
1.0
 70
     8
 71
     3
 72
    11
 73
     7
 74
     0
 42
0.000000001
 43
0.00000001
 40
0.0
 40
0.0
 40
0.0
 40
0.0
 40
0.2644179911630952
 40
0.5087534061866059
 40
0.7476092746716566
 40
1.0
 40
1.0
 40
1.0
 40
1.0
 10
45.4272937269856
 20
72.41937905473223
 30
0.0
 10
45.42447802585503
 20
72.46881897639105
 30
0.0
 10
45.41906047641114
 20
72.56394385210349
 30
0.0
 10
45.37205157141376
 20
72.69728626479545
 30
0.0
 10
45.29239218904326
 20
72.81155831194256
 30
0.0
 10
45.21979880240173
 20
72.86816201312087
 30
0.0
 10
45.18250206031895
 20
72.89724363806558
 30
0.0
  0
SPLINE
  5
FB
330
1F
100
AcDbEntity
  8
0
  6
Continuous
 62
     7
370
    25
100
AcDbSpline
210
0.0
220
0.0
230
1.0
 70
     8
 71
     3
 72
    11
 73
     7
 74
     0
 42
0.000000001
 43
0.00000001
 40
0.0
 40
0.0
 40
0.0
 40
0.0
 40
0.2534547655279658
 40
0.4942923927432886
 40
0.735953081804265
 40
1.0
 40
1.0
 40
1.0
 40
1.0
 10
45.18250206031895
 20
67.97536863806556
 30
0.0
 10
45.21984938009632
 20
68.0035106216728
 30
0.0
 10
45.29268484648362
 20
68.05839366316857
 30
0.0
 10
45.37128027661513
 20
68.17078919806343
 30
0.0
 10
45.41935634859146
 20
68.30108422694065
 30
0.0
 10
45.42457098845764
 20
68.39419847828758
 30
0.0
 10
45.4272937269856
 20
68.44281655473223
 30
0.0
  0
SPLINE
  5
FC
330
1F
100
AcDbEntity
  8
0
  6
Continuous
 62
     7
370
    25
100
AcDbSpline
210
0.0
220
0.0
230
1.0
 70
     8
 71
     3
 72
    13
 73
     9
 74
     0
 42
0.000000001
 43
0.00000001
 40
0.0
 40
0.0
 40
0.0
 40
0.0
 40
0.208823978302965
 40
0.3830632292267698
 40
0.523755610929865
 40
0.6300084460332518
 40
0.8136201977969335
 40
1.0
 40
1.0
 40
1.0
 40
1.0
 10
44.67729372698561
 20
67.82302488806556
 30
0.0
 10
44.71373932917909
 20
67.82958900916434
 30
0.0
 10
44.78059453508412
 20
67.84163012362623
 30
0.0
 10
44.8721802037184
 20
67.85735246878595
 30
0.0
 10
44.94481733557157
 20
67.87490551164997
 30
0.0
 10
45.01893373620504
 20
67.89322252704876
 30
0.0
 10
45.09848899053722
 20
67.9232866745337
 30
0.0
 10
45.15435837686949
 20
67.95792161108662
 30
0.0
 10
45.18250206031895
 20
67.97536863806556
 30
0.0
  0
SPLINE
  5
FE
330
1F
100
AcDbEntity
  8
0
  6
Continuous
 62
     7
370
    25
100
AcDbSpline
210
0.0
220
0.0
230
1.0
 70
     8
 71
     3
 72
    15
 73
    11
 74
     0
 42
0.000000001
 43
0.00000001
 40
0.0
 40
0.0
 40
0.0
 40
0.0
 40
0.1192866819538877
 40
0.2373105105683573
 40
0.3554397732489892
 40
0.4737681453918258
 40
0.5955830665470851
 40
0.7232508526009799
 40
0.8580262954240795
 40
1.0
 40
1.0
 40
1.0
 40
1.0
 10
47.23849164365227
 20
68.22146238806556
 30
0.0
 10
47.14919347084282
 20
68.15916799271139
 30
0.0
 10
46.97154249895624
 20
68.03523869461289
 30
0.0
 10
46.68803887079194
 20
67.87683738925676
 30
0.0
 10
46.3949951539606
 20
67.73948928043556
 30
0.0
 10
46.08837430892272
 20
67.62514628681326
 30
0.0
 10
45.76536358051894
 20
67.53335550307813
 30
0.0
 10
45.42298681458504
 20
67.45718068583322
 30
0.0
 10
45.05793402132592
 20
67.40148171333011
 30
0.0
 10
44.80635502001863
 20
67.37974754328258
 30
0.0
 10
44.67729372698561
 20
67.36859780473223
 30
0.0
  0
SPLINE
  5
FF
330
1F
100
AcDbEntity
  8
0
  6
Continuous
 62
     7
370
    25
100
AcDbSpline
210
0.0
220
0.0
230
1.0
 70
     8
 71
     3
 72
    11
 73
     7
 74
     0
 42
0.000000001
 43
0.00000001
 40
0.0
 40
0.0
 40
0.0
 40
0.0
 40
0.2334527900933276
 40
0.4700789138860937
 40
0.7194579479307669
 40
1.0
 40
1.0
 40
1.0
 40
1.0
 10
66.97130414365226
 20
72.8477644713989
 30
0.0
 10
66.95432269293445
 20
72.83340034270341
 30
0.0
 10
66.92012896191738
 20
72.80447683310047
 30
0.0
 10
66.88496763552945
 20
72.74481629066653
 30
0.0
 10
66.86333988315549
 20
72.67477080660528
 30
0.0
 10
66.86156610473637
 20
72.62442023682894
 30
0.0
 10
66.86062706031893
 20
72.5977644713989
 30
0.0
  0
SPLINE
  5
100
330
1F
100
AcDbEntity
  8
0
  6
Continuous
 62
     7
370
    25
100
AcDbSpline
210
0.0
220
0.0
230
1.0
 70
     8
 71
     3
 72
    13
 73
     9
 74
     0
 42
0.000000001
 43
0.00000001
 40
0.0
 40
0.0
 40
0.0
 40
0.0
 40
0.2785096585077048
 40
0.495583281766674
 40
0.6480758877320696
 40
0.7360293609055364
 40
0.8576386816979882
 40
1.0
 40
1.0
 40
1.0
 40
1.0
 10
67.42182497698559
 20
72.95453530473223
 30
0.0
 10
67.37883724239214
 20
72.94859834773509
 30
0.0
 10
67.30234437424636
 20
72.93803405833798
 30
0.0
 10
67.20255022108095
 20
72.92248711241
 30
0.0
 10
67.13228771849653
 20
72.91059032432051
 30
0.0
 10
67.07657187304306
 20
72.90136403449664
 30
0.0
 10
67.02460912864811
 20
72.8821777887523
 30
0.0
 10
66.98997992781825
 20
72.85982142418442
 30
0.0
 10
66.97130414365226
 20
72.8477644713989
 30
0.0
  0
SPLINE
  5
101
330
1F
100
AcDbEntity
  8
0
  6
Continuous
 62
     7
370
    25
100
AcDbSpline
210
0.0
220
0.0
230
1.0
 70
     8
 71
     3
 72
    15
 73
    11
 74
     0
 42
0.000000001
 43
0.00000001
 40
0.0
 40
0.0
 40
0.0
 40
0.0
 40
0.0996963521159678
 40
0.1947639612893603
 40
0.293313900984853
 40
0.4025812626451696
 40
0.525826327800124
 40
0.6643518975806125
 40
0.8212631290200216
 40
1.0
 40
1.0
 40
1.0
 40
1.0
 10
67.7772937269856
 20
73.20062905473223
 30
0.0
 10
67.77650501166393
 20
73.184810994148
 30
0.0
 10
67.77496419981756
 20
73.1539092803549
 30
0.0
 10
67.7563081299405
 20
73.11070027421167
 30
0.0
 10
67.72814528323934
 20
73.0717532324011
 30
0.0
 10
67.68796019373875
 20
73.03765270454997
 30
0.0
 10
67.63638506054836
 20
73.00940863457105
 30
0.0
 10
67.574303397466
 20
72.98659441039796
 30
0.0
 10
67.50211941856988
 20
72.96654713379716
 30
0.0
 10
67.44972543673467
 20
72.95870913727563
 30
0.0
 10
67.42182497698559
 20
72.95453530473223
 30
0.0
  0
SPLINE
  5
102
330
1F
100
AcDbEntity
  8
0
  6
Continuous
 62
     7
370
    25
100
AcDbSpline
210
0.0
220
0.0
230
1.0
 70
     8
 71
     3
 72
    11
 73
     7
 74
     0
 42
0.000000001
 43
0.00000001
 40
0.0
 40
0.0
 40
0.0
 40
0.0
 40
0.3266437411767754
 40
0.5849538623530661
 40
0.8040137552939219
 40
1.0
 40
1.0
 40
1.0
 40
1.0
 10
67.58458539365226
 20
73.38812905473223
 30
0.0
 10
67.61333245364064
 20
73.37613060970469
 30
0.0
 10
67.66481271072715
 20
73.35464378514222
 30
0.0
 10
67.72849373488827
 20
73.31159043869717
 30
0.0
 10
67.7698506590683
 20
73.25919823621781
 30
0.0
 10
67.7749063920876
 20
73.21941489042014
 30
0.0
 10
67.7772937269856
 20
73.20062905473223
 30
0.0
  0
SPLINE
  5
103
330
1F
100
AcDbEntity
  8
0
  6
Continuous
 62
     7
370
    25
100
AcDbSpline
210
0.0
220
0.0
230
1.0
 70
     8
 71
     3
 72
    11
 73
     7
 74
     0
 42
0.000000001
 43
0.00000001
 40
0.0
 40
0.0
 40
0.0
 40
0.0
 40
0.3215394265977287
 40
0.5937858651612856
 40
0.8211063565596634
 40
1.0
 40
1.0
 40
1.0
 40
1.0
 10
67.11974164365226
 20
73.4415144713989
 30
0.0
 10
67.17011033671878
 20
73.44064796050164
 30
0.0
 10
67.26312604650595
 20
73.43904777750616
 30
0.0
 10
67.39144742698095
 20
73.43067269808746
 30
0.0
 10
67.49710629799117
 20
73.41588336254976
 30
0.0
 10
67.55783911761795
 20
73.39661478920881
 30
0.0
 10
67.58458539365226
 20
73.38812905473223
 30
0.0
  0
SPLINE
  5
105
330
1F
100
AcDbEntity
  8
0
  6
Continuous
 62
     7
370
    25
100
AcDbSpline
210
0.0
220
0.0
230
1.0
 70
     8
 71
     3
 72
    15
 73
    11
 74
     0
 42
0.000000001
 43
0.00000001
 40
0.0
 40
0.0
 40
0.0
 40
0.0
 40
0.0833191763866661
 40
0.1640703047091055
 40
0.2562387678073009
 40
0.3646518277657988
 40
0.4932465734729204
 40
0.6405729160323322
 40
0.8096021851308656
 40
1.0
 40
1.0
 40
1.0
 40
1.0
 10
62.7772937269856
 20
73.20974363806556
 30
0.0
 10
62.77898681335156
 20
73.227929346355
 30
0.0
 10
62.78232080209234
 20
73.26374024643577
 30
0.0
 10
62.81196556738798
 20
73.31257250065714
 30
0.0
 10
62.85798193493883
 20
73.35354376100184
 30
0.0
 10
62.92267362394603
 20
73.38507152241654
 30
0.0
 10
63.00218427347458
 20
73.41010255744955
 30
0.0
 10
63.09675041399507
 20
73.43000685130356
 30
0.0
 10
63.20637236945921
 20
73.43905270158463
 30
0.0
 10
63.28422843853478
 20
73.44066198982824
 30
0.0
 10
63.32547081031893
 20
73.4415144713989
 30
0.0
  0
SPLINE
  5
106
330
1F
100
AcDbEntity
  8
0
  6
Continuous
 62
     7
370
    25
100
AcDbSpline
210
0.0
220
0.0
230
1.0
 70
     8
 71
     3
 72
    15
 73
    11
 74
     0
 42
0.000000001
 43
0.00000001
 40
0.0
 40
0.0
 40
0.0
 40
0.0
 40
0.1715264731633094
 40
0.3236055676976694
 40
0.4599629391580379
 40
0.5794450082666676
 40
0.6883732052161915
 40
0.792998981053573
 40
0.8923949590499731
 40
1.0
 40
1.0
 40
1.0
 40
1.0
 10
63.07156456031893
 20
72.9688582213989
 30
0.0
 10
63.04848525768934
 20
72.97419690447896
 30
0.0
 10
63.00494334435212
 20
72.98426897986775
 30
0.0
 10
62.94420512568895
 20
73.0031941631469
 30
0.0
 10
62.89303177895299
 20
73.02748434848932
 30
0.0
 10
62.85210152961508
 20
73.05706959173956
 30
0.0
 10
62.81790328668953
 20
73.08821811481059
 30
0.0
 10
62.79421021633086
 20
73.12498744160709
 30
0.0
 10
62.78054114675109
 20
73.1662965742505
 30
0.0
 10
62.77840444537723
 20
73.19488339321676
 30
0.0
 10
62.7772937269856
 20
73.20974363806556
 30
0.0
  0
SPLINE
  5
107
330
1F
100
AcDbEntity
  8
0
  6
Continuous
 62
     7
370
    25
100
AcDbSpline
210
0.0
220
0.0
230
1.0
 70
     8
 71
     3
 72
    13
 73
     9
 74
     0
 42
0.000000001
 43
0.00000001
 40
0.0
 40
0.0
 40
0.0
 40
0.0
 40
0.1388501374539932
 40
0.2559943454703414
 40
0.3422210195641366
 40
0.4968248936792611
 40
0.7158532898042541
 40
0.9999999999999999
 40
0.9999999999999999
 40
0.9999999999999999
 40
0.9999999999999999
 10
63.43875206031893
 20
72.85818113806556
 30
0.0
 10
63.42496471066259
 20
72.86983492698717
 30
0.0
 10
63.39954533682718
 20
72.89132071102698
 30
0.0
 10
63.35826299342578
 20
72.90909562224012
 30
0.0
 10
63.31286934844231
 20
72.9184626259214
 30
0.0
 10
63.25492126438876
 20
72.93200696411694
 30
0.0
 10
63.17132568961249
 20
72.94815485779645
 30
0.0
 10
63.10756863908255
 20
72.96138631787204
 30
0.0
 10
63.07156456031893
 20
72.9688582213989
 30
0.0
  0
SPLINE
  5
108
330
1F
100
AcDbEntity
  8
0
  6
Continuous
 62
     7
370
    25
100
AcDbSpline
210
0.0
220
0.0
230
1.0
 70
     8
 71
     3
 72
    11
 73
     7
 74
     0
 42
0.000000001
 43
0.00000001
 40
0.0
 40
0.0
 40
0.0
 40
0.0
 40
0.2893507336084682
 40
0.5456477447284236
 40
0.7739346416939568
 40
1.0
 40
1.0
 40
1.0
 40
1.0
 10
63.5272937269856
 20
72.63031655473223
 30
0.0
 10
63.526562073397
 20
72.65475400812434
 30
0.0
 10
63.52518234601376
 20
72.70083732425778
 30
0.0
 10
63.50802618618273
 20
72.76420503317703
 30
0.0
 10
63.48049323169695
 20
72.81837952602723
 30
0.0
 10
63.45262035631155
 20
72.84495725098937
 30
0.0
 10
63.43875206031893
 20
72.85818113806556
 30
0.0
  0
SPLINE
  5
10A
330
1F
100
AcDbEntity
  8
0
  6
Continuous
 62
     7
370
    25
100
AcDbSpline
210
0.0
220
0.0
230
1.0
 70
     8
 71
     3
 72
    11
 73
     7
 74
     0
 42
0.000000001
 43
0.00000001
 40
0.0
 40
0.0
 40
0.0
 40
0.0
 40
0.2265949536010295
 40
0.4592575383805284
 40
0.7103421804317939
 40
1.0
 40
1.0
 40
1.0
 40
1.0
 10
63.43875206031895
 20
68.01443113806559
 30
0.0
 10
63.45266907503169
 20
68.0271796425518
 30
0.0
 10
63.48087576638566
 20
68.05301802374844
 30
0.0
 10
63.50742150668168
 20
68.10644656148541
 30
0.0
 10
63.52543999012411
 20
68.16818492016914
 30
0.0
 10
63.52664711186573
 20
68.21305302889459
 30
0.0
 10
63.5272937269856
 20
68.23708738806556
 30
0.0
  0
SPLINE
  5
10B
330
1F
100
AcDbEntity
  8
0
  6
Continuous
 62
     7
370
    25
100
AcDbSpline
210
0.0
220
0.0
230
1.0
 70
     8
 71
     3
 72
    13
 73
     9
 74
     0
 42
0.000000001
 43
0.00000001
 40
0.0
 40
0.0
 40
0.0
 40
0.0
 40
0.2843436813692409
 40
0.5035239084979636
 40
0.6575417520133563
 40
0.7438281986421604
 40
0.8610536113013537
 40
1.0
 40
1.0
 40
1.0
 40
1.0
 10
63.07156456031893
 20
67.90505613806556
 30
0.0
 10
63.1075892246643
 20
67.91243051826518
 30
0.0
 10
63.17138272873009
 20
67.9254892812487
 30
0.0
 10
63.25468497577665
 20
67.9425927281379
 30
0.0
 10
63.3130050328829
 20
67.95394107560139
 30
0.0
 10
63.35824946336015
 20
67.9635807658181
 30
0.0
 10
63.39954995910453
 20
67.98126966254169
 30
0.0
 10
63.42496633612241
 20
68.0027696469373
 30
0.0
 10
63.43875206031893
 20
68.01443113806558
 30
0.0
  0
SPLINE
  5
10C
330
1F
100
AcDbEntity
  8
0
  6
Continuous
 62
     7
370
    25
100
AcDbSpline
210
0.0
220
0.0
230
1.0
 70
     8
 71
     3
 72
    15
 73
    11
 74
     0
 42
0.000000001
 43
0.00000001
 40
0.0
 40
0.0
 40
0.0
 40
0.0
 40
0.1053911306678559
 40
0.2056500282134711
 40
0.3085314862295974
 40
0.4184053579689962
 40
0.5371179893312532
 40
0.6733004289513382
 40
0.8277121512586474
 40
1.0
 40
1.0
 40
1.0
 40
1.0
 10
62.77729372698561
 20
67.66937905473225
 30
0.0
 10
62.77846572986548
 20
67.68378505442789
 30
0.0
 10
62.7807526625873
 20
67.71189552468358
 30
0.0
 10
62.79385095891686
 20
67.75264512994204
 30
0.0
 10
62.81842016006643
 20
67.78836666715267
 30
0.0
 10
62.85169403619152
 20
67.81951731001737
 30
0.0
 10
62.89318497402164
 20
67.84778780959404
 30
0.0
 10
62.94477015252171
 20
67.87008181239976
 30
0.0
 10
63.00445363314279
 20
67.89173200532902
 30
0.0
 10
63.04839283932627
 20
67.90045564900616
 30
0.0
 10
63.07156456031894
 20
67.90505613806558
 30
0.0
  0
SPLINE
  5
10D
330
1F
100
AcDbEntity
  8
0
  6
Continuous
 62
     7
370
    25
100
AcDbSpline
210
0.0
220
0.0
230
1.0
 70
     8
 71
     3
 72
    15
 73
    11
 74
     0
 42
0.000000001
 43
0.00000001
 40
0.0
 40
0.0
 40
0.0
 40
0.0
 40
0.1911821191332445
 40
0.3609076692085555
 40
0.5084437919202386
 40
0.6375682569808602
 40
0.746427902028946
 40
0.8389760339729805
 40
0.9183196564219526
 40
1.0
 40
1.0
 40
1.0
 40
1.0
 10
63.32547081031893
 20
67.4415144713989
 30
0.0
 10
63.28421686121538
 20
67.4423106754753
 30
0.0
 10
63.20633893683565
 20
67.44381372481237
 30
0.0
 10
63.09694611173085
 20
67.45355046588179
 30
0.0
 10
63.0020156477059
 20
67.47125281767552
 30
0.0
 10
62.92271318854094
 20
67.49675101476508
 30
0.0
 10
62.8579118494437
 20
67.52812775376479
 30
0.0
 10
62.81244604612272
 20
67.56901799953714
 30
0.0
 10
62.78228369373919
 20
67.61655341069904
 30
0.0
 10
62.77897306345697
 20
67.65160097423016
 30
0.0
 10
62.77729372698561
 20
67.66937905473225
 30
0.0
  0
SPLINE
  5
111
330
1F
100
AcDbEntity
  8
0
  6
Continuous
 62
     7
370
    25
100
AcDbSpline
210
0.0
220
0.0
230
1.0
 70
     8
 71
     3
 72
    11
 73
     7
 74
     0
 42
0.000000001
 43
0.00000001
 40
0.0
 40
0.0
 40
0.0
 40
0.0
 40
0.1774270737259647
 40
0.3960707697822196
 40
0.6702095458538908
 40
1.0
 40
1.0
 40
1.0
 40
1.0
 10
70.23302289365228
 20
69.42328530473223
 30
0.0
 10
70.24005653082229
 20
69.41358283248475
 30
0.0
 10
70.25575773148908
 20
69.39192398656488
 30
0.0
 10
70.26909067170736
 20
69.34818675043205
 30
0.0
 10
70.27604606178599
 20
69.29333981177747
 30
0.0
 10
70.27685305075303
 20
69.25274485109405
 30
0.0
 10
70.2772937269856
 20
69.23057697139889
 30
0.0
  0
SPLINE
  5
112
330
1F
100
AcDbEntity
  8
0
  6
Continuous
 62
     7
370
    25
100
AcDbSpline
210
0.0
220
0.0
230
1.0
 70
     8
 71
     3
 72
    11
 73
     7
 74
     0
 42
0.000000001
 43
0.00000001
 40
0.0
 40
0.0
 40
0.0
 40
0.0
 40
0.296728688077235
 40
0.5553505113752688
 40
0.7866823757377864
 40
1.0
 40
1.0
 40
1.0
 40
1.0
 10
69.92833539365226
 20
69.52484780473225
 30
0.0
 10
69.96097897591888
 20
69.52363011016752
 30
0.0
 10
70.02207394527409
 20
69.52135110134101
 30
0.0
 10
70.10725606693995
 20
69.50394498419901
 30
0.0
 10
70.1788417791558
 20
69.47172936567557
 30
0.0
 10
70.21545699043628
 20
69.43899121432503
 30
0.0
 10
70.23302289365228
 20
69.42328530473223
 30
0.0
  0
SPLINE
  5
113
330
1F
100
AcDbEntity
  8
0
  6
Continuous
 62
     7
370
    25
100
AcDbSpline
210
0.0
220
0.0
230
1.0
 70
     8
 71
     3
 72
    15
 73
    11
 74
     0
 42
0.000000001
 43
0.00000001
 40
0.0
 40
0.0
 40
0.0
 40
0.0
 40
0.1796257189476595
 40
0.3314699801224229
 40
0.4580994838693895
 40
0.5585024572519557
 40
0.6523511752183108
 40
0.7551233598513521
 40
0.8690505766999959
 40
1.0
 40
1.0
 40
1.0
 40
1.0
 10
69.41661664365228
 20
69.12901447139889
 30
0.0
 10
69.43558179828348
 20
69.16622338549523
 30
0.0
 10
69.47057889928584
 20
69.23488637032922
 30
0.0
 10
69.52693814574967
 20
69.32531101675974
 30
0.0
 10
69.57885752493674
 20
69.39665266913616
 30
0.0
 10
69.63252430324725
 20
69.44915388979855
 30
0.0
 10
69.69219512977003
 20
69.48515203297116
 30
0.0
 10
69.76119520619315
 20
69.50759634645091
 30
0.0
 10
69.84091982128228
 20
69.52221159320764
 30
0.0
 10
69.89787710482513
 20
69.52392926710962
 30
0.0
 10
69.92833539365226
 20
69.52484780473225
 30
0.0
  0
SPLINE
  5
114
330
1F
100
AcDbEntity
  8
0
  6
Continuous
 62
     7
370
    25
100
AcDbSpline
210
0.0
220
0.0
230
1.0
 70
     8
 71
     3
 72
    15
 73
    11
 74
     0
 42
0.000000001
 43
0.00000001
 40
0.0
 40
0.0
 40
0.0
 40
0.0
 40
0.1218942668336513
 40
0.2443996238454007
 40
0.3689362819065467
 40
0.4964525451759676
 40
0.6245464199253838
 40
0.7506459975029461
 40
0.875446211017547
 40
1.0
 40
1.0
 40
1.0
 40
1.0
 10
68.42312706031896
 20
68.16286863806558
 30
0.0
 10
68.47439300600622
 20
68.18846420844241
 30
0.0
 10
68.577181907958
 20
68.23978366697563
 30
0.0
 10
68.72352387672584
 20
68.33327679551662
 30
0.0
 10
68.86337761622453
 20
68.44041249461934
 30
0.0
 10
68.99519829891432
 20
68.56122000231974
 30
0.0
 10
69.1182096544074
 20
68.69195549551439
 30
0.0
 10
69.23027709737555
 20
68.8304509374747
 30
0.0
 10
69.33214680748682
 20
68.97484297004449
 30
0.0
 10
69.38847858825764
 20
69.07765783993952
 30
0.0
 10
69.41661664365229
 20
69.1290144713989
 30
0.0
  0
SPLINE
  5
115
330
1F
100
AcDbEntity
  8
0
  6
Continuous
 62
     7
370
    25
100
AcDbSpline
210
0.0
220
0.0
230
1.0
 70
     8
 71
     3
 72
    13
 73
     9
 74
     0
 42
0.000000001
 43
0.00000001
 40
0.0
 40
0.0
 40
0.0
 40
0.0
 40
0.1711223319994701
 40
0.324686367534424
 40
0.4591547065055134
 40
0.5748537006271488
 40
0.7880590727270155
 40
1.0
 40
1.0
 40
1.0
 40
1.0
 10
67.44396039365228
 20
67.9337019713989
 30
0.0
 10
67.50130641997372
 20
67.93978654650392
 30
0.0
 10
67.6101143865394
 20
67.95133137858839
 30
0.0
 10
67.76315475049084
 20
67.97416146166333
 30
0.0
 10
67.89753320591416
 20
67.99550656529503
 30
0.0
 10
68.05057925057191
 20
68.02644890456038
 30
0.0
 10
68.22662213366696
 20
68.07590341704292
 30
0.0
 10
68.35775542104187
 20
68.1339377651597
 30
0.0
 10
68.42312706031896
 20
68.16286863806558
 30
0.0
  0
SPLINE
  5
118
330
1F
100
AcDbEntity
  8
0
  6
Continuous
 62
     7
370
    25
100
AcDbSpline
210
0.0
220
0.0
230
1.0
 70
     8
 71
     3
 72
    11
 73
     7
 74
     0
 42
0.000000001
 43
0.00000001
 40
0.0
 40
0.0
 40
0.0
 40
0.0
 40
0.3724878647936875
 40
0.6265993820590392
 40
0.8049424151531587
 40
1.0
 40
1.0
 40
1.0
 40
1.0
 10
76.99422081031894
 20
72.97536863806558
 30
0.0
 10
76.9644380547728
 20
72.9611559950974
 30
0.0
 10
76.91433747973372
 20
72.9372474758058
 30
0.0
 10
76.85290942080766
 20
72.90059813730124
 30
0.0
 10
76.81578994989809
 20
72.8560113925745
 30
0.0
 10
76.8123986255232
 20
72.82236958184605
 30
0.0
 10
76.81062706031894
 20
72.8047957213989
 30
0.0
  0
SPLINE
  5
119
330
1F
100
AcDbEntity
  8
0
  6
Continuous
 62
     7
370
    25
100
AcDbSpline
210
0.0
220
0.0
230
1.0
 70
     8
 71
     3
 72
    11
 73
     7
 74
     0
 42
0.000000001
 43
0.00000001
 40
0.0
 40
0.0
 40
0.0
 40
0.0
 40
0.1847434220552236
 40
0.4006037626435404
 40
0.6662351231045693
 40
1.0
 40
1.0
 40
1.0
 40
1.0
 10
77.22729372698561
 20
73.19932697139892
 30
0.0
 10
77.22422766472135
 20
73.17823603471108
 30
0.0
 10
77.21757911363417
 20
73.13250174820261
 30
0.0
 10
77.16644687044644
 20
73.07266766835865
 30
0.0
 10
77.09067887764394
 20
73.01964951482131
 30
0.0
 10
77.02872108521746
 20
72.99120663340581
 30
0.0
 10
76.99422081031894
 20
72.97536863806558
 30
0.0
  0
SPLINE
  5
11A
330
1F
100
AcDbEntity
  8
0
  6
Continuous
 62
     7
370
    25
100
AcDbSpline
210
0.0
220
0.0
230
1.0
 70
     8
 71
     3
 72
    15
 73
    11
 74
     0
 42
0.000000001
 43
0.00000001
 40
0.0
 40
0.0
 40
0.0
 40
0.0
 40
0.2167063204433349
 40
0.4008210845646895
 40
0.5531319387165988
 40
0.674598923402816
 40
0.7723158282944578
 40
0.853969088390522
 40
0.9266976089391772
 40
1.0
 40
1.0
 40
1.0
 40
1.0
 10
76.50203331031894
 20
73.4415144713989
 30
0.0
 10
76.56194142691709
 20
73.44073628422728
 30
0.0
 10
76.67274777635805
 20
73.43929694537697
 30
0.0
 10
76.82548624972766
 20
73.42989068405151
 30
0.0
 10
76.95099964696465
 20
73.41229590599771
 30
0.0
 10
77.05112178926265
 20
73.38860235079204
 30
0.0
 10
77.12861708597323
 20
73.3566121269036
 30
0.0
 10
77.1849597955172
 20
73.31449306516384
 30
0.0
 10
77.22198332535045
 20
73.26064775273998
 30
0.0
 10
77.2255189616736
 20
73.21982071238259
 30
0.0
 10
77.2272937269856
 20
73.1993269713989
 30
0.0
  0
SPLINE
  5
11C
330
1F
100
AcDbEntity
  8
0
  6
Continuous
 62
     7
370
    25
100
AcDbSpline
210
0.0
220
0.0
230
1.0
 70
     8
 71
     3
 72
    15
 73
    11
 74
     0
 42
0.000000001
 43
0.00000001
 40
0.0
 40
0.0
 40
0.0
 40
0.0
 40
0.0764012653271364
 40
0.1491986057309287
 40
0.2255829512781149
 40
0.317665112589531
 40
0.4354320674774408
 40
0.5880060354527253
 40
0.7748529268057616
 40
1.0
 40
1.0
 40
1.0
 40
1.0
 10
72.31062706031894
 20
73.20453530473223
 30
0.0
 10
72.31194934797428
 20
73.2254187650959
 30
0.0
 10
72.31453154963945
 20
73.2662005918857
 30
0.0
 10
72.34811718042953
 20
73.31948643499653
 30
0.0
 10
72.39834360094618
 20
73.36204631021492
 30
0.0
 10
72.47023739045322
 20
73.39271950545907
 30
0.0
 10
72.56563426305748
 20
73.41507093215684
 30
0.0
 10
72.68818906084026
 20
73.4311668522756
 30
0.0
 10
72.84047391837949
 20
73.43897059318921
 30
0.0
 10
72.95167865013482
 20
73.44061553898122
 30
0.0
 10
73.01244997698561
 20
73.44151447139892
 30
0.0
  0
SPLINE
  5
11D
330
1F
100
AcDbEntity
  8
0
  6
Continuous
 62
     7
370
    25
100
AcDbSpline
210
0.0
220
0.0
230
1.0
 70
     8
 71
     3
 72
    13
 73
     9
 74
     0
 42
0.000000001
 43
0.00000001
 40
0.0
 40
0.0
 40
0.0
 40
0.0
 40
0.187554127451541
 40
0.345963931270186
 40
0.4785847266306967
 40
0.5891177514406494
 40
0.7844998517406638
 40
0.9999999999999999
 40
0.9999999999999999
 40
0.9999999999999999
 40
0.9999999999999999
 10
72.56974164365226
 20
72.96234780473223
 30
0.0
 10
72.54648998104605
 20
72.96907640298238
 30
0.0
 10
72.50359976736152
 20
72.98148803227673
 30
0.0
 10
72.44777277890483
 20
73.00783420472882
 30
0.0
 10
72.40082392909243
 20
73.02979556119752
 30
0.0
 10
72.35517370521286
 20
73.06382335907436
 30
0.0
 10
72.31797718651255
 20
73.12337477387703
 30
0.0
 10
72.31315579243608
 20
73.17661289420325
 30
0.0
 10
72.31062706031894
 20
73.20453530473223
 30
0.0
  0
SPLINE
  5
11E
330
1F
100
AcDbEntity
  8
0
  6
Continuous
 62
     7
370
    25
100
AcDbSpline
210
0.0
220
0.0
230
1.0
 70
     8
 71
     3
 72
    11
 73
     7
 74
     0
 42
0.000000001
 43
0.00000001
 40
0.0
 40
0.0
 40
0.0
 40
0.0
 40
0.2419512705880856
 40
0.4662116026288597
 40
0.708620977120326
 40
0.9999999999999999
 40
0.9999999999999999
 40
0.9999999999999999
 40
0.9999999999999999
 10
73.03718956031894
 20
72.67198322139889
 30
0.0
 10
73.00755957501802
 20
72.70618400273294
 30
0.0
 10
72.95046608301264
 20
72.77208488036895
 30
0.0
 10
72.84360748926125
 20
72.85168666379924
 30
0.0
 10
72.71619025754188
 20
72.91443382538769
 30
0.0
 10
72.62145485114203
 20
72.94542865821595
 30
0.0
 10
72.56974164365226
 20
72.96234780473223
 30
0.0
  0
SPLINE
  5
120
330
1F
100
AcDbEntity
  8
0
  6
Continuous
 62
     7
370
    25
100
AcDbSpline
210
0.0
220
0.0
230
1.0
 70
     8
 71
     3
 72
    11
 73
     7
 74
     0
 42
0.000000001
 43
0.00000001
 40
0.0
 40
0.0
 40
0.0
 40
0.0
 40
0.168617371725533
 40
0.3824722661471466
 40
0.662765256548879
 40
1.0
 40
1.0
 40
1.0
 40
1.0
 10
76.81062706031894
 20
68.10036863806556
 30
0.0
 10
76.80724096403173
 20
68.11486994474618
 30
0.0
 10
76.79956033239151
 20
68.14776304212678
 30
0.0
 10
76.77233839548181
 20
68.19999027907176
 30
0.0
 10
76.73011961572506
 20
68.25979007745593
 30
0.0
 10
76.69628939815595
 20
68.30237385656655
 30
0.0
 10
76.67781456031892
 20
68.32562905473223
 30
0.0
  0
SPLINE
  5
121
330
1F
100
AcDbEntity
  8
0
  6
Continuous
 62
     7
370
    25
100
AcDbSpline
210
0.0
220
0.0
230
1.0
 70
     8
 71
     3
 72
    11
 73
     7
 74
     0
 42
0.000000001
 43
0.00000001
 40
0.0
 40
0.0
 40
0.0
 40
0.0
 40
0.3703616759279745
 40
0.6539259426164737
 40
0.854756206927462
 40
0.9999999999999999
 40
0.9999999999999999
 40
0.9999999999999999
 40
0.9999999999999999
 10
76.56062706031894
 20
67.8985457213989
 30
0.0
 10
76.59863170709545
 20
67.9153322060737
 30
0.0
 10
76.66573428838944
 20
67.9449711199453
 30
0.0
 10
76.74515352481443
 20
67.99604312580792
 30
0.0
 10
76.80059354006575
 20
68.04514941692331
 30
0.0
 10
76.80766094268635
 20
68.08404468581803
 30
0.0
 10
76.81062706031894
 20
68.10036863806556
 30
0.0
  0
SPLINE
  5
122
330
1F
100
AcDbEntity
  8
0
  6
Continuous
 62
     7
370
    25
100
AcDbSpline
210
0.0
220
0.0
230
1.0
 70
     8
 71
     3
 72
    13
 73
     9
 74
     0
 42
0.000000001
 43
0.00000001
 40
0.0
 40
0.0
 40
0.0
 40
0.0
 40
0.1623487323581224
 40
0.3396845286555282
 40
0.4559872937203699
 40
0.6058210725423913
 40
0.7847767867870554
 40
1.0
 40
1.0
 40
1.0
 40
1.0
 10
76.31062706031895
 20
67.69672280473226
 30
0.0
 10
76.31324492915283
 20
67.71525497075366
 30
0.0
 10
76.31872233281346
 20
67.75403008151996
 30
0.0
 10
76.35644116031307
 20
67.79308741686006
 30
0.0
 10
76.39817921911849
 20
67.82016574043445
 30
0.0
 10
76.44216344671277
 20
67.8447000899105
 30
0.0
 10
76.49789657952479
 20
67.87039522428057
 30
0.0
 10
76.53847246856108
 20
67.88860377988111
 30
0.0
 10
76.56062706031894
 20
67.8985457213989
 30
0.0
  0
SPLINE
  5
123
330
1F
100
AcDbEntity
  8
0
  6
Continuous
 62
     7
370
    25
100
AcDbSpline
210
0.0
220
0.0
230
1.0
 70
     8
 71
     3
 72
    11
 73
     7
 74
     0
 42
0.000000001
 43
0.00000001
 40
0.0
 40
0.0
 40
0.0
 40
0.0
 40
0.3286789805173028
 40
0.5865517941667963
 40
0.8008242741996064
 40
0.9999999999999999
 40
0.9999999999999999
 40
0.9999999999999999
 40
0.9999999999999999
 10
76.5788562269856
 20
67.4727644713989
 30
0.0
 10
76.5391441059692
 20
67.48415701056318
 30
0.0
 10
76.46827490771477
 20
67.50448783389847
 30
0.0
 10
76.37999042950216
 20
67.5534856520172
 30
0.0
 10
76.32100435974205
 20
67.61912062033419
 30
0.0
 10
76.31400091830541
 20
67.67149285434496
 30
0.0
 10
76.31062706031895
 20
67.69672280473226
 30
0.0
  0
SPLINE
  5
124
330
1F
100
AcDbEntity
  8
0
  6
Continuous
 62
     7
370
    25
100
AcDbSpline
210
0.0
220
0.0
230
1.0
 70
     8
 71
     3
 72
    11
 73
     7
 74
     0
 42
0.000000001
 43
0.00000001
 40
0.0
 40
0.0
 40
0.0
 40
0.0
 40
0.3509061414736519
 40
0.6341895756521937
 40
0.8504211542694321
 40
1.0
 40
1.0
 40
1.0
 40
1.0
 10
77.11531456031894
 20
67.4415144713989
 30
0.0
 10
77.05237550780176
 20
67.44219436674618
 30
0.0
 10
76.938626313102
 20
67.44342313561292
 30
0.0
 10
76.78615952236566
 20
67.44754327087583
 30
0.0
 10
76.66991077871965
 20
67.4565821907554
 30
0.0
 10
76.60528253334783
 20
67.46806796916172
 30
0.0
 10
76.57885622698561
 20
67.4727644713989
 30
0.0
  0
SPLINE
  5
126
330
1F
100
AcDbEntity
  8
0
  6
Continuous
 62
     7
370
    25
100
AcDbSpline
210
0.0
220
0.0
230
1.0
 70
     8
 71
     3
 72
    11
 73
     7
 74
     0
 42
0.000000001
 43
0.00000001
 40
0.0
 40
0.0
 40
0.0
 40
0.0
 40
0.1573815034941188
 40
0.3739902802242637
 40
0.6561176674469449
 40
1.0
 40
1.0
 40
1.0
 40
1.0
 10
81.16218956031892
 20
67.50271238806558
 30
0.0
 10
81.13552795030537
 20
67.49263606349429
 30
0.0
 10
81.07217118487344
 20
67.46869139803881
 30
0.0
 10
80.95364590309437
 20
67.45526699159251
 30
0.0
 10
80.80226624828965
 20
67.44279120246786
 30
0.0
 10
80.68916343222766
 20
67.4419671457527
 30
0.0
 10
80.62703331031894
 20
67.4415144713989
 30
0.0
  0
SPLINE
  5
127
330
1F
100
AcDbEntity
  8
0
  6
Continuous
 62
     7
370
    25
100
AcDbSpline
210
0.0
220
0.0
230
1.0
 70
     8
 71
     3
 72
    11
 73
     7
 74
     0
 42
0.000000001
 43
0.00000001
 40
0.0
 40
0.0
 40
0.0
 40
0.0
 40
0.2232100527525764
 40
0.4501521936742179
 40
0.7038553550610012
 40
1.0
 40
1.0
 40
1.0
 40
1.0
 10
81.31062706031892
 20
67.6915144713989
 30
0.0
 10
81.3088794530641
 20
67.67250827520947
 30
0.0
 10
81.30535501843518
 20
67.63417809786054
 30
0.0
 10
81.27522220074657
 20
67.58078909826311
 30
0.0
 10
81.2260246600855
 20
67.53582032271443
 30
0.0
 10
81.18453541331888
 20
67.5143020157704
 30
0.0
 10
81.16218956031892
 20
67.50271238806558
 30
0.0
  0
SPLINE
  5
128
330
1F
100
AcDbEntity
  8
0
  6
Continuous
 62
     7
370
    25
100
AcDbSpline
210
0.0
220
0.0
230
1.0
 70
     8
 71
     3
 72
    15
 73
    11
 74
     0
 42
0.000000001
 43
0.00000001
 40
0.0
 40
0.0
 40
0.0
 40
0.0
 40
0.2108119566785537
 40
0.3852979455069632
 40
0.5287245448187399
 40
0.6387488773843872
 40
0.7303278906704144
 40
0.8177068129692876
 40
0.9039923167347039
 40
1.0
 40
1.0
 40
1.0
 40
1.0
 10
80.9694812269856
 20
67.95193113806556
 30
0.0
 10
81.000355767151
 20
67.94169136071449
 30
0.0
 10
81.05678471492813
 20
67.92297626865812
 30
0.0
 10
81.1334138465598
 20
67.89486197893523
 30
0.0
 10
81.1933560910361
 20
67.86685583154365
 30
0.0
 10
81.2387562977959
 20
67.83883266934576
 30
0.0
 10
81.27260009417412
 20
67.8091588904718
 30
0.0
 10
81.29501879099976
 20
67.77440802068327
 30
0.0
 10
81.30915551711936
 20
67.73466641034918
 30
0.0
 10
81.31011941025925
 20
67.70640094186743
 30
0.0
 10
81.31062706031892
 20
67.6915144713989
 30
0.0
  0
SPLINE
  5
129
330
1F
100
AcDbEntity
  8
0
  6
Continuous
 62
     7
370
    25
100
AcDbSpline
210
0.0
220
0.0
230
1.0
 70
     8
 71
     3
 72
    11
 73
     7
 74
     0
 42
0.000000001
 43
0.00000001
 40
0.0
 40
0.0
 40
0.0
 40
0.0
 40
0.2359225974721245
 40
0.4794575506934448
 40
0.7308775805610087
 40
1.0
 40
1.0
 40
1.0
 40
1.0
 10
80.60489789365228
 20
68.17588947139889
 30
0.0
 10
80.62843002059009
 20
68.15113436980761
 30
0.0
 10
80.67625356977571
 20
68.10082541041453
 30
0.0
 10
80.76376325613545
 20
68.04082381709159
 30
0.0
 10
80.86119666417187
 20
67.9883361849056
 30
0.0
 10
80.93257721278191
 20
67.96433819158047
 30
0.0
 10
80.9694812269856
 20
67.95193113806556
 30
0.0
  0
SPLINE
  5
12B
330
1F
100
AcDbEntity
  8
0
  6
Continuous
 62
     7
370
    25
100
AcDbSpline
210
0.0
220
0.0
230
1.0
 70
     8
 71
     3
 72
     9
 73
     5
 74
     0
 42
0.000000001
 43
0.00000001
 40
0.0
 40
0.0
 40
0.0
 40
0.0
 40
0.4448039669852762
 40
1.0
 40
1.0
 40
1.0
 40
1.0
 10
76.81062706031895
 20
72.80479572139892
 30
0.0
 10
76.81436433285185
 20
72.78289723454057
 30
0.0
 10
76.82276639940318
 20
72.7336654639546
 30
0.0
 10
76.85347410006294
 20
72.69400342698545
 30
0.0
 10
76.87052289365226
 20
72.67198322139889
 30
0.0
  0
SPLINE
  5
12C
330
1F
100
AcDbEntity
  8
0
  6
Continuous
 62
     7
370
    25
100
AcDbSpline
210
0.0
220
0.0
230
1.0
 70
     8
 71
     3
 72
    11
 73
     7
 74
     0
 42
0.000000001
 43
0.00000001
 40
0.0
 40
0.0
 40
0.0
 40
0.0
 40
0.2653637130083265
 40
0.5185688181640917
 40
0.7624069135984142
 40
1.0
 40
1.0
 40
1.0
 40
1.0
 10
80.52547081031894
 20
72.94411863806556
 30
0.0
 10
80.43964915341869
 20
72.91381128559625
 30
0.0
 10
80.27193807232503
 20
72.85458522272
 30
0.0
 10
80.03803682832232
 20
72.73701174937945
 30
0.0
 10
79.8241968918859
 20
72.60271537904542
 30
0.0
 10
79.69915829177714
 20
72.49478140948484
 30
0.0
 10
79.63744997698562
 20
72.44151447139892
 30
0.0
  0
SPLINE
  5
12D
330
1F
100
AcDbEntity
  8
0
  6
Continuous
 62
     7
370
    25
100
AcDbSpline
210
0.0
220
0.0
230
1.0
 70
     8
 71
     3
 72
    11
 73
     7
 74
     0
 42
0.000000001
 43
0.00000001
 40
0.0
 40
0.0
 40
0.0
 40
0.0
 40
0.1305348912341939
 40
0.3368921433385456
 40
0.6279233780585406
 40
1.0
 40
1.0
 40
1.0
 40
1.0
 10
80.84187706031894
 20
73.0547957213989
 30
0.0
 10
80.82847489850903
 20
73.04901915833548
 30
0.0
 10
80.79388580914895
 20
73.03411066380828
 30
0.0
 10
80.72745344611961
 20
73.01132148238598
 30
0.0
 10
80.63543235537865
 20
72.98013762313681
 30
0.0
 10
80.56499431658759
 20
72.95706495108327
 30
0.0
 10
80.52547081031894
 20
72.94411863806556
 30
0.0
  0
SPLINE
  5
12E
330
1F
100
AcDbEntity
  8
0
  6
Continuous
 62
     7
370
    25
100
AcDbSpline
210
0.0
220
0.0
230
1.0
 70
     8
 71
     3
 72
    11
 73
     7
 74
     0
 42
0.000000001
 43
0.00000001
 40
0.0
 40
0.0
 40
0.0
 40
0.0
 40
0.2133167980831992
 40
0.4406928212778482
 40
0.6970677057468282
 40
1.0
 40
1.0
 40
1.0
 40
1.0
 10
80.97729372698561
 20
73.24099363806556
 30
0.0
 10
80.97593903046268
 20
73.22369971097356
 30
0.0
 10
80.97314035244943
 20
73.1879720533787
 30
0.0
 10
80.9434084372977
 20
73.13888924423314
 30
0.0
 10
80.90097865422501
 20
73.09162392554627
 30
0.0
 10
80.86264133984585
 20
73.06773464698193
 30
0.0
 10
80.84187706031894
 20
73.0547957213989
 30
0.0
  0
SPLINE
  5
12F
330
1F
100
AcDbEntity
  8
0
  6
Continuous
 62
     7
370
    25
100
AcDbSpline
210
0.0
220
0.0
230
1.0
 70
     8
 71
     3
 72
    15
 73
    11
 74
     0
 42
0.000000001
 43
0.00000001
 40
0.0
 40
0.0
 40
0.0
 40
0.0
 40
0.1778124705133743
 40
0.3407492471936489
 40
0.4898405238802785
 40
0.6271135937204961
 40
0.7468277460269508
 40
0.8448925728694441
 40
0.9241259374230875
 40
0.9999999999999999
 40
0.9999999999999999
 40
0.9999999999999999
 40
0.9999999999999999
 10
80.47729372698561
 20
73.4415144713989
 30
0.0
 10
80.51161388183202
 20
73.44074519215525
 30
0.0
 10
80.57738298617954
 20
73.43927099114784
 30
0.0
 10
80.6714225030522
 20
73.42871348778479
 30
0.0
 10
80.75676966815819
 20
73.41256865502878
 30
0.0
 10
80.83144310044494
 20
73.38814429403098
 30
0.0
 10
80.89379206870171
 20
73.35921941693525
 30
0.0
 10
80.94130363417926
 20
73.3265433757451
 30
0.0
 10
80.97163380384187
 20
73.28586006771286
 30
0.0
 10
80.97543452448703
 20
73.25573160817292
 30
0.0
 10
80.97729372698561
 20
73.24099363806556
 30
0.0
  0
SPLINE
  5
131
330
1F
100
AcDbEntity
  8
0
  6
Continuous
 62
     7
370
    25
100
AcDbSpline
210
0.0
220
0.0
230
1.0
 70
     8
 71
     3
 72
    15
 73
    11
 74
     0
 42
0.000000001
 43
0.00000001
 40
0.0
 40
0.0
 40
0.0
 40
0.0
 40
0.0855054421383426
 40
0.1724956990505654
 40
0.2687369639649773
 40
0.3827623727259378
 40
0.5138486149268978
 40
0.6599061868803989
 40
0.820772137306534
 40
1.0
 40
1.0
 40
1.0
 40
1.0
 10
77.81062706031894
 20
73.20974363806556
 30
0.0
 10
77.81245931161536
 20
73.227015838828
 30
0.0
 10
77.81615563152565
 20
73.26186017469887
 30
0.0
 10
77.84485282040755
 20
73.30958078986303
 30
0.0
 10
77.89040323604722
 20
73.34912032229076
 30
0.0
 10
77.95103321527118
 20
73.38216959041898
 30
0.0
 10
78.02526763532079
 20
73.40895598395376
 30
0.0
 10
78.11150102036125
 20
73.42784073805933
 30
0.0
 10
78.20874080732999
 20
73.43961876792406
 30
0.0
 10
78.27716958068997
 20
73.44086022780013
 30
0.0
 10
78.3132312269856
 20
73.4415144713989
 30
0.0
  0
SPLINE
  5
132
330
1F
100
AcDbEntity
  8
0
  6
Continuous
 62
     7
370
    25
100
AcDbSpline
210
0.0
220
0.0
230
1.0
 70
     8
 71
     3
 72
    11
 73
     7
 74
     0
 42
0.000000001
 43
0.00000001
 40
0.0
 40
0.0
 40
0.0
 40
0.0
 40
0.2622291459507072
 40
0.5334289883282272
 40
0.7862577386862184
 40
1.0
 40
1.0
 40
1.0
 40
1.0
 10
78.00203331031894
 20
73.0001082213989
 30
0.0
 10
77.97738495001987
 20
73.00966391988132
 30
0.0
 10
77.92724502430485
 20
73.02910221136398
 30
0.0
 10
77.86755472487471
 20
73.0814493348823
 30
0.0
 10
77.82078992196992
 20
73.14145560976561
 30
0.0
 10
77.81382004966216
 20
73.18828876107126
 30
0.0
 10
77.81062706031894
 20
73.20974363806556
 30
0.0
  0
SPLINE
  5
134
330
1F
100
AcDbEntity
  8
0
  6
Continuous
 62
     7
370
    25
100
AcDbSpline
210
0.0
220
0.0
230
1.0
 70
     8
 71
     3
 72
    15
 73
    11
 74
     0
 42
0.000000001
 43
0.00000001
 40
0.0
 40
0.0
 40
0.0
 40
0.0
 40
0.0915464801208933
 40
0.18944010774758
 40
0.298929700607838
 40
0.4220406517644285
 40
0.5564509367822361
 40
0.6939566011518973
 40
0.843344097098523
 40
1.0
 40
1.0
 40
1.0
 40
1.0
 10
78.64396039365226
 20
72.59906655473223
 30
0.0
 10
78.642639825863
 20
72.61531539243352
 30
0.0
 10
78.63990713200135
 20
72.6489396405842
 30
0.0
 10
78.6183732334172
 20
72.69814982865516
 30
0.0
 10
78.58534056944022
 20
72.74669036785782
 30
0.0
 10
78.53914884864679
 20
72.79281831251963
 30
0.0
 10
78.48421422549343
 20
72.83625663462561
 30
0.0
 10
78.42029547641242
 20
72.87514870388064
 30
0.0
 10
78.34765797725042
 20
72.90567756208458
 30
0.0
 10
78.29560500056677
 20
72.92076880906762
 30
0.0
 10
78.26896039365226
 20
72.92849363806558
 30
0.0
  0
SPLINE
  5
135
330
1F
100
AcDbEntity
  8
0
  6
Continuous
 62
     7
370
    25
100
AcDbSpline
210
0.0
220
0.0
230
1.0
 70
     8
 71
     3
 72
    11
 73
     7
 74
     0
 42
0.000000001
 43
0.00000001
 40
0.0
 40
0.0
 40
0.0
 40
0.0
 40
0.316270152608178
 40
0.5842163445893913
 40
0.8078313628097605
 40
1.0
 40
1.0
 40
1.0
 40
1.0
 10
78.50724164365226
 20
72.34385822139889
 30
0.0
 10
78.52780355345182
 20
72.36726268473325
 30
0.0
 10
78.56578565097767
 20
72.4104955661908
 30
0.0
 10
78.60986068050839
 20
72.47688742824336
 30
0.0
 10
78.63699159735059
 20
72.53939156679807
 30
0.0
 10
78.64175761540065
 20
72.58020378993109
 30
0.0
 10
78.64396039365226
 20
72.59906655473223
 30
0.0
  0
SPLINE
  5
139
330
1F
100
AcDbEntity
  8
0
  6
Continuous
 62
     7
370
    25
100
AcDbSpline
210
0.0
220
0.0
230
1.0
 70
     8
 71
     3
 72
    11
 73
     7
 74
     0
 42
0.000000001
 43
0.00000001
 40
0.0
 40
0.0
 40
0.0
 40
0.0
 40
0.2813987299721663
 40
0.5404045123489611
 40
0.777346509242424
 40
1.0
 40
1.0
 40
1.0
 40
1.0
 10
72.7819812269856
 20
67.90505613806556
 30
0.0
 10
72.87028682196605
 20
67.92733348233989
 30
0.0
 10
73.03987089222043
 20
67.97011540026186
 30
0.0
 10
73.27375149713005
 20
68.06393445705474
 30
0.0
 10
73.47765952102584
 20
68.177892737079
 30
0.0
 10
73.59144202031473
 20
68.27390639269521
 30
0.0
 10
73.64656456031892
 20
68.3204207213989
 30
0.0
  0
SPLINE
  5
13A
330
1F
100
AcDbEntity
  8
0
  6
Continuous
 62
     7
370
    25
100
AcDbSpline
210
0.0
220
0.0
230
1.0
 70
     8
 71
     3
 72
    15
 73
    11
 74
     0
 42
0.000000001
 43
0.00000001
 40
0.0
 40
0.0
 40
0.0
 40
0.0
 40
0.0829929863233938
 40
0.1649602732628584
 40
0.2499675381299644
 40
0.3466175806204611
 40
0.4642274077664197
 40
0.6121569680931033
 40
0.7894188791859436
 40
1.0
 40
1.0
 40
1.0
 40
1.0
 10
72.39396039365226
 20
67.66417072139889
 30
0.0
 10
72.39478426329761
 20
67.67785038987881
 30
0.0
 10
72.39642182049187
 20
67.70504066161811
 30
0.0
 10
72.41528691561024
 20
67.74220511881781
 30
0.0
 10
72.4419855050459
 20
67.77642400305055
 30
0.0
 10
72.48230782053989
 20
67.80498496383106
 30
0.0
 10
72.53454848087146
 20
67.83296242101841
 30
0.0
 10
72.60269930751817
 20
67.85794311264455
 30
0.0
 10
72.68677275739451
 20
67.8825051620724
 30
0.0
 10
72.74847805679046
 20
67.8971206131064
 30
0.0
 10
72.7819812269856
 20
67.90505613806556
 30
0.0
  0
SPLINE
  5
13B
330
1F
100
AcDbEntity
  8
0
  6
Continuous
 62
     7
370
    25
100
AcDbSpline
210
0.0
220
0.0
230
1.0
 70
     8
 71
     3
 72
    15
 73
    11
 74
     0
 42
0.000000001
 43
0.00000001
 40
0.0
 40
0.0
 40
0.0
 40
0.0
 40
0.1836514630007877
 40
0.3486619567129141
 40
0.4964570233856224
 40
0.6268914014800898
 40
0.7380461645043926
 40
0.8343453317869967
 40
0.9165675409414499
 40
1.0
 40
1.0
 40
1.0
 40
1.0
 10
72.90047081031894
 20
67.4415144713989
 30
0.0
 10
72.86355492050859
 20
67.44230905978087
 30
0.0
 10
72.79347017321197
 20
67.44381758432793
 30
0.0
 10
72.69403930851075
 20
67.4537791469812
 30
0.0
 10
72.60650929658789
 20
67.47139454881643
 30
0.0
 10
72.53216819316859
 20
67.4967001148263
 30
0.0
 10
72.47192763035832
 20
67.52899958642523
 30
0.0
 10
72.42759884450169
 20
67.56758844065656
 30
0.0
 10
72.3994632280746
 20
67.61387654068884
 30
0.0
 10
72.39580358407596
 20
67.64732453902513
 30
0.0
 10
72.39396039365226
 20
67.66417072139889
 30
0.0
  0
SPLINE
  5
13D
330
1F
100
AcDbEntity
  8
0
  6
Continuous
 62
     7
370
    25
100
AcDbSpline
210
0.0
220
0.0
230
1.0
 70
     8
 71
     3
 72
    13
 73
     9
 74
     0
 42
0.000000001
 43
0.00000001
 40
0.0
 40
0.0
 40
0.0
 40
0.0
 40
0.1613722775649025
 40
0.3322861526409023
 40
0.4401421641294589
 40
0.5863099945001445
 40
0.7738937886275429
 40
1.0
 40
1.0
 40
1.0
 40
1.0
 10
75.29760622698561
 20
67.48969155473225
 30
0.0
 10
75.27400625184931
 20
67.48009355740085
 30
0.0
 10
75.22541088553986
 20
67.46033005369112
 30
0.0
 10
75.1564667267245
 20
67.44960933915667
 30
0.0
 10
75.08980387156787
 20
67.44434243999724
 30
0.0
 10
75.02022892516891
 20
67.44468788672286
 30
0.0
 10
74.93218917567513
 20
67.44043066364944
 30
0.0
 10
74.86705829604483
 20
67.44113144996547
 30
0.0
 10
74.83146039365226
 20
67.4415144713989
 30
0.0
  0
SPLINE
  5
13E
330
1F
100
AcDbEntity
  8
0
  6
Continuous
 62
     7
370
    25
100
AcDbSpline
210
0.0
220
0.0
230
1.0
 70
     8
 71
     3
 72
    11
 73
     7
 74
     0
 42
0.000000001
 43
0.00000001
 40
0.0
 40
0.0
 40
0.0
 40
0.0
 40
0.2099800108976582
 40
0.4258109886459341
 40
0.6888586847600768
 40
1.0
 40
1.0
 40
1.0
 40
1.0
 10
75.4772937269856
 20
67.69021238806556
 30
0.0
 10
75.47487132072938
 20
67.67019497860633
 30
0.0
 10
75.46995900932191
 20
67.62960238659947
 30
0.0
 10
75.43239784832267
 20
67.57363610509316
 30
0.0
 10
75.37348764501449
 20
67.52620627713983
 30
0.0
 10
75.32427406327064
 20
67.50252432281239
 30
0.0
 10
75.2976062269856
 20
67.48969155473223
 30
0.0
  0
SPLINE
  5
13F
330
1F
100
AcDbEntity
  8
0
  6
Continuous
 62
     7
370
    25
100
AcDbSpline
210
0.0
220
0.0
230
1.0
 70
     8
 71
     3
 72
    15
 73
    11
 74
     0
 42
0.000000001
 43
0.00000001
 40
0.0
 40
0.0
 40
0.0
 40
0.0
 40
0.2099607871572891
 40
0.3861776049538365
 40
0.5328698579912318
 40
0.644266625985756
 40
0.7363939934278834
 40
0.8235001887695084
 40
0.9073973377398685
 40
1.0
 40
1.0
 40
1.0
 40
1.0
 10
75.10880414365228
 20
67.94021238806556
 30
0.0
 10
75.14143557137494
 20
67.93183952037357
 30
0.0
 10
75.20145404803804
 20
67.91643943526402
 30
0.0
 10
75.28315981969452
 20
67.89088064972236
 30
0.0
 10
75.3475066351243
 20
67.86401808182416
 30
0.0
 10
75.39753693684261
 20
67.8379474630446
 30
0.0
 10
75.43371190252192
 20
67.80787852017717
 30
0.0
 10
75.45916253661247
 20
67.77364655651667
 30
0.0
 10
75.47449732794941
 20
67.73349824243844
 30
0.0
 10
75.47633143930338
 20
67.70510777457442
 30
0.0
 10
75.4772937269856
 20
67.69021238806556
 30
0.0
  0
SPLINE
  5
140
330
1F
100
AcDbEntity
  8
0
  6
Continuous
 62
     7
370
    25
100
AcDbSpline
210
0.0
220
0.0
230
1.0
 70
     8
 71
     3
 72
    15
 73
    11
 74
     0
 42
0.000000001
 43
0.00000001
 40
0.0
 40
0.0
 40
0.0
 40
0.0
 40
0.0972744698480789
 40
0.1919663936824361
 40
0.2935197030087996
 40
0.4020364238087868
 40
0.5248658971071342
 40
0.6664884270825705
 40
0.8222698705143685
 40
1.0
 40
1.0
 40
1.0
 40
1.0
 10
74.7272937269856
 20
68.2462019713989
 30
0.0
 10
74.72870022887437
 20
68.22913496128885
 30
0.0
 10
74.7314758913449
 20
68.19545405419287
 30
0.0
 10
74.74936176347428
 20
68.14645509936541
 30
0.0
 10
74.77985599311083
 20
68.1018840855081
 30
0.0
 10
74.82347199945171
 20
68.06250422851787
 30
0.0
 10
74.87782627509904
 20
68.0258220006892
 30
0.0
 10
74.94381044290412
 20
67.99247387625589
 30
0.0
 10
75.02229156785792
 20
67.96394491953643
 30
0.0
 10
75.0787285625215
 20
67.94846286112265
 30
0.0
 10
75.10880414365228
 20
67.94021238806556
 30
0.0
  0
SPLINE
  5
141
330
1F
100
AcDbEntity
  8
0
  6
Continuous
 62
     7
370
    25
100
AcDbSpline
210
0.0
220
0.0
230
1.0
 70
     8
 71
     3
 72
    11
 73
     7
 74
     0
 42
0.000000001
 43
0.00000001
 40
0.0
 40
0.0
 40
0.0
 40
0.0
 40
0.3350590283874497
 40
0.6100863285933766
 40
0.8292091942540203
 40
1.0
 40
1.0
 40
1.0
 40
1.0
 10
74.9655749769856
 20
68.63552488806558
 30
0.0
 10
74.92976758130935
 20
68.59772799787366
 30
0.0
 10
74.86456831576575
 20
68.52890619629314
 30
0.0
 10
74.79062172993993
 20
68.42412399182476
 30
0.0
 10
74.73807138615527
 20
68.33320597121487
 30
0.0
 10
74.73057660623599
 20
68.2727034241912
 30
0.0
 10
74.7272937269856
 20
68.2462019713989
 30
0.0
  0
SPLINE
  5
145
330
1F
100
AcDbEntity
  8
0
  6
Continuous
 62
     7
370
    25
100
AcDbSpline
210
0.0
220
0.0
230
1.0
 70
     8
 71
     3
 72
    11
 73
     7
 74
     0
 42
0.000000001
 43
0.00000001
 40
0.0
 40
0.0
 40
0.0
 40
0.0
 40
0.2436105292077986
 40
0.4906303456121107
 40
0.7428108867546666
 40
1.0
 40
1.0
 40
1.0
 40
1.0
 10
85.8569812269856
 20
73.16937905473223
 30
0.0
 10
85.95984098466185
 20
73.20799615023209
 30
0.0
 10
86.16700000452185
 20
73.28577078080012
 30
0.0
 10
86.48872232512917
 20
73.37974225581617
 30
0.0
 10
86.82067237596229
 20
73.45885314529762
 30
0.0
 10
87.04726060481336
 20
73.49664931426547
 30
0.0
 10
87.1616687269856
 20
73.5157332213989
 30
0.0
  0
SPLINE
  5
146
330
1F
100
AcDbEntity
  8
0
  6
Continuous
 62
     7
370
    25
100
AcDbSpline
210
0.0
220
0.0
230
1.0
 70
     8
 71
     3
 72
    23
 73
    19
 74
     0
 42
0.000000001
 43
0.00000001
 40
0.0
 40
0.0
 40
0.0
 40
0.0
 40
0.0608894609048509
 40
0.1204110180450904
 40
0.178993152335417
 40
0.2369751977247266
 40
0.294872611888362
 40
0.3529839146680837
 40
0.4115811740847743
 40
0.4714797010623547
 40
0.5324796710060021
 40
0.5942189681655204
 40
0.6570810279051938
 40
0.7213612421799315
 40
0.7876209964400479
 40
0.8559664115865224
 40
0.9268351364469194
 40
1.0
 40
1.0
 40
1.0
 40
1.0
 10
83.6772937269856
 20
70.36989988806556
 30
0.0
 10
83.67912944084877
 20
70.44679115605713
 30
0.0
 10
83.68275962859916
 20
70.59884630189117
 30
0.0
 10
83.70912689933623
 20
70.82368699318197
 30
0.0
 10
83.75376006859041
 20
71.04170534390666
 30
0.0
 10
83.81462449145404
 20
71.25372217594405
 30
0.0
 10
83.89490364281953
 20
71.45849416139293
 30
0.0
 10
83.99082029338209
 20
71.65732532798921
 30
0.0
 10
84.10704217904632
 20
71.84796253795884
 30
0.0
 10
84.23815771841053
 20
72.03306060450412
 30
0.0
 10
84.3865884621143
 20
72.20989855247687
 30
0.0
 10
84.55116350864806
 20
72.37709691069219
 30
0.0
 10
84.73177246903151
 20
72.53317692374833
 30
0.0
 10
84.92644106931502
 20
72.68086501701598
 30
0.0
 10
85.13632464595838
 20
72.81915688584046
 30
0.0
 10
85.36263208310822
 20
72.94631688757299
 30
0.0
 10
85.60309303438991
 20
73.06547867715447
 30
0.0
 10
85.77145715993625
 20
73.13437946389833
 30
0.0
 10
85.8569812269856
 20
73.16937905473223
 30
0.0
  0
SPLINE
  5
147
330
1F
100
AcDbEntity
  8
0
  6
Continuous
 62
     7
370
    25
100
AcDbSpline
210
0.0
220
0.0
230
1.0
 70
     8
 71
     3
 72
    15
 73
    11
 74
     0
 42
0.000000001
 43
0.00000001
 40
0.0
 40
0.0
 40
0.0
 40
0.0
 40
0.1280560207528472
 40
0.2526823430642799
 40
0.3756808762744754
 40
0.4977790019845131
 40
0.6203384365188965
 40
0.7439865820191893
 40
0.8699779914344119
 40
1.0
 40
1.0
 40
1.0
 40
1.0
 10
84.31531456031894
 20
68.6954207213989
 30
0.0
 10
84.26413648650005
 20
68.75477249173078
 30
0.0
 10
84.1631510308374
 20
68.87188642596287
 30
0.0
 10
84.03497542141925
 20
69.06299419998491
 30
0.0
 10
83.92208749950476
 20
69.25926544783474
 30
0.0
 10
83.83472259333257
 20
69.46684969257566
 30
0.0
 10
83.76302598729166
 20
69.68064503878124
 30
0.0
 10
83.71436169293149
 20
69.9033181252959
 30
0.0
 10
83.6832587430275
 20
70.13377692281738
 30
0.0
 10
83.67930282592721
 20
70.29037044569108
 30
0.0
 10
83.6772937269856
 20
70.36989988806556
 30
0.0
  0
SPLINE
  5
148
330
1F
100
AcDbEntity
  8
0
  6
Continuous
 62
     7
370
    25
100
AcDbSpline
210
0.0
220
0.0
230
1.0
 70
     8
 71
     3
 72
    15
 73
    11
 74
     0
 42
0.000000001
 43
0.00000001
 40
0.0
 40
0.0
 40
0.0
 40
0.0
 40
0.1396754314420876
 40
0.2750229076819083
 40
0.4064690031245118
 40
0.5345606352313875
 40
0.6581973853770391
 40
0.776733026870197
 40
0.8901377182694902
 40
1.0
 40
1.0
 40
1.0
 40
1.0
 10
86.79187706031895
 20
67.43370197139892
 30
0.0
 10
86.66338804215202
 20
67.4618856879387
 30
0.0
 10
86.4103913410384
 20
67.51737982597015
 30
0.0
 10
86.04422557054667
 20
67.62972387912501
 30
0.0
 10
85.69520089737443
 20
67.75853839615337
 30
0.0
 10
85.36795092213639
 20
67.91115168519086
 30
0.0
 10
85.06280208955718
 20
68.08048727716564
 30
0.0
 10
84.78558827202241
 20
68.26861132975962
 30
0.0
 10
84.5330861256625
 20
68.46931904321968
 30
0.0
 10
84.38713317341163
 20
68.62085493077723
 30
0.0
 10
84.31531456031894
 20
68.6954207213989
 30
0.0
  0
SPLINE
  5
149
330
1F
100
AcDbEntity
  8
0
  6
Continuous
 62
     7
370
    25
100
AcDbSpline
210
0.0
220
0.0
230
1.0
 70
     8
 71
     3
 72
    13
 73
     9
 74
     0
 42
0.000000001
 43
0.00000001
 40
0.0
 40
0.0
 40
0.0
 40
0.0
 40
0.2346814749509301
 40
0.4500047847747222
 40
0.5616173311308247
 40
0.6896270719827003
 40
0.8358099641233183
 40
1.0
 40
1.0
 40
1.0
 40
1.0
 10
87.76062706031892
 20
67.32432697139889
 30
0.0
 10
87.68421188304197
 20
67.32517354275204
 30
0.0
 10
87.53768478536105
 20
67.32679685434769
 30
0.0
 10
87.35517716578981
 20
67.3410685732794
 30
0.0
 10
87.20845880218806
 20
67.36147842279844
 30
0.0
 10
87.08407672162161
 20
67.37910184870485
 30
0.0
 10
86.94361288134255
 20
67.4045754628051
 30
0.0
 10
86.84437485680357
 20
67.42362473643786
 30
0.0
 10
86.79187706031895
 20
67.43370197139892
 30
0.0
  0
SPLINE
  5
14B
330
1F
100
AcDbEntity
  8
0
  6
Continuous
 62
     7
370
    25
100
AcDbSpline
210
0.0
220
0.0
230
1.0
 70
     8
 71
     3
 72
    11
 73
     7
 74
     0
 42
0.000000001
 43
0.00000001
 40
0.0
 40
0.0
 40
0.0
 40
0.0
 40
0.1795561503997428
 40
0.4033920347140433
 40
0.6748694122805287
 40
1.0
 40
1.0
 40
1.0
 40
1.0
 10
87.36739789365227
 20
67.99750405473223
 30
0.0
 10
87.38671605385207
 20
67.97967528324034
 30
0.0
 10
87.43011636028872
 20
67.93962104732277
 30
0.0
 10
87.51911720240308
 20
67.89545232623982
 30
0.0
 10
87.63053556938912
 20
67.85211733415375
 30
0.0
 10
87.7147390774789
 20
67.82991568255561
 30
0.0
 10
87.76062706031892
 20
67.81781655473223
 30
0.0
  0
SPLINE
  5
14C
330
1F
100
AcDbEntity
  8
0
  6
Continuous
 62
     7
370
    25
100
AcDbSpline
210
0.0
220
0.0
230
1.0
 70
     8
 71
     3
 72
    11
 73
     7
 74
     0
 42
0.000000001
 43
0.00000001
 40
0.0
 40
0.0
 40
0.0
 40
0.0
 40
0.288199836962929
 40
0.5477673387212597
 40
0.7803309313255179
 40
1.0
 40
1.0
 40
1.0
 40
1.0
 10
87.26062706031892
 20
68.3594832213989
 30
0.0
 10
87.26154622337555
 20
68.32244096804791
 30
0.0
 10
87.26329323165524
 20
68.2520365682671
 30
0.0
 10
87.28509531345317
 20
68.15405495855798
 30
0.0
 10
87.31601033004708
 20
68.06720337582338
 30
0.0
 10
87.35059743350254
 20
68.02029129320594
 30
0.0
 10
87.36739789365227
 20
67.99750405473223
 30
0.0
  0
SPLINE
  5
14E
330
1F
100
AcDbEntity
  8
0
  6
Continuous
 62
     7
370
    25
100
AcDbSpline
210
0.0
220
0.0
230
1.0
 70
     8
 71
     3
 72
    15
 73
    11
 74
     0
 42
0.000000001
 43
0.00000001
 40
0.0
 40
0.0
 40
0.0
 40
0.0
 40
0.1478753630462918
 40
0.2815184872834499
 40
0.4035238739740572
 40
0.5185754192835943
 40
0.6305592598965091
 40
0.744420242662744
 40
0.8662082614772608
 40
1.0
 40
1.0
 40
1.0
 40
1.0
 10
87.84396039365227
 20
73.0665144713989
 30
0.0
 10
87.79802787661133
 20
73.05791188643015
 30
0.0
 10
87.7105836097091
 20
73.04153467079911
 30
0.0
 10
87.5908468237567
 20
72.9965517562434
 30
0.0
 10
87.48805795334012
 20
72.93952874361192
 30
0.0
 10
87.40440370792386
 20
72.86663220244778
 30
0.0
 10
87.3390256979291
 20
72.78022251296763
 30
0.0
 10
87.29284444691557
 20
72.6799328460019
 30
0.0
 10
87.26517346030207
 20
72.56581769773622
 30
0.0
 10
87.26218924646821
 20
72.48508091393099
 30
0.0
 10
87.26062706031892
 20
72.44281655473225
 30
0.0
  0
SPLINE
  5
150
330
1F
100
AcDbEntity
  8
0
  6
Continuous
 62
     7
370
    25
100
AcDbSpline
210
0.0
220
0.0
230
1.0
 70
     8
 71
     3
 72
    11
 73
     7
 74
     0
 42
0.000000001
 43
0.00000001
 40
0.0
 40
0.0
 40
0.0
 40
0.0
 40
0.2225414778305992
 40
0.4631834170474368
 40
0.7221914252071666
 40
1.0
 40
1.0
 40
1.0
 40
1.0
 10
87.1616687269856
 20
73.5157332213989
 30
0.0
 10
87.21196630881911
 20
73.5226635718288
 30
0.0
 10
87.3166524376701
 20
73.53708795430681
 30
0.0
 10
87.48088397515095
 20
73.55106918638734
 30
0.0
 10
87.65812299697038
 20
73.55856540461569
 30
0.0
 10
87.78058496039374
 20
73.55951343725657
 30
0.0
 10
87.84396039365227
 20
73.56000405473223
 30
0.0
  0
SPLINE
  5
151
330
1F
100
AcDbEntity
  8
0
  6
Continuous
 62
     7
370
    25
100
AcDbSpline
210
0.0
220
0.0
230
1.0
 70
     8
 71
     3
 72
    15
 73
    11
 74
     0
 42
0.000000001
 43
0.00000001
 40
0.0
 40
0.0
 40
0.0
 40
0.0
 40
0.099563431209227
 40
0.2122996574042239
 40
0.3391479055353256
 40
0.4808632937474026
 40
0.6253135892259278
 40
0.7596079487113353
 40
0.8840967165030337
 40
1.0
 40
1.0
 40
1.0
 40
1.0
 10
91.09656456031895
 20
71.52094155473225
 30
0.0
 10
91.07469818126654
 20
71.5647304668613
 30
0.0
 10
91.02807237975367
 20
71.65810180742473
 30
0.0
 10
90.93826794512056
 20
71.79884825263963
 30
0.0
 10
90.82515325788495
 20
71.94834108245074
 30
0.0
 10
90.69416319089046
 20
72.10338948757496
 30
0.0
 10
90.55596008342363
 20
72.25708698600278
 30
0.0
 10
90.41463762626844
 20
72.39599439043423
 30
0.0
 10
90.27883416444298
 20
72.52062404909084
 30
0.0
 10
90.1839695247672
 20
72.59111939959391
 30
0.0
 10
90.1382312269856
 20
72.62510822139889
 30
0.0
  0
SPLINE
  5
152
330
1F
100
AcDbEntity
  8
0
  6
Continuous
 62
     7
370
    25
100
AcDbSpline
210
0.0
220
0.0
230
1.0
 70
     8
 71
     3
 72
    15
 73
    11
 74
     0
 42
0.000000001
 43
0.00000001
 40
0.0
 40
0.0
 40
0.0
 40
0.0
 40
0.1492466345610665
 40
0.2797837376769548
 40
0.3932803294496922
 40
0.4924146224852426
 40
0.5925272381675075
 40
0.7099283337684746
 40
0.8440861890176947
 40
1.0
 40
1.0
 40
1.0
 40
1.0
 10
91.59396039365227
 20
71.1915144713989
 30
0.0
 10
91.56178868219196
 20
71.19202310502742
 30
0.0
 10
91.50147829927246
 20
71.19297661006364
 30
0.0
 10
91.41749766945334
 20
71.20607552964293
 30
0.0
 10
91.34625279204018
 20
71.22634408549517
 30
0.0
 10
91.28488299515453
 20
71.25556641874876
 30
0.0
 10
91.23297858193263
 20
71.30085455455216
 30
0.0
 10
91.18584322757054
 20
71.36035238445467
 30
0.0
 10
91.13809524878226
 20
71.43422731776195
 30
0.0
 10
91.11108343647494
 20
71.49062678476054
 30
0.0
 10
91.09656456031894
 20
71.52094155473223
 30
0.0
  0
SPLINE
  5
153
330
1F
100
AcDbEntity
  8
0
  6
Continuous
 62
     7
370
    25
100
AcDbSpline
210
0.0
220
0.0
230
1.0
 70
     8
 71
     3
 72
    15
 73
    11
 74
     0
 42
0.000000001
 43
0.00000001
 40
0.0
 40
0.0
 40
0.0
 40
0.0
 40
0.1314189506198327
 40
0.2477957525272077
 40
0.3565588499341254
 40
0.464166616122044
 40
0.5772755016324594
 40
0.7016619047073249
 40
0.8413147062871895
 40
1.0
 40
1.0
 40
1.0
 40
1.0
 10
92.01062706031892
 20
71.53396238806558
 30
0.0
 10
92.00956996659525
 20
71.5069122065287
 30
0.0
 10
92.00757677357772
 20
71.45590799398317
 30
0.0
 10
91.98762655000158
 20
71.38467255501061
 30
0.0
 10
91.95454316683347
 20
71.32412037439937
 30
0.0
 10
91.90735132744433
 20
71.27452194888471
 30
0.0
 10
91.84687808396527
 20
71.23639810209193
 30
0.0
 10
91.77387492155088
 20
71.20907000623187
 30
0.0
 10
91.68788053863616
 20
71.19410549451736
 30
0.0
 10
91.62657085987972
 20
71.19241411302438
 30
0.0
 10
91.59396039365227
 20
71.1915144713989
 30
0.0
  0
SPLINE
  5
155
330
1F
100
AcDbEntity
  8
0
  6
Continuous
 62
     7
370
    25
100
AcDbSpline
210
0.0
220
0.0
230
1.0
 70
     8
 71
     3
 72
    15
 73
    11
 74
     0
 42
0.000000001
 43
0.00000001
 40
0.0
 40
0.0
 40
0.0
 40
0.0
 40
0.1817878238847041
 40
0.3355665664797296
 40
0.4653809179798922
 40
0.5719502275707533
 40
0.6692084440341468
 40
0.7672993923086364
 40
0.8768790966413943
 40
1.0
 40
1.0
 40
1.0
 40
1.0
 10
91.63172081031892
 20
73.52484780473223
 30
0.0
 10
91.66390736718016
 20
73.52431823487227
 30
0.0
 10
91.723321315496
 20
73.52334068898483
 30
0.0
 10
91.80474849409936
 20
73.51103319115407
 30
0.0
 10
91.87237201123078
 20
73.49520956969036
 30
0.0
 10
91.92462776529281
 20
73.4663594368096
 30
0.0
 10
91.96434767206706
 20
73.42993314717809
 30
0.0
 10
91.9932030726549
 20
73.38344588385175
 30
0.0
 10
92.00792661000729
 20
73.32605776027764
 30
0.0
 10
92.00969265396202
 20
73.28490356479789
 30
0.0
 10
92.01062706031894
 20
73.26312905473225
 30
0.0
  0
SPLINE
  5
156
330
1F
100
AcDbEntity
  8
0
  6
Continuous
 62
     7
370
    25
100
AcDbSpline
210
0.0
220
0.0
230
1.0
 70
     8
 71
     3
 72
    11
 73
     7
 74
     0
 42
0.000000001
 43
0.00000001
 40
0.0
 40
0.0
 40
0.0
 40
0.0
 40
0.240129220328166
 40
0.4817837777204413
 40
0.7313197108873536
 40
1.0
 40
1.0
 40
1.0
 40
1.0
 10
91.29708539365227
 20
73.4141707213989
 30
0.0
 10
91.32041180081625
 20
73.43114020446656
 30
0.0
 10
91.36721278800455
 20
73.46518696332052
 30
0.0
 10
91.44824667055998
 20
73.50017823015109
 30
0.0
 10
91.5372613018826
 20
73.52185390747574
 30
0.0
 10
91.59946827435176
 20
73.52382555953378
 30
0.0
 10
91.63172081031892
 20
73.52484780473223
 30
0.0
  0
SPLINE
  5
157
330
1F
100
AcDbEntity
  8
0
  6
Continuous
 62
     7
370
    25
100
AcDbSpline
210
0.0
220
0.0
230
1.0
 70
     8
 71
     3
 72
    13
 73
     9
 74
     0
 42
0.000000001
 43
0.00000001
 40
0.0
 40
0.0
 40
0.0
 40
0.0
 40
0.2090060803424122
 40
0.368507428747906
 40
0.4620698400978164
 40
0.5984775251219728
 40
0.776554634394487
 40
1.0
 40
1.0
 40
1.0
 40
1.0
 10
90.85828331031894
 20
73.1915144713989
 30
0.0
 10
90.89360693300254
 20
73.19233358067252
 30
0.0
 10
90.95588750085909
 20
73.19377778675398
 30
0.0
 10
91.03202360029492
 20
73.21646285246223
 30
0.0
 10
91.08723465973645
 20
73.25250010170092
 30
0.0
 10
91.14270569060824
 20
73.29315525578745
 30
0.0
 10
91.21481604768299
 20
73.34827064359993
 30
0.0
 10
91.2676715536153
 20
73.3906094018823
 30
0.0
 10
91.29708539365227
 20
73.4141707213989
 30
0.0
  0
SPLINE
  5
158
330
1F
100
AcDbEntity
  8
0
  6
Continuous
 62
     7
370
    25
100
AcDbSpline
210
0.0
220
0.0
230
1.0
 70
     8
 71
     3
 72
    11
 73
     7
 74
     0
 42
0.000000001
 43
0.00000001
 40
0.0
 40
0.0
 40
0.0
 40
0.0
 40
0.3111463079672055
 40
0.5789260549825442
 40
0.8103480319191213
 40
1.0
 40
1.0
 40
1.0
 40
1.0
 10
90.5015124769856
 20
73.26052488806558
 30
0.0
 10
90.53790305901771
 20
73.25027858899031
 30
0.0
 10
90.6056122220542
 20
73.23121408669695
 30
0.0
 10
90.70137261620359
 20
73.20836160450418
 30
0.0
 10
90.78407289838871
 20
73.19423584915766
 30
0.0
 10
90.83523835615406
 20
73.19235955531754
 30
0.0
 10
90.85828331031894
 20
73.1915144713989
 30
0.0
  0
SPLINE
  5
159
330
1F
100
AcDbEntity
  8
0
  6
Continuous
 62
     7
370
    25
100
AcDbSpline
210
0.0
220
0.0
230
1.0
 70
     8
 71
     3
 72
    15
 73
    11
 74
     0
 42
0.000000001
 43
0.00000001
 40
0.0
 40
0.0
 40
0.0
 40
0.0
 40
0.1469514705683546
 40
0.2876755636481678
 40
0.4221707399046749
 40
0.5498486870312437
 40
0.6715125646661523
 40
0.7872678488036711
 40
0.8964645208268409
 40
1.0
 40
1.0
 40
1.0
 40
1.0
 10
88.51062706031892
 20
73.55609780473225
 30
0.0
 10
88.60918813779904
 20
73.54962682593852
 30
0.0
 10
88.80213355990476
 20
73.53695908968086
 30
0.0
 10
89.08466514840592
 20
73.51038061092197
 30
0.0
 10
89.3538407508507
 20
73.4807283784409
 30
0.0
 10
89.60965897912295
 20
73.44718414078275
 30
0.0
 10
89.85200707458986
 20
73.40836510801067
 30
0.0
 10
90.08069757395698
 20
73.36384638328911
 30
0.0
 10
90.29644010209476
 20
73.31660110283288
 30
0.0
 10
90.43437861768203
 20
73.27888237143928
 30
0.0
 10
90.5015124769856
 20
73.26052488806558
 30
0.0
  0
SPLINE
  5
15B
330
1F
100
AcDbEntity
  8
0
  6
Continuous
 62
     7
370
    25
100
AcDbSpline
210
0.0
220
0.0
230
1.0
 70
     8
 71
     3
 72
    15
 73
    11
 74
     0
 42
0.000000001
 43
0.00000001
 40
0.0
 40
0.0
 40
0.0
 40
0.0
 40
0.1100540854982714
 40
0.2197125603007936
 40
0.3308932734843412
 40
0.4441412822089834
 40
0.5641318728671918
 40
0.6970958818620289
 40
0.8419688203213398
 40
0.9999999999999999
 40
0.9999999999999999
 40
0.9999999999999999
 40
0.9999999999999999
 10
90.1382312269856
 20
72.62510822139889
 30
0.0
 10
90.08630437535587
 20
72.6607605772584
 30
0.0
 10
89.98263733320765
 20
72.73193712968879
 30
0.0
 10
89.81587830409678
 20
72.82238169590842
 30
0.0
 10
89.63934387537284
 20
72.89623157652315
 30
0.0
 10
89.45170353930439
 20
72.95712482085666
 30
0.0
 10
89.24727113892425
 20
73.00389115104676
 30
0.0
 10
89.02241003493891
 20
73.03983560004448
 30
0.0
 10
88.77409531758745
 20
73.06419515489569
 30
0.0
 10
88.60095687385513
 20
73.07170895425816
 30
0.0
 10
88.51062706031892
 20
73.07562905473223
 30
0.0
  0
SPLINE
  5
15C
330
1F
100
AcDbEntity
  8
0
  6
Continuous
 62
     7
370
    25
100
AcDbSpline
210
0.0
220
0.0
230
1.0
 70
     8
 71
     3
 72
    15
 73
    11
 74
     0
 42
0.000000001
 43
0.00000001
 40
0.0
 40
0.0
 40
0.0
 40
0.0
 40
0.1763520326564888
 40
0.3227579070288178
 40
0.4379798134948253
 40
0.527999070863884
 40
0.613409594503171
 40
0.7170893738202538
 40
0.8452947695478679
 40
1.0
 40
1.0
 40
1.0
 40
1.0
 10
92.07442914365227
 20
70.01703530473223
 30
0.0
 10
92.0514033670958
 20
70.00671897324422
 30
0.0
 10
92.00926179754808
 20
69.98783811596616
 30
0.0
 10
91.95238018072683
 20
69.9608487645506
 30
0.0
 10
91.91142750320356
 20
69.93150654263015
 30
0.0
 10
91.88014916302922
 20
69.90316526600441
 30
0.0
 10
91.86260620782028
 20
69.86648720967688
 30
0.0
 10
91.8512103497366
 20
69.82240443952165
 30
0.0
 10
91.84552985158838
 20
69.76716994593625
 30
0.0
 10
91.84451522581386
 20
69.72667779901097
 30
0.0
 10
91.84396039365227
 20
69.70453530473223
 30
0.0
  0
SPLINE
  5
15D
330
1F
100
AcDbEntity
  8
0
  6
Continuous
 62
     7
370
    25
100
AcDbSpline
210
0.0
220
0.0
230
1.0
 70
     8
 71
     3
 72
    13
 73
     9
 74
     0
 42
0.000000001
 43
0.00000001
 40
0.0
 40
0.0
 40
0.0
 40
0.0
 40
0.1963091314900084
 40
0.391388158140492
 40
0.5032705077490417
 40
0.6384901176752552
 40
0.8067116116400503
 40
1.0
 40
1.0
 40
1.0
 40
1.0
 10
92.34396039365227
 20
70.27484780473223
 30
0.0
 10
92.34144891858952
 20
70.24854511651903
 30
0.0
 10
92.33644170577388
 20
70.19610455700058
 30
0.0
 10
92.29530536962416
 20
70.13933105961365
 30
0.0
 10
92.24796876159547
 20
70.10470396826709
 30
0.0
 10
92.20140289350397
 20
70.07502951419265
 30
0.0
 10
92.14187184611121
 20
70.04651071280746
 30
0.0
 10
92.09792577648936
 20
70.02730436003421
 30
0.0
 10
92.07442914365227
 20
70.01703530473223
 30
0.0
  0
SPLINE
  5
15E
330
1F
100
AcDbEntity
  8
0
  6
Continuous
 62
     7
370
    25
100
AcDbSpline
210
0.0
220
0.0
230
1.0
 70
     8
 71
     3
 72
    15
 73
    11
 74
     0
 42
0.000000001
 43
0.00000001
 40
0.0
 40
0.0
 40
0.0
 40
0.0
 40
0.212815906300871
 40
0.3929750234093524
 40
0.5394804856971879
 40
0.6559022850421671
 40
0.7502806992828481
 40
0.8341314403115411
 40
0.9136830607057438
 40
1.0
 40
1.0
 40
1.0
 40
1.0
 10
91.71765831031892
 20
70.52484780473223
 30
0.0
 10
91.77063543614211
 20
70.5241350094882
 30
0.0
 10
91.86846030093906
 20
70.52281879806125
 30
0.0
 10
92.00239394538755
 20
70.51273663239175
 30
0.0
 10
92.1118528794572
 20
70.49739756785854
 30
0.0
 10
92.1975616109777
 20
70.47295525069336
 30
0.0
 10
92.26450183310884
 20
70.4409342061423
 30
0.0
 10
92.31089146719052
 20
70.39494954182884
 30
0.0
 10
92.33922640595279
 20
70.33794071085838
 30
0.0
 10
92.34234006524115
 20
70.29644296611127
 30
0.0
 10
92.34396039365227
 20
70.27484780473223
 30
0.0
  0
SPLINE
  5
160
330
1F
100
AcDbEntity
  8
0
  6
Continuous
 62
     7
370
    25
100
AcDbSpline
210
0.0
220
0.0
230
1.0
 70
     8
 71
     3
 72
    15
 73
    11
 74
     0
 42
0.000000001
 43
0.00000001
 40
0.0
 40
0.0
 40
0.0
 40
0.0
 40
0.0730441454632053
 40
0.1483896108626686
 40
0.2348469979596869
 40
0.3410586260561596
 40
0.4691909138059578
 40
0.6217012331268372
 40
0.7983400591208747
 40
1.0
 40
1.0
 40
1.0
 40
1.0
 10
88.09396039365227
 20
70.28396238806558
 30
0.0
 10
88.09596204954212
 20
70.30265866000812
 30
0.0
 10
88.10002842524815
 20
70.34064024635627
 30
0.0
 10
88.1352793522114
 20
70.39159854374473
 30
0.0
 10
88.19090591781102
 20
70.43172246748694
 30
0.0
 10
88.26496740957774
 20
70.46673764383455
 30
0.0
 10
88.36006705431552
 20
70.49291216247505
 30
0.0
 10
88.47484665091345
 20
70.51157033423092
 30
0.0
 10
88.60935973553765
 20
70.5229900772087
 30
0.0
 10
88.70548125613853
 20
70.52420184629146
 30
0.0
 10
88.75672081031894
 20
70.52484780473223
 30
0.0
  0
SPLINE
  5
161
330
1F
100
AcDbEntity
  8
0
  6
Continuous
 62
     7
370
    25
100
AcDbSpline
210
0.0
220
0.0
230
1.0
 70
     8
 71
     3
 72
    15
 73
    11
 74
     0
 42
0.000000001
 43
0.00000001
 40
0.0
 40
0.0
 40
0.0
 40
0.0
 40
0.1777779292903484
 40
0.3360590699205856
 40
0.4770020733046929
 40
0.5982734918541678
 40
0.7048913213236233
 40
0.804272205021729
 40
0.9011078468933799
 40
1.0
 40
1.0
 40
1.0
 40
1.0
 10
88.45203331031895
 20
70.03396238806559
 30
0.0
 10
88.42416373855552
 20
70.0387412189641
 30
0.0
 10
88.3714810326466
 20
70.04777478951739
 30
0.0
 10
88.29809996697544
 20
70.06713235841431
 30
0.0
 10
88.23517260126393
 20
70.09063869555824
 30
0.0
 10
88.1851108940028
 20
70.12157756450158
 30
0.0
 10
88.14414994459545
 20
70.15409816146142
 30
0.0
 10
88.11446540740616
 20
70.19264713560395
 30
0.0
 10
88.09655977086766
 20
70.23694039665327
 30
0.0
 10
88.0948329007966
 20
70.26817898302342
 30
0.0
 10
88.09396039365227
 20
70.28396238806558
 30
0.0
  0
SPLINE
  5
162
330
1F
100
AcDbEntity
  8
0
  6
Continuous
 62
     7
370
    25
100
AcDbSpline
210
0.0
220
0.0
230
1.0
 70
     8
 71
     3
 72
    13
 73
     9
 74
     0
 42
0.000000001
 43
0.00000001
 40
0.0
 40
0.0
 40
0.0
 40
0.0
 40
0.1366650536647858
 40
0.2552849436371754
 40
0.3436645229222844
 40
0.4996575107270195
 40
0.7173693455879884
 40
1.0
 40
1.0
 40
1.0
 40
1.0
 10
88.89864789365227
 20
69.92719155473223
 30
0.0
 10
88.88197895323925
 20
69.94057916714047
 30
0.0
 10
88.85084202832888
 20
69.96558670043025
 30
0.0
 10
88.79917158325414
 20
69.98185080305879
 30
0.0
 10
88.74382787041095
 20
69.99153801295202
 30
0.0
 10
88.67308814050136
 20
70.00326174105368
 30
0.0
 10
88.5722629346126
 20
70.01703572635984
 30
0.0
 10
88.49543272659253
 20
70.02785235285748
 30
0.0
 10
88.45203331031894
 20
70.03396238806558
 30
0.0
  0
SPLINE
  5
163
330
1F
100
AcDbEntity
  8
0
  6
Continuous
 62
     7
370
    25
100
AcDbSpline
210
0.0
220
0.0
230
1.0
 70
     8
 71
     3
 72
    11
 73
     7
 74
     0
 42
0.000000001
 43
0.00000001
 40
0.0
 40
0.0
 40
0.0
 40
0.0
 40
0.2835994733572667
 40
0.5360180390274399
 40
0.7675161820664237
 40
1.0
 40
1.0
 40
1.0
 40
1.0
 10
89.01062706031892
 20
69.67719155473223
 30
0.0
 10
89.00964934699974
 20
69.70426377273881
 30
0.0
 10
89.00780141699524
 20
69.75543169994343
 30
0.0
 10
88.98685718234486
 20
69.82620472873427
 30
0.0
 10
88.950968351788
 20
69.88572053837224
 30
0.0
 10
88.91611272858289
 20
69.9133483186265
 30
0.0
 10
88.89864789365227
 20
69.92719155473223
 30
0.0
  0
SPLINE
  5
165
330
1F
100
AcDbEntity
  8
0
  6
Continuous
 62
     7
370
    25
100
AcDbSpline
210
0.0
220
0.0
230
1.0
 70
     8
 71
     3
 72
    11
 73
     7
 74
     0
 42
0.000000001
 43
0.00000001
 40
0.0
 40
0.0
 40
0.0
 40
0.0
 40
0.2423789965536098
 40
0.4834171887744117
 40
0.7348646557493107
 40
0.9999999999999999
 40
0.9999999999999999
 40
0.9999999999999999
 40
0.9999999999999999
 10
88.88302289365228
 20
68.01833738806558
 30
0.0
 10
88.90273054261776
 20
68.04192761817134
 30
0.0
 10
88.94203682078428
 20
68.08897758076066
 30
0.0
 10
88.98284067000058
 20
68.17347709276194
 30
0.0
 10
89.00637642666634
 20
68.26704832677869
 30
0.0
 10
89.00918537291679
 20
68.33243435715816
 30
0.0
 10
89.01062706031892
 20
68.36599363806558
 30
0.0
  0
SPLINE
  5
166
330
1F
100
AcDbEntity
  8
0
  6
Continuous
 62
     7
370
    25
100
AcDbSpline
210
0.0
220
0.0
230
1.0
 70
     8
 71
     3
 72
    13
 73
     9
 74
     0
 42
0.000000001
 43
0.00000001
 40
0.0
 40
0.0
 40
0.0
 40
0.0
 40
0.1850061358384783
 40
0.3474358339188009
 40
0.4853334711660061
 40
0.6014918065588025
 40
0.8055876905260566
 40
1.0
 40
1.0
 40
1.0
 40
1.0
 10
88.37390831031892
 20
67.8204207213989
 30
0.0
 10
88.40780621617095
 20
67.82580984606697
 30
0.0
 10
88.47146544095516
 20
67.83593045647078
 30
0.0
 10
88.55974462766437
 20
67.85381069082771
 30
0.0
 10
88.63457926690451
 20
67.8732435118043
 30
0.0
 10
88.71534466875407
 20
67.89982561424095
 30
0.0
 10
88.80102235715324
 20
67.944566744101
 30
0.0
 10
88.85613579226096
 20
67.9941487806654
 30
0.0
 10
88.88302289365227
 20
68.01833738806556
 30
0.0
  0
SPLINE
  5
168
330
1F
100
AcDbEntity
  8
0
  6
Continuous
 62
     7
370
    25
100
AcDbSpline
210
0.0
220
0.0
230
1.0
 70
     8
 71
     3
 72
    15
 73
    11
 74
     0
 42
0.000000001
 43
0.00000001
 40
0.0
 40
0.0
 40
0.0
 40
0.0
 40
0.1194598208038233
 40
0.2441471144818557
 40
0.3751444093428394
 40
0.5115679979090597
 40
0.6460900702404325
 40
0.7729084051076238
 40
0.890582650074553
 40
1.0
 40
1.0
 40
1.0
 40
1.0
 10
90.12000206031895
 20
67.53266030473225
 30
0.0
 10
90.05153206802784
 20
67.51737244595661
 30
0.0
 10
89.91159588752812
 20
67.48612774308027
 30
0.0
 10
89.69452826590646
 20
67.44834105523863
 30
0.0
 10
89.46730757629216
 20
67.41110486486895
 30
0.0
 10
89.23320046541025
 20
67.38075484133992
 30
0.0
 10
89.00088039789414
 20
67.35655375030309
 30
0.0
 10
88.77909095668109
 20
67.33783960380909
 30
0.0
 10
88.57149619207829
 20
67.32715359243743
 30
0.0
 10
88.43815487116798
 20
67.32524605954808
 30
0.0
 10
88.37390831031892
 20
67.32432697139889
 30
0.0
  0
SPLINE
  5
169
330
1F
100
AcDbEntity
  8
0
  6
Continuous
 62
     7
370
    25
100
AcDbSpline
210
0.0
220
0.0
230
1.0
 70
     8
 71
     3
 72
    15
 73
    11
 74
     0
 42
0.000000001
 43
0.00000001
 40
0.0
 40
0.0
 40
0.0
 40
0.0
 40
0.0989800231171068
 40
0.210799496312582
 40
0.33443818257713
 40
0.4713649665535877
 40
0.6112587942554525
 40
0.745550419046931
 40
0.8754719519116847
 40
1.0
 40
1.0
 40
1.0
 40
1.0
 10
91.84396039365228
 20
68.18630613806558
 30
0.0
 10
91.79091343825932
 20
68.15614868209512
 30
0.0
 10
91.67793840425149
 20
68.09192181763866
 30
0.0
 10
91.4913942621621
 20
68.00391773979644
 30
0.0
 10
91.28101510153108
 20
67.91218959672676
 30
0.0
 10
91.05101137096935
 20
67.82250230695898
 30
0.0
 10
90.8123290524771
 20
67.73747124985738
 30
0.0
 10
90.5761715943771
 20
67.65827604578706
 30
0.0
 10
90.34619921666545
 20
67.59087873919371
 30
0.0
 10
90.19432805796212
 20
67.55179026769225
 30
0.0
 10
90.12000206031895
 20
67.53266030473225
 30
0.0
  0
LINE
  5
16B
330
1F
100
AcDbEntity
  8
0
  6
Continuous
 62
     7
370
    25
100
AcDbLine
 10
92.5
 20
5.0
 30
0.0
 11
92.5
 21
60.5
 31
0.0
  0
LINE
  5
16C
330
1F
100
AcDbEntity
  8
0
  6
Continuous
 62
     7
370
    25
100
AcDbLine
 10
92.5
 20
60.5
 30
0.0
 11
7.5
 21
60.5
 31
0.0
  0
LINE
  5
16D
330
1F
100
AcDbEntity
  8
0
  6
Continuous
 62
     7
370
    25
100
AcDbLine
 10
7.5
 20
60.5
 30
0.0
 11
7.5
 21
5.0
 31
0.0
  0
LINE
  5
16E
330
1F
100
AcDbEntity
  8
0
  6
Continuous
 62
     7
370
    25
100
AcDbLine
 10
7.5
 20
5.0
 30
0.0
 11
92.5
 21
5.0
 31
0.0
  0
LINE
  5
16F
330
1F
100
AcDbEntity
  8
0
  6
Continuous
 62
     7
370
    25
100
AcDbLine
 10
-5.0
 20
26.5
 30
0.0
 11
0.0
 21
26.5
 31
0.0
  0
LINE
  5
170
330
1F
100
AcDbEntity
  8
0
  6
Continuous
 62
     7
370
    25
100
AcDbLine
 10
-5.0
 20
56.5
 30
0.0
 11
-5.0
 21
26.5
 31
0.0
  0
LINE
  5
171
330
1F
100
AcDbEntity
  8
0
  6
Continuous
 62
     7
370
    25
100
AcDbLine
 10
0.0
 20
56.5
 30
0.0
 11
-5.0
 21
56.5
 31
0.0
  0
LINE
  5
172
330
1F
100
AcDbEntity
  8
0
  6
Continuous
 62
     7
370
    25
100
AcDbLine
 10
0.0
 20
83.0
 30
0.0
 11
0.0
 21
56.5
 31
0.0
  0
LINE
  5
173
330
1F
100
AcDbEntity
  8
0
  6
Continuous
 62
     7
370
    25
100
AcDbLine
 10
30.0
 20
83.0
 30
0.0
 11
0.0
 21
83.0
 31
0.0
  0
LINE
  5
174
330
1F
100
AcDbEntity
  8
0
  6
Continuous
 62
     7
370
    25
100
AcDbLine
 10
30.0
 20
88.0
 30
0.0
 11
30.0
 21
83.0
 31
0.0
  0
LINE
  5
175
330
1F
100
AcDbEntity
  8
0
  6
Continuous
 62
     7
370
    25
100
AcDbLine
 10
70.0
 20
88.0
 30
0.0
 11
30.0
 21
88.0
 31
0.0
  0
LINE
  5
176
330
1F
100
AcDbEntity
  8
0
  6
Continuous
 62
     7
370
    25
100
AcDbLine
 10
70.0
 20
83.0
 30
0.0
 11
70.0
 21
88.0
 31
0.0
  0
LINE
  5
177
330
1F
100
AcDbEntity
  8
0
  6
Continuous
 62
     7
370
    25
100
AcDbLine
 10
100.0
 20
83.0
 30
0.0
 11
70.0
 21
83.0
 31
0.0
  0
LINE
  5
178
330
1F
100
AcDbEntity
  8
0
  6
Continuous
 62
     7
370
    25
100
AcDbLine
 10
100.0
 20
56.5
 30
0.0
 11
100.0
 21
83.0
 31
0.0
  0
LINE
  5
179
330
1F
100
AcDbEntity
  8
0
  6
Continuous
 62
     7
370
    25
100
AcDbLine
 10
105.0
 20
56.5
 30
0.0
 11
100.0
 21
56.5
 31
0.0
  0
LINE
  5
17A
330
1F
100
AcDbEntity
  8
0
  6
Continuous
 62
     7
370
    25
100
AcDbLine
 10
105.0
 20
26.5
 30
0.0
 11
105.0
 21
56.5
 31
0.0
  0
LINE
  5
17B
330
1F
100
AcDbEntity
  8
0
  6
Continuous
 62
     7
370
    25
100
AcDbLine
 10
100.0
 20
26.5
 30
0.0
 11
105.0
 21
26.5
 31
0.0
  0
LINE
  5
17C
330
1F
100
AcDbEntity
  8
0
  6
Continuous
 62
     7
370
    25
100
AcDbLine
 10
100.0
 20
0.0
 30
0.0
 11
100.0
 21
26.5
 31
0.0
  0
LINE
  5
17D
330
1F
100
AcDbEntity
  8
0
  6
Continuous
 62
     7
370
    25
100
AcDbLine
 10
0.0
 20
0.0
 30
0.0
 11
100.0
 21
0.0
 31
0.0
  0
LINE
  5
17E
330
1F
100
AcDbEntity
  8
0
  6
Continuous
 62
     7
370
    25
100
AcDbLine
 10
0.0
 20
26.5
 30
0.0
 11
0.0
 21
0.0
 31
0.0
  0
LINE
  5
17F
330
1F
100
AcDbEntity
  8
0
  6
Continuous
 62
     7
370
    25
100
AcDbLine
 10
11.2439603937
 20
73.5027123881
 30
0.0
 11
11.2439603937
 21
73.0300561381
 31
0.0
  0
LINE
  5
180
330
1F
100
AcDbEntity
  8
0
  6
Continuous
 62
     7
370
    25
100
AcDbLine
 10
11.0200020603
 20
69.4415144714
 30
0.0
 11
10.7947416437
 21
69.3659936381
 31
0.0
  0
LINE
  5
181
330
1F
100
AcDbEntity
  8
0
  6
Continuous
 62
     7
370
    25
100
AcDbLine
 10
13.2075020603
 20
70.0235457214
 30
0.0
 11
12.225731227
 21
69.7943790547
 31
0.0
  0
LINE
  5
182
330
1F
100
AcDbEntity
  8
0
  6
Continuous
 62
     7
370
    25
100
AcDbLine
 10
11.827293727
 20
73.5157332214
 30
0.0
 11
12.0291166437
 21
73.5248478047
 31
0.0
  0
LINE
  5
183
330
1F
100
AcDbEntity
  8
0
  6
Continuous
 62
     7
370
    25
100
AcDbLine
 10
11.827293727
 20
73.0300561381
 30
0.0
 11
11.827293727
 21
73.5157332214
 31
0.0
  0
LINE
  5
184
330
1F
100
AcDbEntity
  8
0
  6
Continuous
 62
     7
370
    25
100
AcDbLine
 10
12.0525541437
 20
67.4597436381
 30
0.0
 11
11.0642728937
 21
67.6329207214
 31
0.0
  0
LINE
  5
185
330
1F
100
AcDbEntity
  8
0
  6
Continuous
 62
     7
370
    25
100
AcDbLine
 10
22.027293727
 20
72.4193790547
 30
0.0
 11
22.027293727
 21
68.4428165547
 31
0.0
  0
LINE
  5
186
330
1F
100
AcDbEntity
  8
0
  6
Continuous
 62
     7
370
    25
100
AcDbLine
 10
22.6939603937
 20
73.5157332214
 30
0.0
 11
22.6939603937
 21
73.0534936381
 31
0.0
  0
LINE
  5
187
330
1F
100
AcDbEntity
  8
0
  6
Continuous
 62
     7
370
    25
100
AcDbLine
 10
22.6939603937
 20
67.8230248881
 30
0.0
 11
22.6939603937
 21
67.3685978047
 31
0.0
  0
LINE
  5
188
330
1F
100
AcDbEntity
  8
0
  6
Continuous
 62
     7
370
    25
100
AcDbLine
 10
23.277293727
 20
73.0534936381
 30
0.0
 11
23.277293727
 21
73.5157332214
 31
0.0
  0
LINE
  5
189
330
1F
100
AcDbEntity
  8
0
  6
Continuous
 62
     7
370
    25
100
AcDbLine
 10
24.027293727
 20
68.4428165547
 30
0.0
 11
24.027293727
 21
72.4193790547
 31
0.0
  0
LINE
  5
18A
330
1F
100
AcDbEntity
  8
0
  6
Continuous
 62
     7
370
    25
100
AcDbLine
 10
23.277293727
 20
67.3685978047
 30
0.0
 11
23.277293727
 21
67.8230248881
 31
0.0
  0
LINE
  5
18B
330
1F
100
AcDbEntity
  8
0
  6
Continuous
 62
     7
370
    25
100
AcDbLine
 10
32.6439603937
 20
73.5027123881
 30
0.0
 11
32.6439603937
 21
73.0300561381
 31
0.0
  0
LINE
  5
18C
330
1F
100
AcDbEntity
  8
0
  6
Continuous
 62
     7
370
    25
100
AcDbLine
 10
32.4200020603
 20
69.4415144714
 30
0.0
 11
32.1947416437
 21
69.3659936381
 31
0.0
  0
LINE
  5
18D
330
1F
100
AcDbEntity
  8
0
  6
Continuous
 62
     7
370
    25
100
AcDbLine
 10
34.6075020603
 20
70.0235457214
 30
0.0
 11
33.625731227
 21
69.7943790547
 31
0.0
  0
LINE
  5
18E
330
1F
100
AcDbEntity
  8
0
  6
Continuous
 62
     7
370
    25
100
AcDbLine
 10
33.227293727
 20
73.5157332214
 30
0.0
 11
33.4291166437
 21
73.5248478047
 31
0.0
  0
LINE
  5
18F
330
1F
100
AcDbEntity
  8
0
  6
Continuous
 62
     7
370
    25
100
AcDbLine
 10
33.227293727
 20
73.0300561381
 30
0.0
 11
33.227293727
 21
73.5157332214
 31
0.0
  0
LINE
  5
190
330
1F
100
AcDbEntity
  8
0
  6
Continuous
 62
     7
370
    25
100
AcDbLine
 10
33.4525541437
 20
67.4597436381
 30
0.0
 11
32.4642728937
 21
67.6329207214
 31
0.0
  0
LINE
  5
191
330
1F
100
AcDbEntity
  8
0
  6
Continuous
 62
     7
370
    25
100
AcDbLine
 10
43.427293727
 20
72.4193790547
 30
0.0
 11
43.427293727
 21
68.4428165547
 31
0.0
  0
LINE
  5
192
330
1F
100
AcDbEntity
  8
0
  6
Continuous
 62
     7
370
    25
100
AcDbLine
 10
44.0939603937
 20
73.5157332214
 30
0.0
 11
44.0939603937
 21
73.0534936381
 31
0.0
  0
LINE
  5
193
330
1F
100
AcDbEntity
  8
0
  6
Continuous
 62
     7
370
    25
100
AcDbLine
 10
44.0939603937
 20
67.8230248881
 30
0.0
 11
44.0939603937
 21
67.3685978047
 31
0.0
  0
LINE
  5
194
330
1F
100
AcDbEntity
  8
0
  6
Continuous
 62
     7
370
    25
100
AcDbLine
 10
44.677293727
 20
73.0534936381
 30
0.0
 11
44.677293727
 21
73.5157332214
 31
0.0
  0
LINE
  5
195
330
1F
100
AcDbEntity
  8
0
  6
Continuous
 62
     7
370
    25
100
AcDbLine
 10
45.427293727
 20
68.4428165547
 30
0.0
 11
45.427293727
 21
72.4193790547
 31
0.0
  0
LINE
  5
196
330
1F
100
AcDbEntity
  8
0
  6
Continuous
 62
     7
370
    25
100
AcDbLine
 10
44.677293727
 20
67.3685978047
 30
0.0
 11
44.677293727
 21
67.8230248881
 31
0.0
  0
LINE
  5
197
330
1F
100
AcDbEntity
  8
0
  6
Continuous
 62
     7
370
    25
100
AcDbLine
 10
63.3254708103
 20
73.4415144714
 30
0.0
 11
67.1197416437
 21
73.4415144714
 31
0.0
  0
LINE
  5
198
330
1F
100
AcDbEntity
  8
0
  6
Continuous
 62
     7
370
    25
100
AcDbLine
 10
63.527293727
 20
68.2370873881
 30
0.0
 11
63.527293727
 21
72.6303165547
 31
0.0
  0
LINE
  5
199
330
1F
100
AcDbEntity
  8
0
  6
Continuous
 62
     7
370
    25
100
AcDbLine
 10
66.8606270603
 20
67.4415144714
 30
0.0
 11
63.3254708103
 21
67.4415144714
 31
0.0
  0
LINE
  5
19A
330
1F
100
AcDbEntity
  8
0
  6
Continuous
 62
     7
370
    25
100
AcDbLine
 10
66.8606270603
 20
72.5977644714
 30
0.0
 11
66.8606270603
 21
67.4415144714
 31
0.0
  0
LINE
  5
19B
330
1F
100
AcDbEntity
  8
0
  6
Continuous
 62
     7
370
    25
100
AcDbLine
 10
70.277293727
 20
69.2305769714
 30
0.0
 11
70.277293727
 21
67.4415144714
 31
0.0
  0
LINE
  5
19C
330
1F
100
AcDbEntity
  8
0
  6
Continuous
 62
     7
370
    25
100
AcDbLine
 10
67.4439603937
 20
67.4415144714
 30
0.0
 11
67.4439603937
 21
67.9337019714
 31
0.0
  0
LINE
  5
19D
330
1F
100
AcDbEntity
  8
0
  6
Continuous
 62
     7
370
    25
100
AcDbLine
 10
70.277293727
 20
67.4415144714
 30
0.0
 11
67.4439603937
 21
67.4415144714
 31
0.0
  0
LINE
  5
19E
330
1F
100
AcDbEntity
  8
0
  6
Continuous
 62
     7
370
    25
100
AcDbLine
 10
73.012449977
 20
73.4415144714
 30
0.0
 11
76.5020333103
 21
73.4415144714
 31
0.0
  0
LINE
  5
19F
330
1F
100
AcDbEntity
  8
0
  6
Continuous
 62
     7
370
    25
100
AcDbLine
 10
76.6778145603
 20
68.3256290547
 30
0.0
 11
73.0371895603
 21
72.6719832214
 31
0.0
  0
LINE
  5
1A0
330
1F
100
AcDbEntity
  8
0
  6
Continuous
 62
     7
370
    25
100
AcDbLine
 10
80.6270333103
 20
67.4415144714
 30
0.0
 11
77.1153145603
 21
67.4415144714
 31
0.0
  0
LINE
  5
1A1
330
1F
100
AcDbEntity
  8
0
  6
Continuous
 62
     7
370
    25
100
AcDbLine
 10
76.8705228937
 20
72.6719832214
 30
0.0
 11
80.6048978937
 21
68.1758894714
 31
0.0
  0
LINE
  5
1A2
330
1F
100
AcDbEntity
  8
0
  6
Continuous
 62
     7
370
    25
100
AcDbLine
 10
78.313231227
 20
73.4415144714
 30
0.0
 11
80.477293727
 21
73.4415144714
 31
0.0
  0
LINE
  5
1A3
330
1F
100
AcDbEntity
  8
0
  6
Continuous
 62
     7
370
    25
100
AcDbLine
 10
78.2689603937
 20
72.9284936381
 30
0.0
 11
78.0020333103
 21
73.0001082214
 31
0.0
  0
LINE
  5
1A4
330
1F
100
AcDbEntity
  8
0
  6
Continuous
 62
     7
370
    25
100
AcDbLine
 10
78.1035958103
 20
71.9206811381
 30
0.0
 11
78.5072416437
 21
72.3438582214
 31
0.0
  0
LINE
  5
1A5
330
1F
100
AcDbEntity
  8
0
  6
Continuous
 62
     7
370
    25
100
AcDbLine
 10
78.5228666437
 20
71.4337019714
 30
0.0
 11
78.1035958103
 21
71.9206811381
 31
0.0
  0
LINE
  5
1A6
330
1F
100
AcDbEntity
  8
0
  6
Continuous
 62
     7
370
    25
100
AcDbLine
 10
79.637449977
 20
72.4415144714
 30
0.0
 11
78.5228666437
 21
71.4337019714
 31
0.0
  0
LINE
  5
1A7
330
1F
100
AcDbEntity
  8
0
  6
Continuous
 62
     7
370
    25
100
AcDbLine
 10
74.8314603937
 20
67.4415144714
 30
0.0
 11
72.9004708103
 21
67.4415144714
 31
0.0
  0
LINE
  5
1A8
330
1F
100
AcDbEntity
  8
0
  6
Continuous
 62
     7
370
    25
100
AcDbLine
 10
75.4004708103
 20
69.0769311381
 30
0.0
 11
74.965574977
 21
68.6355248881
 31
0.0
  0
LINE
  5
1A9
330
1F
100
AcDbEntity
  8
0
  6
Continuous
 62
     7
370
    25
100
AcDbLine
 10
74.989012477
 20
69.5756290547
 30
0.0
 11
75.4004708103
 21
69.0769311381
 31
0.0
  0
LINE
  5
1AA
330
1F
100
AcDbEntity
  8
0
  6
Continuous
 62
     7
370
    25
100
AcDbLine
 10
73.6465645603
 20
68.3204207214
 30
0.0
 11
74.989012477
 21
69.5756290547
 31
0.0
  0
LINE
  5
1AB
330
1F
100
AcDbEntity
  8
0
  6
Continuous
 62
     7
370
    25
100
AcDbLine
 10
87.7606270603
 20
67.8178165547
 30
0.0
 11
87.7606270603
 21
67.3243269714
 31
0.0
  0
LINE
  5
1AC
330
1F
100
AcDbEntity
  8
0
  6
Continuous
 62
     7
370
    25
100
AcDbLine
 10
87.2606270603
 20
72.4428165547
 30
0.0
 11
87.2606270603
 21
68.3594832214
 31
0.0
  0
LINE
  5
1AD
330
1F
100
AcDbEntity
  8
0
  6
Continuous
 62
     7
370
    25
100
AcDbLine
 10
87.8439603937
 20
73.5600040547
 30
0.0
 11
87.8439603937
 21
73.0665144714
 31
0.0
  0
LINE
  5
1AE
330
1F
100
AcDbEntity
  8
0
  6
Continuous
 62
     7
370
    25
100
AcDbLine
 10
92.0106270603
 20
73.2631290547
 30
0.0
 11
92.0106270603
 21
71.5339623881
 31
0.0
  0
LINE
  5
1AF
330
1F
100
AcDbEntity
  8
0
  6
Continuous
 62
     7
370
    25
100
AcDbLine
 10
88.5106270603
 20
73.0756290547
 30
0.0
 11
88.5106270603
 21
73.5560978047
 31
0.0
  0
LINE
  5
1B0
330
1F
100
AcDbEntity
  8
0
  6
Continuous
 62
     7
370
    25
100
AcDbLine
 10
88.7567208103
 20
70.5248478047
 30
0.0
 11
91.7176583103
 21
70.5248478047
 31
0.0
  0
LINE
  5
1B1
330
1F
100
AcDbEntity
  8
0
  6
Continuous
 62
     7
370
    25
100
AcDbLine
 10
89.0106270603
 20
68.3659936381
 30
0.0
 11
89.0106270603
 21
69.6771915547
 31
0.0
  0
LINE
  5
1B2
330
1F
100
AcDbEntity
  8
0
  6
Continuous
 62
     7
370
    25
100
AcDbLine
 10
88.3739083103
 20
67.3243269714
 30
0.0
 11
88.3739083103
 21
67.8204207214
 31
0.0
  0
LINE
  5
1B3
330
1F
100
AcDbEntity
  8
0
  6
Continuous
 62
     7
370
    25
100
AcDbLine
 10
91.8439603937
 20
69.7045353047
 30
0.0
 11
91.8439603937
 21
68.1863061381
 31
0.0
  0
ENDSEC
  0
SECTION
  2
OBJECTS
  0
DICTIONARY
  5
C
330
0
100
AcDbDictionary
281
     1
  3
ACAD_GROUP
350
D
  3
ACAD_LAYOUT
350
1A
  3
ACAD_MLINESTYLE
350
17
  3
ACAD_PLOTSETTINGS
350
19
  3
ACAD_PLOTSTYLENAME
350
E
  3
ACAD_SCALELIST
350
47
  0
DICTIONARY
  5
D
102
{ACAD_REACTORS
330
C
102
}
330
C
100
AcDbDictionary
281
     1
  0
DICTIONARY
  5
1A
102
{ACAD_REACTORS
330
C
102
}
330
C
100
AcDbDictionary
281
     1
  3
Layout1
350
1E
  3
Layout2
350
26
  3
Model
350
22
  0
DICTIONARY
  5
17
102
{ACAD_REACTORS
330
C
102
}
330
C
100
AcDbDictionary
281
     1
  3
Standard
350
18
  0
DICTIONARY
  5
19
102
{ACAD_REACTORS
330
C
102
}
330
C
100
AcDbDictionary
281
     1
  0
ACDBDICTIONARYWDFLT
  5
E
102
{ACAD_REACTORS
330
C
102
}
330
C
100
AcDbDictionary
281
     1
  3
Normal
350
F
100
AcDbDictionaryWithDefault
340
F
  0
DICTIONARY
  5
47
102
{ACAD_REACTORS
330
C
102
}
330
C
100
AcDbDictionary
281
     1
  3
A0
350
48
  3
A1
350
49
  3
A2
350
4A
  3
A3
350
4B
  3
A4
350
4C
  3
A5
350
4D
  3
A6
350
4E
  3
A7
350
4F
  3
A8
350
50
  3
A9
350
51
  3
B0
350
52
  3
B1
350
53
  3
B2
350
54
  3
B3
350
55
  3
B4
350
56
  3
B5
350
57
  3
B6
350
58
  3
B7
350
59
  3
B8
350
5A
  3
B9
350
5B
  3
C0
350
5C
  3
C1
350
5D
  3
C2
350
5E
  3
C3
350
5F
  3
C4
350
60
  3
C5
350
61
  3
C6
350
62
  3
C7
350
63
  3
C8
350
64
  3
C9
350
65
  3
D0
350
66
  3
D1
350
67
  3
D2
350
68
  0
LAYOUT
  5
1E
102
{ACAD_REACTORS
330
1A
102
}
330
1A
100
AcDbPlotSettings
  1

  2
none_device
  4

  6

 40
0.0
 41
0.0
 42
0.0
 43
0.0
 44
0.0
 45
0.0
 46
0.0
 47
0.0
 48
0.0
 49
0.0
140
0.0
141
0.0
142
1.0
143
1.0
 70
   688
 72
     1
 73
     0
 74
     5
  7

 75
    16
147
1.0
148
0.0
149
0.0
100
AcDbLayout
  1
Layout1
 70
     1
 71
     1
 10
0.0
 20
0.0
 11
420.0
 21
297.0
 12
0.0
 22
0.0
 32
0.0
 14
1.0000000000E+20
 24
1.0000000000E+20
 34
1.0000000000E+20
 15
-1.0000000000E+20
 25
-1.0000000000E+20
 35
-1.0000000000E+20
146
0.0
 13
0.0
 23
0.0
 33
0.0
 16
1.0
 26
0.0
 36
0.0
 17
0.0
 27
1.0
 37
0.0
 76
     0
330
1B
  0
LAYOUT
  5
26
102
{ACAD_REACTORS
330
1A
102
}
330
1A
100
AcDbPlotSettings
  1

  2
none_device
  4

  6

 40
0.0
 41
0.0
 42
0.0
 43
0.0
 44
0.0
 45
0.0
 46
0.0
 47
0.0
 48
0.0
 49
0.0
140
0.0
141
0.0
142
1.0
143
1.0
 70
   688
 72
     1
 73
     0
 74
     5
  7

 75
    16
147
1.0
148
0.0
149
0.0
100
AcDbLayout
  1
Layout2
 70
     1
 71
     2
 10
0.0
 20
0.0
 11
0.0
 21
0.0
 12
0.0
 22
0.0
 32
0.0
 14
0.0
 24
0.0
 34
0.0
 15
0.0
 25
0.0
 35
0.0
146
0.0
 13
0.0
 23
0.0
 33
0.0
 16
1.0
 26
0.0
 36
0.0
 17
0.0
 27
1.0
 37
0.0
 76
     0
330
23
  0
LAYOUT
  5
22
102
{ACAD_REACTORS
330
1A
102
}
330
1A
100
AcDbPlotSettings
  1

  2
none_device
  4
ANSI_A_(11.00_x_8.50_Inches)
  6

 40
6.35
 41
19.05
 42
6.35000508
 43
19.05000254
 44
279.4
 45
215.9
 46
11.90624746
 47
-17.97050127
 48
0.0
 49
0.0
140
0.0
141
0.0
142
0.095625
143
1.0
 70
  1696
 72
     0
 73
     0
 74
     0
  7

 75
     0
147
0.0179189148
148
-1300.4909072572
149
0.0
100
AcDbLayout
  1
Model
 70
     1
 71
     0
 10
0.0
 20
0.0
 11
420.0
 21
297.0
 12
0.0
 22
0.0
 32
0.0
 14
-5.0
 24
0.0
 34
0.0
 15
105.0
 25
88.0
 35
0.0
146
0.0
 13
0.0
 23
0.0
 33
0.0
 16
1.0
 26
0.0
 36
0.0
 17
0.0
 27
1.0
 37
0.0
 76
     0
330
1F
331
29
  0
MLINESTYLE
  5
18
102
{ACAD_REACTORS
330
17
102
}
330
17
100
AcDbMlineStyle
  2
Standard
 70
     0
  3

 62
   256
 51
90.0
 52
90.0
 71
     2
 49
0.5
 62
   256
  6
BYLAYER
 49
-0.5
 62
   256
  6
BYLAYER
  0
ACDBPLACEHOLDER
  5
F
102
{ACAD_REACTORS
330
E
102
}
330
E
  0
SCALE
  5
48
102
{ACAD_REACTORS
330
47
102
}
330
47
100
AcDbScale
 70
     0
300
1:1
140
1.0
141
1.0
290
     1
  0
SCALE
  5
49
102
{ACAD_REACTORS
330
47
102
}
330
47
100
AcDbScale
 70
     0
300
1:2
140
1.0
141
2.0
290
     0
  0
SCALE
  5
4A
102
{ACAD_REACTORS
330
47
102
}
330
47
100
AcDbScale
 70
     0
300
1:4
140
1.0
141
4.0
290
     0
  0
SCALE
  5
4B
102
{ACAD_REACTORS
330
47
102
}
330
47
100
AcDbScale
 70
     0
300
1:5
140
1.0
141
5.0
290
     0
  0
SCALE
  5
4C
102
{ACAD_REACTORS
330
47
102
}
330
47
100
AcDbScale
 70
     0
300
1:8
140
1.0
141
8.0
290
     0
  0
SCALE
  5
4D
102
{ACAD_REACTORS
330
47
102
}
330
47
100
AcDbScale
 70
     0
300
1:10
140
1.0
141
10.0
290
     0
  0
SCALE
  5
4E
102
{ACAD_REACTORS
330
47
102
}
330
47
100
AcDbScale
 70
     0
300
1:16
140
1.0
141
16.0
290
     0
  0
SCALE
  5
4F
102
{ACAD_REACTORS
330
47
102
}
330
47
100
AcDbScale
 70
     0
300
1:20
140
1.0
141
20.0
290
     0
  0
SCALE
  5
50
102
{ACAD_REACTORS
330
47
102
}
330
47
100
AcDbScale
 70
     0
300
1:30
140
1.0
141
30.0
290
     0
  0
SCALE
  5
51
102
{ACAD_REACTORS
330
47
102
}
330
47
100
AcDbScale
 70
     0
300
1:40
140
1.0
141
40.0
290
     0
  0
SCALE
  5
52
102
{ACAD_REACTORS
330
47
102
}
330
47
100
AcDbScale
 70
     0
300
1:50
140
1.0
141
50.0
290
     0
  0
SCALE
  5
53
102
{ACAD_REACTORS
330
47
102
}
330
47
100
AcDbScale
 70
     0
300
1:100
140
1.0
141
100.0
290
     0
  0
SCALE
  5
54
102
{ACAD_REACTORS
330
47
102
}
330
47
100
AcDbScale
 70
     0
300
2:1
140
2.0
141
1.0
290
     0
  0
SCALE
  5
55
102
{ACAD_REACTORS
330
47
102
}
330
47
100
AcDbScale
 70
     0
300
4:1
140
4.0
141
1.0
290
     0
  0
SCALE
  5
56
102
{ACAD_REACTORS
330
47
102
}
330
47
100
AcDbScale
 70
     0
300
8:1
140
8.0
141
1.0
290
     0
  0
SCALE
  5
57
102
{ACAD_REACTORS
330
47
102
}
330
47
100
AcDbScale
 70
     0
300
10:1
140
10.0
141
1.0
290
     0
  0
SCALE
  5
58
102
{ACAD_REACTORS
330
47
102
}
330
47
100
AcDbScale
 70
     0
300
100:1
140
100.0
141
1.0
290
     0
  0
SCALE
  5
59
102
{ACAD_REACTORS
330
47
102
}
330
47
100
AcDbScale
 70
     0
300
1/128" = 1'-0"
140
0.0078125
141
12.0
290
     0
  0
SCALE
  5
5A
102
{ACAD_REACTORS
330
47
102
}
330
47
100
AcDbScale
 70
     0
300
1/64" = 1'-0"
140
0.015625
141
12.0
290
     0
  0
SCALE
  5
5B
102
{ACAD_REACTORS
330
47
102
}
330
47
100
AcDbScale
 70
     0
300
1/32" = 1'-0"
140
0.03125
141
12.0
290
     0
  0
SCALE
  5
5C
102
{ACAD_REACTORS
330
47
102
}
330
47
100
AcDbScale
 70
     0
300
1/16" = 1'-0"
140
0.0625
141
12.0
290
     0
  0
SCALE
  5
5D
102
{ACAD_REACTORS
330
47
102
}
330
47
100
AcDbScale
 70
     0
300
3/32" = 1'-0"
140
0.09375
141
12.0
290
     0
  0
SCALE
  5
5E
102
{ACAD_REACTORS
330
47
102
}
330
47
100
AcDbScale
 70
     0
300
1/8" = 1'-0"
140
0.125
141
12.0
290
     0
  0
SCALE
  5
5F
102
{ACAD_REACTORS
330
47
102
}
330
47
100
AcDbScale
 70
     0
300
3/16" = 1'-0"
140
0.1875
141
12.0
290
     0
  0
SCALE
  5
60
102
{ACAD_REACTORS
330
47
102
}
330
47
100
AcDbScale
 70
     0
300
1/4" = 1'-0"
140
0.25
141
12.0
290
     0
  0
SCALE
  5
61
102
{ACAD_REACTORS
330
47
102
}
330
47
100
AcDbScale
 70
     0
300
3/8" = 1'-0"
140
0.375
141
12.0
290
     0
  0
SCALE
  5
62
102
{ACAD_REACTORS
330
47
102
}
330
47
100
AcDbScale
 70
     0
300
1/2" = 1'-0"
140
0.5
141
12.0
290
     0
  0
SCALE
  5
63
102
{ACAD_REACTORS
330
47
102
}
330
47
100
AcDbScale
 70
     0
300
3/4" = 1'-0"
140
0.75
141
12.0
290
     0
  0
SCALE
  5
64
102
{ACAD_REACTORS
330
47
102
}
330
47
100
AcDbScale
 70
     0
300
1" = 1'-0"
140
1.0
141
12.0
290
     0
  0
SCALE
  5
65
102
{ACAD_REACTORS
330
47
102
}
330
47
100
AcDbScale
 70
     0
300
1-1/2" = 1'-0"
140
1.5
141
12.0
290
     0
  0
SCALE
  5
66
102
{ACAD_REACTORS
330
47
102
}
330
47
100
AcDbScale
 70
     0
300
3" = 1'-0"
140
3.0
141
12.0
290
     0
  0
SCALE
  5
67
102
{ACAD_REACTORS
330
47
102
}
330
47
100
AcDbScale
 70
     0
300
6" = 1'-0"
140
6.0
141
12.0
290
     0
  0
SCALE
  5
68
102
{ACAD_REACTORS
330
47
102
}
330
47
100
AcDbScale
 70
     0
300
1'-0" = 1'-0"
140
12.0
141
12.0
290
     0
  0
ENDSEC
  0
EOF
